SplineFontDB: 3.0
FontName: KreativeSquareSM
FullName: Kreative Square SM
FamilyName: Kreative Square SM
Weight: Medium
Copyright: Kreative Square copyright (c) Kreative Software 2017-2022 under the Open Font License.
UComments: "2017-9-3: Created with FontForge (http://fontforge.org)"
Version: 2022.10.20
ItalicAngle: 0
UnderlinePosition: -72
UnderlineWidth: 36
Ascent: 560
Descent: 160
InvalidEm: 0
LayerCount: 2
Layer: 0 0 "Back" 1
Layer: 1 0 "Fore" 0
XUID: [1021 743 -2085470654 13303454]
FSType: 0
OS2Version: 0
OS2_WeightWidthSlopeOnly: 0
OS2_UseTypoMetrics: 1
CreationTime: 1504498285
ModificationTime: 1666165411
PfmFamily: 49
TTFWeight: 500
TTFWidth: 5
LineGap: 0
VLineGap: 0
Panose: 2 0 6 9 0 0 0 0 0 0
OS2TypoAscent: 560
OS2TypoAOffset: 0
OS2TypoDescent: -160
OS2TypoDOffset: 0
OS2TypoLinegap: 0
OS2WinAscent: 560
OS2WinAOffset: 0
OS2WinDescent: 160
OS2WinDOffset: 0
HheadAscent: 560
HheadAOffset: 0
HheadDescent: -160
HheadDOffset: 0
OS2XHeight: 400
OS2Vendor: 'KrKo'
Lookup: 4 0 1 "Combining Sequences 0" { "Combining Sequences 0-1"  } [<1,0> ('DFLT' <'dflt' > 'cyrl' <'dflt' > 'grek' <'dflt' > 'latn' <'dflt' > ) 'rlig' ('DFLT' <'dflt' > 'cyrl' <'dflt' > 'grek' <'dflt' > 'latn' <'dflt' > ) ]
MarkAttachClasses: 1
DEI: 91125
LangName: 1033
Encoding: UnicodeFull
UnicodeInterp: none
NameList: AGL For New Fonts
DisplaySize: -36
AntiAlias: 1
FitToEm: 1
WinInfo: 9584 16 16
BeginPrivate: 0
EndPrivate
BeginChars: 1114113 5973

StartChar: exclam
Encoding: 33 33 1
Width: 720
VWidth: 0
Flags: HMW
LayerCount: 2
Fore
SplineSet
320 80 m 25
 400 80 l 25
 400 0 l 25
 320 0 l 25
 320 80 l 25
320 480 m 25
 400 480 l 25
 400 160 l 25
 320 160 l 25
 320 480 l 25
EndSplineSet
Validated: 1
EndChar

StartChar: quotedbl
Encoding: 34 34 2
Width: 720
VWidth: 0
Flags: HMW
LayerCount: 2
Fore
SplineSet
400 480 m 25
 480 480 l 25
 480 280 l 25
 400 280 l 25
 400 480 l 25
240 480 m 25
 320 480 l 25
 320 280 l 25
 240 280 l 25
 240 480 l 25
EndSplineSet
Validated: 1
EndChar

StartChar: numbersign
Encoding: 35 35 3
Width: 720
VWidth: 0
Flags: HMW
LayerCount: 2
Fore
SplineSet
400 320 m 1
 320 320 l 1
 320 240 l 1
 400 240 l 1
 400 320 l 1
480 320 m 1
 480 240 l 1
 560 240 l 1
 560 160 l 1
 480 160 l 1
 480 80 l 1
 400 80 l 1
 400 160 l 1
 320 160 l 1
 320 80 l 1
 240 80 l 1
 240 160 l 1
 160 160 l 1
 160 240 l 1
 240 240 l 1
 240 320 l 1
 160 320 l 1
 160 400 l 1
 240 400 l 1
 240 480 l 1
 320 480 l 1
 320 400 l 1
 400 400 l 1
 400 480 l 1
 480 480 l 1
 480 400 l 1
 560 400 l 1
 560 320 l 1
 480 320 l 1
EndSplineSet
Validated: 1
EndChar

StartChar: dollar
Encoding: 36 36 4
Width: 720
VWidth: 0
Flags: HMW
LayerCount: 2
Fore
SplineSet
320 80 m 0
 408 80 480 108 480 140 c 0
 480 202 80 194 80 340 c 0
 80 408 167 467 280 478 c 1
 280 560 l 1
 360 560 l 1
 360 477 l 1
 451 466 526 414 560 343 c 1
 476 329 l 1
 447 372 388 400 320 400 c 0
 232 400 160 372 160 340 c 0
 160 278 560 286 560 140 c 0
 560 72 473 13 360 2 c 1
 360 -80 l 1
 280 -80 l 1
 280 3 l 1
 189 15 114 66 80 137 c 1
 164 151 l 1
 193 108 252 80 320 80 c 0
EndSplineSet
Validated: 1
EndChar

StartChar: percent
Encoding: 37 37 5
Width: 720
VWidth: 0
Flags: HM
LayerCount: 2
Fore
SplineSet
172 108 m 25
 492 428 l 25
 548 372 l 25
 228 52 l 25
 172 108 l 25
160 360 m 0
 160 338 178 320 200 320 c 0
 222 320 240 338 240 360 c 0
 240 382 222 400 200 400 c 0
 178 400 160 382 160 360 c 0
80 360 m 0
 80 426 134 480 200 480 c 0
 266 480 320 426 320 360 c 0
 320 294 266 240 200 240 c 0
 134 240 80 294 80 360 c 0
480 120 m 0
 480 98 498 80 520 80 c 0
 542 80 560 98 560 120 c 0
 560 142 542 160 520 160 c 0
 498 160 480 142 480 120 c 0
400 120 m 0
 400 186 454 240 520 240 c 0
 586 240 640 186 640 120 c 0
 640 54 586 0 520 0 c 0
 454 0 400 54 400 120 c 0
EndSplineSet
Validated: 1
EndChar

StartChar: ampersand
Encoding: 38 38 6
Width: 720
VWidth: 0
Flags: HMW
LayerCount: 2
Fore
SplineSet
160 150 m 0
 160 111 196 80 240 80 c 0
 266 80 321 84 376 122 c 1
 314 192 269 220 240 220 c 0
 196 220 160 189 160 150 c 0
240 300 m 0
 284 300 320 322 320 350 c 0
 320 378 284 400 240 400 c 0
 196 400 160 378 160 350 c 0
 160 322 196 300 240 300 c 0
488 112 m 1
 511 82 538 46 570 0 c 1
 470 0 l 1
 455 22 441 42 427 60 c 1
 359 13 288 0 240 0 c 0
 152 0 80 67 80 150 c 0
 80 192 98 230 128 257 c 1
 98 281 80 314 80 350 c 0
 80 422 152 480 240 480 c 0
 328 480 400 422 400 350 c 0
 400 314 382 281 352 257 c 1
 368 242 392 226 434 178 c 1
 447 195 459 216 470 240 c 1
 570 240 l 1
 546 187 518 145 488 112 c 1
EndSplineSet
Validated: 1
EndChar

StartChar: quotesingle
Encoding: 39 39 7
Width: 720
VWidth: 0
Flags: HMW
LayerCount: 2
Fore
SplineSet
320 480 m 25
 400 480 l 25
 400 280 l 25
 320 280 l 25
 320 480 l 25
EndSplineSet
Validated: 1
EndChar

StartChar: parenleft
Encoding: 40 40 8
Width: 720
VWidth: 0
Flags: HMW
LayerCount: 2
Fore
SplineSet
492 -107 m 1
 451 -176 l 1
 325 -99 240 41 240 200 c 0
 240 359 325 499 451 576 c 1
 492 507 l 1
 389 444 320 330 320 200 c 0
 320 70 389 -44 492 -107 c 1
EndSplineSet
Validated: 1
EndChar

StartChar: parenright
Encoding: 41 41 9
Width: 720
VWidth: 0
Flags: HMW
LayerCount: 2
Fore
SplineSet
228 507 m 1
 269 576 l 1
 395 499 480 359 480 200 c 0
 480 41 395 -99 269 -176 c 1
 228 -107 l 1
 331 -44 400 70 400 200 c 0
 400 330 331 444 228 507 c 1
EndSplineSet
Validated: 1
EndChar

StartChar: asterisk
Encoding: 42 42 10
Width: 720
VWidth: 0
Flags: HMW
LayerCount: 2
Fore
SplineSet
400 349 m 1
 513 415 l 1
 553 345 l 1
 440 280 l 1
 553 215 l 1
 513 145 l 1
 400 211 l 1
 400 80 l 1
 320 80 l 1
 320 211 l 1
 207 145 l 1
 167 215 l 1
 280 280 l 1
 167 345 l 1
 207 415 l 1
 320 349 l 1
 320 480 l 1
 400 480 l 1
 400 349 l 1
EndSplineSet
Validated: 1
EndChar

StartChar: plus
Encoding: 43 43 11
Width: 720
VWidth: 0
Flags: HMW
LayerCount: 2
Fore
SplineSet
320 400 m 25
 400 400 l 25
 400 240 l 25
 560 240 l 25
 560 160 l 25
 400 160 l 25
 400 0 l 25
 320 0 l 25
 320 160 l 25
 160 160 l 25
 160 240 l 25
 320 240 l 25
 320 400 l 25
EndSplineSet
Validated: 1
EndChar

StartChar: comma
Encoding: 44 44 12
Width: 720
VWidth: 0
Flags: HMW
LayerCount: 2
Fore
SplineSet
280 97 m 1
 337 40 l 1
 200 -97 l 1
 143 -40 l 1
 280 97 l 1
EndSplineSet
Validated: 1
EndChar

StartChar: hyphen
Encoding: 45 45 13
Width: 720
VWidth: 0
Flags: HMW
LayerCount: 2
Fore
SplineSet
160 240 m 25
 560 240 l 25
 560 160 l 25
 160 160 l 25
 160 240 l 25
EndSplineSet
Validated: 1
EndChar

StartChar: period
Encoding: 46 46 14
Width: 720
VWidth: 0
Flags: HMW
LayerCount: 2
Fore
SplineSet
270 50 m 0
 270 78 292 100 320 100 c 0
 348 100 370 78 370 50 c 0
 370 22 348 0 320 0 c 0
 292 0 270 22 270 50 c 0
EndSplineSet
Validated: 1
EndChar

StartChar: slash
Encoding: 47 47 15
Width: 720
VWidth: 0
Flags: HMW
LayerCount: 2
Fore
SplineSet
52 -52 m 25
 612 508 l 25
 668 452 l 25
 108 -108 l 25
 52 -52 l 25
EndSplineSet
Validated: 1
EndChar

StartChar: zero
Encoding: 48 48 16
Width: 720
VWidth: 0
Flags: HM
LayerCount: 2
Fore
SplineSet
240 240 m 0
 240 152 294 80 360 80 c 0
 426 80 480 152 480 240 c 0
 480 328 426 400 360 400 c 0
 294 400 240 328 240 240 c 0
160 240 m 0
 160 372 250 480 360 480 c 0
 470 480 560 372 560 240 c 0
 560 108 470 0 360 0 c 0
 250 0 160 108 160 240 c 0
EndSplineSet
Validated: 1
EndChar

StartChar: one
Encoding: 49 49 17
Width: 720
VWidth: 0
Flags: HMW
LayerCount: 2
Fore
SplineSet
226 378 m 1
 431 480 l 1
 480 480 l 1
 480 0 l 1
 399 0 l 1
 400 375 l 1
 262 306 l 1
 226 378 l 1
EndSplineSet
Validated: 1
EndChar

StartChar: two
Encoding: 50 50 18
Width: 720
VWidth: 0
Flags: HMW
LayerCount: 2
Fore
SplineSet
300 80 m 1
 560 80 l 1
 560 0 l 1
 160 0 l 1
 160 80 l 1
 160 80 480 266 480 350 c 0
 480 378 426 400 360 400 c 0
 302 400 253 383 242 360 c 1
 162 370 l 1
 177 433 260 480 360 480 c 0
 470 480 560 422 560 350 c 0
 560 242 300 80 300 80 c 1
EndSplineSet
Validated: 1
EndChar

StartChar: three
Encoding: 51 51 19
Width: 720
VWidth: 0
Flags: HMW
LayerCount: 2
Fore
SplineSet
241 140 m 1
 249 106 300 80 360 80 c 0
 426 80 480 111 480 150 c 0
 480 189 426 220 360 220 c 2
 320 220 l 1
 320 300 l 1
 360 300 l 2
 426 300 480 322 480 350 c 0
 480 378 426 400 360 400 c 0
 302 400 253 383 242 360 c 1
 162 370 l 1
 177 433 260 480 360 480 c 0
 470 480 560 422 560 350 c 0
 560 314 537 281 500 257 c 1
 537 230 560 192 560 150 c 0
 560 67 470 0 360 0 c 0
 259 0 175 56 162 130 c 1
 241 140 l 1
EndSplineSet
Validated: 1
EndChar

StartChar: four
Encoding: 52 52 20
Width: 720
VWidth: 0
Flags: HMW
LayerCount: 2
Fore
SplineSet
400 343 m 1
 240 183 l 1
 240 180 l 1
 399 180 l 1
 400 343 l 1
160 217 m 1
 423 480 l 1
 480 480 l 1
 480 180 l 1
 560 180 l 1
 560 100 l 1
 480 100 l 1
 480 0 l 1
 399 0 l 1
 399 100 l 1
 160 100 l 1
 160 217 l 1
EndSplineSet
Validated: 1
EndChar

StartChar: five
Encoding: 53 53 21
Width: 720
VWidth: 0
Flags: HMW
LayerCount: 2
Fore
SplineSet
250 400 m 1
 250 320 l 1
 360 320 l 2
 470 320 560 248 560 160 c 0
 560 72 470 0 360 0 c 0
 272 0 196 46 170 110 c 1
 246 135 l 1
 262 103 307 80 360 80 c 0
 426 80 480 116 480 160 c 0
 480 204 426 240 360 240 c 2
 170 240 l 1
 170 480 l 1
 550 480 l 1
 550 400 l 1
 250 400 l 1
EndSplineSet
Validated: 1
EndChar

StartChar: six
Encoding: 54 54 22
Width: 720
VWidth: 0
Flags: HMW
LayerCount: 2
Fore
SplineSet
437 381 m 1
 416 393 389 400 360 400 c 0
 294 400 240 364 240 320 c 2
 240 288 l 1
 273 308 315 320 360 320 c 0
 470 320 560 248 560 160 c 0
 560 72 470 0 360 0 c 0
 250 0 160 72 160 160 c 2
 160 320 l 2
 160 408 250 480 360 480 c 0
 415 480 465 462 501 433 c 1
 437 381 l 1
240 160 m 0
 240 116 294 80 360 80 c 0
 426 80 480 116 480 160 c 0
 480 204 426 240 360 240 c 0
 294 240 240 204 240 160 c 0
EndSplineSet
Validated: 1
EndChar

StartChar: seven
Encoding: 55 55 23
Width: 720
VWidth: 0
Flags: HMW
LayerCount: 2
Fore
SplineSet
160 480 m 1
 560 480 l 1
 560 429 l 1
 303 0 l 1
 209 0 l 1
 449 400 l 1
 160 400 l 1
 160 480 l 1
EndSplineSet
Validated: 1
EndChar

StartChar: eight
Encoding: 56 56 24
Width: 720
VWidth: 0
Flags: HMW
LayerCount: 2
Fore
SplineSet
240 150 m 0
 240 111 294 80 360 80 c 0
 426 80 480 111 480 150 c 0
 480 189 426 220 360 220 c 0
 294 220 240 189 240 150 c 0
160 350 m 0
 160 422 250 480 360 480 c 0
 470 480 560 422 560 350 c 0
 560 314 537 281 500 257 c 1
 537 230 560 192 560 150 c 0
 560 67 470 0 360 0 c 0
 250 0 160 67 160 150 c 0
 160 192 183 230 220 257 c 1
 183 281 160 314 160 350 c 0
360 300 m 0
 426 300 480 322 480 350 c 0
 480 378 426 400 360 400 c 0
 294 400 240 378 240 350 c 0
 240 322 294 300 360 300 c 0
EndSplineSet
Validated: 1
EndChar

StartChar: nine
Encoding: 57 57 25
Width: 720
VWidth: 0
Flags: HMW
LayerCount: 2
Fore
SplineSet
283 99 m 1
 304 87 331 80 360 80 c 0
 426 80 480 116 480 160 c 2
 480 192 l 1
 447 172 405 160 360 160 c 0
 250 160 160 232 160 320 c 0
 160 408 250 480 360 480 c 0
 470 480 560 408 560 320 c 2
 560 160 l 2
 560 72 470 0 360 0 c 0
 305 0 255 18 219 47 c 1
 283 99 l 1
480 320 m 0
 480 364 426 400 360 400 c 0
 294 400 240 364 240 320 c 0
 240 276 294 240 360 240 c 0
 426 240 480 276 480 320 c 0
EndSplineSet
Validated: 1
EndChar

StartChar: colon
Encoding: 58 58 26
Width: 720
VWidth: 0
Flags: HMW
LayerCount: 2
Fore
SplineSet
270 290 m 0
 270 318 292 340 320 340 c 0
 348 340 370 318 370 290 c 0
 370 262 348 240 320 240 c 0
 292 240 270 262 270 290 c 0
270 50 m 0
 270 78 292 100 320 100 c 0
 348 100 370 78 370 50 c 0
 370 22 348 0 320 0 c 0
 292 0 270 22 270 50 c 0
EndSplineSet
Validated: 1
EndChar

StartChar: semicolon
Encoding: 59 59 27
Width: 720
VWidth: 0
Flags: HMW
LayerCount: 2
Fore
SplineSet
320 97 m 1
 377 40 l 1
 240 -97 l 1
 183 -40 l 1
 320 97 l 1
270 290 m 0
 270 318 292 340 320 340 c 0
 348 340 370 318 370 290 c 0
 370 262 348 240 320 240 c 0
 292 240 270 262 270 290 c 0
EndSplineSet
Validated: 1
EndChar

StartChar: less
Encoding: 60 60 28
Width: 720
VWidth: 0
Flags: HMW
LayerCount: 2
Fore
SplineSet
412 428 m 1
 468 372 l 1
 297 200 l 1
 468 28 l 1
 412 -28 l 1
 183 200 l 1
 412 428 l 1
EndSplineSet
Validated: 1
EndChar

StartChar: equal
Encoding: 61 61 29
Width: 720
VWidth: 0
Flags: HMW
LayerCount: 2
Fore
SplineSet
160 160 m 25
 560 160 l 25
 560 80 l 25
 160 80 l 25
 160 160 l 25
160 320 m 25
 560 320 l 25
 560 240 l 25
 160 240 l 25
 160 320 l 25
EndSplineSet
Validated: 1
EndChar

StartChar: greater
Encoding: 62 62 30
Width: 720
VWidth: 0
Flags: HMW
LayerCount: 2
Fore
SplineSet
252 372 m 1
 308 428 l 1
 537 200 l 1
 308 -28 l 1
 252 28 l 1
 423 200 l 1
 252 372 l 1
EndSplineSet
Validated: 1
EndChar

StartChar: question
Encoding: 63 63 31
Width: 720
VWidth: 0
Flags: HMW
LayerCount: 2
Fore
SplineSet
320 80 m 25
 400 80 l 25
 400 0 l 25
 320 0 l 25
 320 80 l 25
400 160 m 1
 320 160 l 1
 320 268 480 266 480 350 c 0
 480 378 426 400 360 400 c 0
 302 400 253 383 242 360 c 1
 162 370 l 1
 177 433 260 480 360 480 c 0
 470 480 560 422 560 350 c 0
 560 242 400 244 400 160 c 1
EndSplineSet
Validated: 1
EndChar

StartChar: at
Encoding: 64 64 32
Width: 720
VWidth: 0
Flags: HM
LayerCount: 2
Fore
SplineSet
400 160 m 2
 480 160 l 1
 480 240 l 1
 400 240 l 2
 356 240 320 222 320 200 c 0
 320 178 356 160 400 160 c 2
400 80 m 2
 312 80 240 134 240 200 c 0
 240 266 312 320 400 320 c 2
 480 320 l 1
 480 360 l 2
 480 382 444 400 400 400 c 0
 268 400 160 310 160 200 c 0
 160 90 268 0 400 0 c 2
 440 0 l 1
 440 -80 l 1
 400 -80 l 2
 223 -80 80 45 80 200 c 0
 80 355 223 480 400 480 c 0
 488 480 560 425 560 360 c 2
 560 80 l 1
 400 80 l 2
EndSplineSet
Validated: 1
EndChar

StartChar: A
Encoding: 65 65 33
Width: 720
VWidth: 0
Flags: MW
LayerCount: 2
Fore
SplineSet
160 263 m 1
 160 260 l 1
 480 260 l 1
 480 263 l 1
 343 400 l 1
 297 400 l 1
 160 263 l 1
80 297 m 1
 263 480 l 1
 377 480 l 1
 560 297 l 1
 560 0 l 1
 480 0 l 1
 480 180 l 1
 160 180 l 1
 160 0 l 1
 80 0 l 1
 80 297 l 1
EndSplineSet
Validated: 1
EndChar

StartChar: B
Encoding: 66 66 34
Width: 720
VWidth: 0
Flags: HMW
LayerCount: 2
Fore
SplineSet
160 400 m 1
 160 300 l 1
 410 300 l 2
 438 300 460 322 460 350 c 0
 460 378 438 400 410 400 c 2
 160 400 l 1
410 480 m 2
 482 480 540 422 540 350 c 0
 540 317 528 287 508 264 c 1
 540 237 560 196 560 150 c 0
 560 67 493 0 410 0 c 2
 80 0 l 1
 80 480 l 1
 410 480 l 2
410 80 m 2
 449 80 480 111 480 150 c 0
 480 189 449 220 410 220 c 2
 160 220 l 1
 160 80 l 1
 410 80 l 2
EndSplineSet
Validated: 1
EndChar

StartChar: C
Encoding: 67 67 35
Width: 720
VWidth: 0
Flags: HMW
LayerCount: 2
Fore
SplineSet
80 240 m 0
 80 372 188 480 320 480 c 0
 415 480 498 424 537 343 c 1
 453 329 l 1
 424 372 375 400 320 400 c 0
 232 400 160 328 160 240 c 0
 160 152 232 80 320 80 c 0
 375 80 424 108 453 151 c 1
 537 137 l 1
 498 56 415 0 320 0 c 0
 188 0 80 108 80 240 c 0
EndSplineSet
Validated: 1
EndChar

StartChar: D
Encoding: 68 68 36
Width: 720
VWidth: 0
Flags: HMW
LayerCount: 2
Fore
SplineSet
160 400 m 1
 160 80 l 1
 320 80 l 2
 408 80 480 152 480 240 c 0
 480 328 408 400 320 400 c 2
 160 400 l 1
320 0 m 2
 80 0 l 1
 80 480 l 1
 320 480 l 2
 452 480 560 372 560 240 c 4
 560 108 452 0 320 0 c 2
EndSplineSet
Validated: 1
EndChar

StartChar: E
Encoding: 69 69 37
Width: 720
VWidth: 0
Flags: MW
LayerCount: 2
Fore
SplineSet
160 400 m 1
 160 300 l 1
 440 300 l 1
 440 220 l 1
 160 220 l 1
 160 80 l 1
 560 80 l 1
 560 0 l 1
 80 0 l 1
 80 480 l 1
 560 480 l 1
 560 400 l 1
 160 400 l 1
EndSplineSet
Validated: 1
EndChar

StartChar: F
Encoding: 70 70 38
Width: 720
VWidth: 0
Flags: HMW
LayerCount: 2
Fore
SplineSet
160 400 m 1
 160 300 l 1
 440 300 l 1
 440 220 l 1
 160 220 l 1
 160 0 l 1
 80 0 l 1
 80 480 l 1
 560 480 l 1
 560 400 l 1
 160 400 l 1
EndSplineSet
Validated: 1
EndChar

StartChar: G
Encoding: 71 71 39
Width: 720
VWidth: 0
Flags: HMW
LayerCount: 2
Fore
SplineSet
460 180 m 1
 320 180 l 1
 320 260 l 1
 540 260 l 1
 540 0 l 1
 320 0 l 2
 188 0 80 108 80 240 c 0
 80 372 188 480 320 480 c 0
 415 480 498 424 537 343 c 1
 453 329 l 1
 424 372 375 400 320 400 c 0
 232 400 160 328 160 240 c 0
 160 152 232 80 320 80 c 2
 460 80 l 1
 460 180 l 1
EndSplineSet
Validated: 1
EndChar

StartChar: H
Encoding: 72 72 40
Width: 720
VWidth: 0
Flags: HMW
LayerCount: 2
Fore
SplineSet
80 480 m 1
 160 480 l 1
 160 300 l 1
 480 300 l 1
 480 480 l 1
 560 480 l 1
 560 0 l 1
 480 0 l 1
 480 220 l 1
 160 220 l 1
 160 0 l 1
 80 0 l 1
 80 480 l 1
EndSplineSet
Validated: 1
EndChar

StartChar: I
Encoding: 73 73 41
Width: 720
VWidth: 0
Flags: HM
LayerCount: 2
Fore
SplineSet
240 480 m 25
 480 480 l 25
 480 400 l 25
 400 400 l 25
 400 80 l 25
 480 80 l 25
 480 0 l 25
 240 0 l 25
 240 80 l 25
 320 80 l 25
 320 400 l 29
 240 400 l 25
 240 480 l 25
EndSplineSet
Validated: 1
EndChar

StartChar: J
Encoding: 74 74 42
Width: 720
VWidth: 0
Flags: HMW
LayerCount: 2
Fore
SplineSet
320 480 m 1
 560 480 l 1
 560 400 l 1
 480 400 l 1
 480 200 l 2
 480 90 390 0 280 0 c 0
 193 0 118 57 91 135 c 1
 172 149 l 1
 191 109 232 80 280 80 c 0
 346 80 400 134 400 200 c 2
 400 400 l 1
 320 400 l 1
 320 480 l 1
EndSplineSet
Validated: 1
EndChar

StartChar: K
Encoding: 75 75 43
Width: 720
VWidth: 0
Flags: HMW
LayerCount: 2
Fore
SplineSet
80 480 m 1
 160 480 l 1
 160 216 l 1
 424 480 l 1
 536 480 l 1
 336 280 l 1
 616 0 l 1
 504 0 l 1
 280 224 l 1
 160 104 l 1
 160 0 l 1
 80 0 l 1
 80 480 l 1
EndSplineSet
Validated: 1
EndChar

StartChar: L
Encoding: 76 76 44
Width: 720
VWidth: 0
Flags: HM
LayerCount: 2
Fore
SplineSet
80 480 m 25
 160 480 l 25
 160 80 l 25
 560 80 l 25
 560 0 l 25
 80 0 l 25
 80 480 l 25
EndSplineSet
Validated: 1
EndChar

StartChar: M
Encoding: 77 77 45
Width: 720
VWidth: 0
Flags: HMW
LayerCount: 2
Fore
SplineSet
80 0 m 1
 80 480 l 1
 136 480 l 1
 320 296 l 1
 504 480 l 1
 560 480 l 1
 560 0 l 1
 480 0 l 1
 480 344 l 1
 320 184 l 1
 160 344 l 1
 160 0 l 1
 80 0 l 1
EndSplineSet
Validated: 1
EndChar

StartChar: N
Encoding: 78 78 46
Width: 720
VWidth: 0
Flags: HMW
LayerCount: 2
Fore
SplineSet
80 0 m 1
 80 480 l 1
 136 480 l 1
 480 136 l 1
 480 480 l 1
 560 480 l 1
 560 0 l 1
 504 0 l 1
 160 344 l 1
 160 0 l 1
 80 0 l 1
EndSplineSet
Validated: 1
EndChar

StartChar: O
Encoding: 79 79 47
Width: 720
VWidth: 0
Flags: HM
LayerCount: 2
Fore
SplineSet
160 240 m 0
 160 152 232 80 320 80 c 0
 408 80 480 152 480 240 c 0
 480 328 408 400 320 400 c 0
 232 400 160 328 160 240 c 0
80 240 m 0
 80 372 188 480 320 480 c 0
 452 480 560 372 560 240 c 0
 560 108 452 0 320 0 c 0
 188 0 80 108 80 240 c 0
EndSplineSet
Validated: 1
EndChar

StartChar: P
Encoding: 80 80 48
Width: 720
VWidth: 0
Flags: HM
LayerCount: 2
Fore
SplineSet
160 400 m 1
 160 240 l 1
 400 240 l 2
 444 240 480 276 480 320 c 0
 480 364 444 400 400 400 c 2
 160 400 l 1
400 480 m 2
 488 480 560 408 560 320 c 0
 560 232 488 160 400 160 c 2
 160 160 l 1
 160 0 l 1
 80 0 l 1
 80 480 l 1
 400 480 l 2
EndSplineSet
Validated: 1
EndChar

StartChar: Q
Encoding: 81 81 49
Width: 720
VWidth: 0
Flags: HMW
LayerCount: 2
Fore
SplineSet
303 160 m 1
 360 217 l 1
 441 136 l 1
 465 164 480 200 480 240 c 0
 480 328 408 400 320 400 c 0
 232 400 160 328 160 240 c 0
 160 152 232 80 320 80 c 0
 339 80 357 83 374 89 c 1
 303 160 l 1
80 240 m 0
 80 372 188 480 320 480 c 0
 452 480 560 372 560 240 c 0
 560 178 537 122 498 79 c 1
 588 -12 l 1
 532 -68 l 1
 434 29 l 1
 400 10 361 0 320 0 c 0
 188 0 80 108 80 240 c 0
EndSplineSet
Validated: 1
EndChar

StartChar: R
Encoding: 82 82 50
Width: 720
VWidth: 0
Flags: HMW
LayerCount: 2
Fore
SplineSet
400 480 m 2
 488 480 560 408 560 320 c 0
 560 237 496 169 415 161 c 1
 576 0 l 1
 464 0 l 1
 304 160 l 1
 160 160 l 1
 160 0 l 1
 80 0 l 1
 80 480 l 1
 400 480 l 2
160 400 m 1
 160 240 l 1
 400 240 l 2
 444 240 480 276 480 320 c 0
 480 364 444 400 400 400 c 2
 160 400 l 1
EndSplineSet
Validated: 1
EndChar

StartChar: S
Encoding: 83 83 51
Width: 720
VWidth: 0
Flags: HM
LayerCount: 2
Fore
SplineSet
320 80 m 0
 408 80 480 108 480 140 c 0
 480 202 80 194 80 340 c 0
 80 416 188 480 320 480 c 0
 428 480 521 424 560 343 c 1
 476 329 l 1
 447 372 388 400 320 400 c 0
 232 400 160 372 160 340 c 0
 160 278 560 286 560 140 c 0
 560 64 452 0 320 0 c 0
 212 0 119 56 80 137 c 1
 164 151 l 1
 193 108 252 80 320 80 c 0
EndSplineSet
Validated: 1
EndChar

StartChar: T
Encoding: 84 84 52
Width: 720
VWidth: 0
Flags: HM
LayerCount: 2
Fore
SplineSet
120 480 m 25
 600 480 l 25
 600 400 l 25
 400 400 l 25
 400 0 l 25
 320 0 l 25
 320 400 l 25
 120 400 l 25
 120 480 l 25
EndSplineSet
Validated: 1
EndChar

StartChar: U
Encoding: 85 85 53
Width: 720
VWidth: 0
Flags: HMW
LayerCount: 2
Fore
SplineSet
80 480 m 1
 160 480 l 1
 160 240 l 2
 160 152 232 80 320 80 c 0
 408 80 480 152 480 240 c 2
 480 480 l 1
 560 480 l 1
 560 240 l 2
 560 108 452 0 320 0 c 0
 188 0 80 108 80 240 c 2
 80 480 l 1
EndSplineSet
Validated: 1
EndChar

StartChar: V
Encoding: 86 86 54
Width: 720
VWidth: 0
Flags: HMW
LayerCount: 2
Fore
SplineSet
387 0 m 1
 333 0 l 1
 141 480 l 1
 227 480 l 1
 360 148 l 1
 493 480 l 1
 579 480 l 1
 387 0 l 1
EndSplineSet
Validated: 1
EndChar

StartChar: W
Encoding: 87 87 55
Width: 720
VWidth: 0
Flags: HMW
LayerCount: 2
Fore
SplineSet
62 480 m 1
 148 480 l 1
 270 154 l 1
 332 320 l 1
 388 320 l 1
 450 154 l 1
 572 480 l 1
 658 480 l 1
 478 0 l 1
 422 0 l 1
 360 167 l 1
 298 0 l 1
 242 0 l 1
 62 480 l 1
EndSplineSet
Validated: 1
EndChar

StartChar: X
Encoding: 88 88 56
Width: 720
VWidth: 0
Flags: HMW
LayerCount: 2
Fore
SplineSet
656 0 m 1
 544 0 l 1
 360 183 l 1
 176 0 l 1
 64 0 l 1
 303 240 l 1
 64 480 l 1
 176 480 l 1
 360 297 l 1
 544 480 l 1
 656 480 l 1
 417 240 l 1
 656 0 l 1
EndSplineSet
Validated: 1
EndChar

StartChar: Y
Encoding: 89 89 57
Width: 720
VWidth: 0
Flags: HMW
LayerCount: 2
Fore
SplineSet
63 480 m 1
 177 480 l 1
 360 297 l 1
 543 480 l 1
 657 480 l 1
 400 223 l 1
 400 0 l 1
 320 0 l 1
 320 223 l 1
 63 480 l 1
EndSplineSet
Validated: 1
EndChar

StartChar: Z
Encoding: 90 90 58
Width: 720
VWidth: 0
Flags: HMW
LayerCount: 2
Fore
SplineSet
80 480 m 1
 560 480 l 1
 560 424 l 1
 216 80 l 1
 560 80 l 1
 560 0 l 1
 80 0 l 1
 80 56 l 1
 424 400 l 1
 80 400 l 1
 80 480 l 1
EndSplineSet
Validated: 1
EndChar

StartChar: bracketleft
Encoding: 91 91 59
Width: 720
VWidth: 0
Flags: HMW
LayerCount: 2
Fore
SplineSet
240 -160 m 1
 240 560 l 1
 480 560 l 1
 480 480 l 1
 320 480 l 1
 320 -80 l 1
 480 -80 l 1
 480 -160 l 1
 240 -160 l 1
EndSplineSet
Validated: 1
EndChar

StartChar: backslash
Encoding: 92 92 60
Width: 720
VWidth: 0
Flags: HMW
LayerCount: 2
Fore
SplineSet
108 508 m 25
 668 -52 l 25
 612 -108 l 25
 52 452 l 25
 108 508 l 25
EndSplineSet
Validated: 1
EndChar

StartChar: bracketright
Encoding: 93 93 61
Width: 720
VWidth: 0
Flags: HMW
LayerCount: 2
Fore
SplineSet
400 480 m 1
 240 480 l 1
 240 560 l 1
 480 560 l 1
 480 -160 l 1
 240 -160 l 1
 240 -80 l 1
 400 -80 l 1
 400 480 l 1
EndSplineSet
Validated: 1
EndChar

StartChar: asciicircum
Encoding: 94 94 62
Width: 720
VWidth: 0
Flags: HMW
LayerCount: 2
Fore
SplineSet
268 332 m 1
 212 388 l 1
 360 537 l 1
 508 388 l 1
 452 332 l 1
 360 423 l 1
 268 332 l 1
EndSplineSet
Validated: 1
EndChar

StartChar: underscore
Encoding: 95 95 63
Width: 720
VWidth: 0
Flags: HMW
LayerCount: 2
Fore
SplineSet
80 -80 m 1
 640 -80 l 1
 640 -160 l 1
 80 -160 l 1
 80 -80 l 1
EndSplineSet
Validated: 1
EndChar

StartChar: grave
Encoding: 96 96 64
Width: 720
VWidth: 0
Flags: HMW
LayerCount: 2
Fore
SplineSet
223 480 m 1
 280 537 l 1
 428 388 l 1
 372 332 l 1
 223 480 l 1
EndSplineSet
Validated: 1
EndChar

StartChar: a
Encoding: 97 97 65
Width: 720
VWidth: 0
Flags: MW
LayerCount: 2
Fore
SplineSet
240 200 m 0
 240 134 274 80 320 80 c 0
 386 80 480 200 480 200 c 1
 480 320 l 1
 360 320 l 2
 294 320 240 266 240 200 c 0
480 99 m 1
 434 49 375 0 320 0 c 0
 230 0 160 90 160 200 c 0
 160 310 250 400 360 400 c 2
 560 400 l 1
 560 0 l 1
 480 0 l 1
 480 99 l 1
EndSplineSet
Validated: 1
EndChar

StartChar: b
Encoding: 98 98 66
Width: 720
VWidth: 0
Flags: HMW
LayerCount: 2
Fore
SplineSet
480 200 m 0
 480 266 446 320 400 320 c 0
 334 320 240 200 240 200 c 1
 240 80 l 1
 360 80 l 2
 426 80 480 134 480 200 c 0
240 301 m 1
 286 351 345 400 400 400 c 0
 490 400 560 310 560 200 c 0
 560 90 470 0 360 0 c 2
 160 0 l 1
 160 520 l 1
 240 520 l 1
 240 301 l 1
EndSplineSet
Validated: 1
EndChar

StartChar: c
Encoding: 99 99 67
Width: 720
VWidth: 0
Flags: HMW
LayerCount: 2
Fore
SplineSet
160 200 m 0
 160 310 250 400 360 400 c 0
 447 400 522 343 549 265 c 1
 468 251 l 1
 449 291 408 320 360 320 c 4
 294 320 240 266 240 200 c 0
 240 134 294 80 360 80 c 0
 408 80 449 109 468 149 c 1
 549 135 l 1
 522 57 447 0 360 0 c 0
 250 0 160 90 160 200 c 0
EndSplineSet
Validated: 1
EndChar

StartChar: d
Encoding: 100 100 68
Width: 720
VWidth: 0
Flags: HMW
LayerCount: 2
Fore
SplineSet
240 200 m 0
 240 134 274 80 320 80 c 0
 386 80 480 200 480 200 c 1
 480 320 l 1
 360 320 l 2
 294 320 240 266 240 200 c 0
480 99 m 1
 434 49 375 0 320 0 c 0
 230 0 160 90 160 200 c 0
 160 310 250 400 360 400 c 2
 480 400 l 1
 480 520 l 1
 560 520 l 1
 560 0 l 1
 480 0 l 1
 480 99 l 1
EndSplineSet
Validated: 1
EndChar

StartChar: e
Encoding: 101 101 69
Width: 720
VWidth: 0
Flags: HMW
LayerCount: 2
Fore
SplineSet
160 200 m 0
 160 310 250 400 360 400 c 0
 470 400 560 310 560 200 c 2
 560 160 l 1
 247 160 l 1
 264 114 308 80 360 80 c 2
 520 80 l 1
 520 0 l 1
 360 0 l 2
 250 0 160 90 160 200 c 0
473 240 m 1
 456 286 412 320 360 320 c 0
 308 320 264 286 247 240 c 1
 473 240 l 1
EndSplineSet
Validated: 1
EndChar

StartChar: f
Encoding: 102 102 70
Width: 720
VWidth: 0
Flags: HMW
LayerCount: 2
Fore
SplineSet
600 520 m 1
 600 440 l 1
 480 440 l 2
 436 440 400 404 400 360 c 1
 560 360 l 1
 560 280 l 1
 400 280 l 1
 400 0 l 1
 320 0 l 1
 320 280 l 1
 160 280 l 1
 160 360 l 1
 320 360 l 1
 320 448 392 520 480 520 c 2
 600 520 l 1
EndSplineSet
Validated: 1
EndChar

StartChar: g
Encoding: 103 103 71
Width: 720
VWidth: 0
Flags: HMW
LayerCount: 2
Fore
SplineSet
480 119 m 1
 434 69 375 40 320 40 c 0
 230 40 160 120 160 220 c 0
 160 320 250 400 360 400 c 2
 560 400 l 1
 560 80 l 2
 560 -30 470 -120 360 -120 c 0
 288 -120 224 -81 189 -23 c 1
 257 18 l 1
 278 -17 317 -40 360 -40 c 0
 426 -40 480 14 480 80 c 2
 480 119 l 1
240 220 m 0
 240 164 274 120 320 120 c 0
 386 120 480 220 480 220 c 1
 480 320 l 1
 360 320 l 2
 294 320 240 276 240 220 c 0
EndSplineSet
Validated: 1
EndChar

StartChar: h
Encoding: 104 104 72
Width: 720
VWidth: 0
Flags: HMW
LayerCount: 2
Fore
SplineSet
240 301 m 1
 286 351 345 400 400 400 c 0
 490 400 560 310 560 200 c 2
 560 0 l 1
 480 0 l 1
 480 200 l 2
 480 266 446 320 400 320 c 0
 334 320 240 200 240 200 c 1
 240 0 l 1
 160 0 l 1
 160 520 l 1
 240 520 l 1
 240 301 l 1
EndSplineSet
Validated: 1
EndChar

StartChar: i
Encoding: 105 105 73
Width: 720
VWidth: 0
Flags: HMW
LayerCount: 2
Fore
SplineSet
320 560 m 25
 400 560 l 25
 400 480 l 25
 320 480 l 25
 320 560 l 25
160 400 m 1
 400 400 l 1
 400 80 l 1
 560 80 l 1
 560 0 l 1
 160 0 l 1
 160 80 l 1
 320 80 l 1
 320 320 l 1
 160 320 l 1
 160 400 l 1
EndSplineSet
Validated: 1
EndChar

StartChar: j
Encoding: 106 106 74
Width: 720
VWidth: 0
Flags: HMW
LayerCount: 2
Fore
SplineSet
480 560 m 25
 560 560 l 25
 560 480 l 25
 480 480 l 25
 480 560 l 25
308 28 m 1
 301 35 291 40 280 40 c 0
 258 40 240 22 240 0 c 0
 240 -32 284 -40 350 -40 c 0
 416 -40 480 14 480 80 c 2
 480 400 l 1
 560 400 l 1
 560 80 l 2
 560 -30 460 -120 350 -120 c 0
 240 -120 160 -76 160 0 c 0
 160 66 214 120 280 120 c 0
 313 120 343 107 365 85 c 1
 308 28 l 1
EndSplineSet
Validated: 1
EndChar

StartChar: k
Encoding: 107 107 75
Width: 720
VWidth: 0
Flags: HMW
LayerCount: 2
Fore
SplineSet
160 520 m 1
 240 520 l 1
 240 217 l 1
 423 400 l 1
 537 400 l 1
 377 240 l 1
 617 0 l 1
 503 0 l 1
 320 183 l 1
 240 103 l 1
 240 0 l 1
 160 0 l 1
 160 520 l 1
EndSplineSet
Validated: 1
EndChar

StartChar: l
Encoding: 108 108 76
Width: 720
VWidth: 0
Flags: MW
LayerCount: 2
Fore
SplineSet
160 520 m 1
 400 520 l 1
 400 80 l 1
 560 80 l 1
 560 0 l 1
 160 0 l 1
 160 80 l 1
 320 80 l 1
 320 440 l 1
 160 440 l 1
 160 520 l 1
EndSplineSet
Validated: 1
EndChar

StartChar: m
Encoding: 109 109 77
Width: 720
VWidth: 0
Flags: HM
LayerCount: 2
Fore
SplineSet
640 0 m 1
 560 0 l 1
 560 240 l 2
 560 284 524 320 480 320 c 0
 436 320 400 284 400 240 c 2
 400 0 l 1
 320 0 l 1
 320 240 l 2
 320 284 284 320 240 320 c 0
 196 320 160 284 160 240 c 2
 160 0 l 1
 80 0 l 1
 80 400 l 1
 160 400 l 1
 160 378 l 1
 184 392 211 400 240 400 c 0
 288 400 331 379 360 346 c 1
 389 379 432 400 480 400 c 0
 568 400 640 328 640 240 c 2
 640 0 l 1
EndSplineSet
Validated: 1
EndChar

StartChar: n
Encoding: 110 110 78
Width: 720
VWidth: 0
Flags: HMW
LayerCount: 2
Fore
SplineSet
240 301 m 1
 286 351 345 400 400 400 c 0
 490 400 560 310 560 200 c 2
 560 0 l 1
 480 0 l 1
 480 200 l 2
 480 266 446 320 400 320 c 0
 334 320 240 200 240 200 c 1
 240 0 l 1
 160 0 l 1
 160 400 l 1
 240 400 l 1
 240 301 l 1
EndSplineSet
Validated: 1
EndChar

StartChar: o
Encoding: 111 111 79
Width: 720
VWidth: 0
Flags: HMW
LayerCount: 2
Fore
SplineSet
240 200 m 0
 240 134 294 80 360 80 c 0
 426 80 480 134 480 200 c 0
 480 266 426 320 360 320 c 0
 294 320 240 266 240 200 c 0
160 200 m 0
 160 310 250 400 360 400 c 0
 470 400 560 310 560 200 c 0
 560 90 470 0 360 0 c 0
 250 0 160 90 160 200 c 0
EndSplineSet
Validated: 1
EndChar

StartChar: p
Encoding: 112 112 80
Width: 720
VWidth: 0
Flags: HMW
LayerCount: 2
Fore
SplineSet
240 301 m 1
 286 351 345 400 400 400 c 0
 490 400 560 310 560 200 c 0
 560 90 470 0 360 0 c 2
 240 0 l 1
 240 -120 l 1
 160 -120 l 1
 160 400 l 1
 240 400 l 1
 240 301 l 1
480 200 m 0
 480 266 446 320 400 320 c 0
 334 320 240 200 240 200 c 1
 240 80 l 1
 360 80 l 2
 426 80 480 134 480 200 c 0
EndSplineSet
Validated: 1
EndChar

StartChar: q
Encoding: 113 113 81
Width: 720
VWidth: 0
Flags: HMW
LayerCount: 2
Fore
SplineSet
240 200 m 0
 240 134 274 80 320 80 c 0
 386 80 480 200 480 200 c 1
 480 320 l 1
 360 320 l 2
 294 320 240 266 240 200 c 0
480 99 m 1
 434 49 375 0 320 0 c 0
 230 0 160 90 160 200 c 0
 160 310 250 400 360 400 c 2
 560 400 l 1
 560 -120 l 1
 480 -120 l 1
 480 99 l 1
EndSplineSet
Validated: 1
EndChar

StartChar: r
Encoding: 114 114 82
Width: 720
VWidth: 0
Flags: HMW
LayerCount: 2
Fore
SplineSet
400 320 m 17
 334 320 240 200 240 200 c 1
 240 0 l 1
 160 0 l 1
 160 400 l 1
 240 400 l 1
 240 301 l 1
 286 351 345 400 400 400 c 9
 520 400 l 1
 520 320 l 1
 400 320 l 17
EndSplineSet
Validated: 1
EndChar

StartChar: s
Encoding: 115 115 83
Width: 720
VWidth: 0
Flags: HM
LayerCount: 2
Fore
SplineSet
520 400 m 1
 520 320 l 1
 280 320 l 2
 258 320 240 302 240 280 c 0
 240 258 258 240 280 240 c 2
 440 240 l 2
 506 240 560 186 560 120 c 0
 560 54 506 0 440 0 c 2
 160 0 l 1
 160 80 l 1
 440 80 l 2
 462 80 480 98 480 120 c 0
 480 142 462 160 440 160 c 2
 280 160 l 2
 214 160 160 214 160 280 c 0
 160 346 214 400 280 400 c 2
 520 400 l 1
EndSplineSet
Validated: 1
EndChar

StartChar: t
Encoding: 116 116 84
Width: 720
VWidth: 0
Flags: MW
LayerCount: 2
Fore
SplineSet
400 160 m 2
 400 116 436 80 480 80 c 2
 600 80 l 1
 600 0 l 1
 480 0 l 2
 392 0 320 72 320 160 c 2
 320 320 l 1
 160 320 l 1
 160 400 l 1
 320 400 l 1
 320 520 l 1
 400 520 l 1
 400 400 l 1
 560 400 l 1
 560 320 l 1
 400 320 l 1
 400 160 l 2
EndSplineSet
Validated: 1
EndChar

StartChar: u
Encoding: 117 117 85
Width: 720
VWidth: 0
Flags: MW
LayerCount: 2
Fore
SplineSet
480 99 m 1
 434 49 375 0 320 0 c 0
 230 0 160 90 160 200 c 2
 160 400 l 1
 240 400 l 1
 240 200 l 2
 240 134 274 80 320 80 c 0
 386 80 480 200 480 200 c 1
 480 400 l 1
 560 400 l 1
 560 0 l 1
 480 0 l 1
 480 99 l 1
EndSplineSet
Validated: 1
EndChar

StartChar: v
Encoding: 118 118 86
Width: 720
VWidth: 0
Flags: HMW
LayerCount: 2
Fore
SplineSet
385 0 m 1
 335 0 l 1
 135 400 l 1
 225 400 l 1
 360 129 l 1
 495 400 l 1
 585 400 l 1
 385 0 l 1
EndSplineSet
Validated: 1
EndChar

StartChar: w
Encoding: 119 119 87
Width: 720
VWidth: 0
Flags: HMW
LayerCount: 2
Fore
SplineSet
59 400 m 1
 146 400 l 1
 257 142 l 1
 333 320 l 1
 387 320 l 1
 463 142 l 1
 574 400 l 1
 661 400 l 1
 489 0 l 1
 437 0 l 1
 360 179 l 1
 283 0 l 1
 231 0 l 1
 59 400 l 1
EndSplineSet
Validated: 1
EndChar

StartChar: x
Encoding: 120 120 88
Width: 720
VWidth: 0
Flags: HMW
LayerCount: 2
Fore
SplineSet
616 400 m 1
 417 200 l 1
 616 0 l 1
 504 0 l 1
 360 143 l 1
 216 0 l 1
 104 0 l 1
 303 200 l 1
 104 400 l 1
 216 400 l 1
 360 257 l 1
 504 400 l 1
 616 400 l 1
EndSplineSet
Validated: 1
EndChar

StartChar: y
Encoding: 121 121 89
Width: 720
VWidth: 0
Flags: HMW
LayerCount: 2
Fore
SplineSet
480 119 m 1
 434 69 375 40 320 40 c 0
 230 40 160 120 160 220 c 2
 160 400 l 1
 240 400 l 1
 240 220 l 2
 240 164 274 120 320 120 c 0
 386 120 480 220 480 220 c 1
 480 400 l 1
 560 400 l 1
 560 80 l 2
 560 -30 470 -120 360 -120 c 0
 288 -120 224 -81 189 -23 c 1
 257 18 l 1
 278 -17 317 -40 360 -40 c 0
 426 -40 480 14 480 80 c 2
 480 119 l 1
EndSplineSet
Validated: 1
EndChar

StartChar: z
Encoding: 122 122 90
Width: 720
VWidth: 0
Flags: HMW
LayerCount: 2
Fore
SplineSet
160 400 m 1
 560 400 l 1
 560 344 l 1
 296 80 l 1
 560 80 l 1
 560 0 l 1
 160 0 l 1
 160 56 l 1
 424 320 l 1
 160 320 l 1
 160 400 l 1
EndSplineSet
Validated: 1
EndChar

StartChar: braceleft
Encoding: 123 123 91
Width: 720
VWidth: 0
Flags: HMW
LayerCount: 2
Fore
SplineSet
560 560 m 1
 560 480 l 1
 520 480 l 2
 454 480 400 426 400 360 c 0
 400 295 369 237 320 200 c 1
 369 163 400 105 400 40 c 0
 400 -26 454 -80 520 -80 c 2
 560 -80 l 1
 560 -160 l 1
 520 -160 l 2
 410 -160 320 -70 320 40 c 0
 320 106 266 160 200 160 c 2
 160 160 l 1
 160 240 l 1
 200 240 l 2
 266 240 320 294 320 360 c 0
 320 470 410 560 520 560 c 2
 560 560 l 1
EndSplineSet
Validated: 1
EndChar

StartChar: bar
Encoding: 124 124 92
Width: 720
VWidth: 0
Flags: HMW
LayerCount: 2
Fore
SplineSet
320 560 m 25
 400 560 l 25
 400 -160 l 25
 320 -160 l 25
 320 560 l 25
EndSplineSet
Validated: 1
EndChar

StartChar: braceright
Encoding: 125 125 93
Width: 720
VWidth: 0
Flags: HMW
LayerCount: 2
Fore
SplineSet
160 -160 m 1
 160 -80 l 1
 200 -80 l 2
 266 -80 320 -26 320 40 c 0
 320 105 351 163 400 200 c 1
 351 237 320 295 320 360 c 0
 320 426 266 480 200 480 c 2
 160 480 l 1
 160 560 l 1
 200 560 l 2
 310 560 400 470 400 360 c 0
 400 294 454 240 520 240 c 2
 560 240 l 1
 560 160 l 1
 520 160 l 2
 454 160 400 106 400 40 c 0
 400 -70 310 -160 200 -160 c 2
 160 -160 l 1
EndSplineSet
Validated: 1
EndChar

StartChar: asciitilde
Encoding: 126 126 94
Width: 720
VWidth: 0
Flags: HM
LayerCount: 2
Fore
SplineSet
340 405 m 0
 327 412 314 416 300 416 c 0
 273 416 246 401 231 376 c 1
 161 416 l 1
 191 467 245 496 301 496 c 0
 328 496 355 489 380 475 c 0
 393 468 406 464 420 464 c 0
 447 464 474 479 489 504 c 1
 559 464 l 1
 529 413 475 384 419 384 c 0
 392 384 365 391 340 405 c 0
EndSplineSet
Validated: 1
EndChar

StartChar: uni007F
Encoding: 127 127 95
Width: 720
VWidth: 0
Flags: HMW
LayerCount: 2
Fore
SplineSet
0 560 m 25
 720 560 l 25
 720 -160 l 25
 0 -160 l 25
 0 560 l 25
EndSplineSet
Validated: 1
EndChar

StartChar: exclamdown
Encoding: 161 161 97
Width: 720
VWidth: 0
Flags: HMW
LayerCount: 2
Fore
SplineSet
410 350 m 0
 410 322 388 300 360 300 c 0
 332 300 310 322 310 350 c 0
 310 378 332 400 360 400 c 0
 388 400 410 378 410 350 c 0
400 -80 m 25
 320 -80 l 25
 320 240 l 25
 400 240 l 25
 400 -80 l 25
EndSplineSet
Validated: 1
EndChar

StartChar: cent
Encoding: 162 162 98
Width: 720
VWidth: 0
Flags: HMW
LayerCount: 2
Fore
SplineSet
320 480 m 1
 400 480 l 1
 400 396 l 1
 470 382 526 331 549 265 c 1
 468 251 l 1
 449 291 408 320 360 320 c 0
 294 320 240 266 240 200 c 0
 240 134 294 80 360 80 c 0
 408 80 449 109 468 149 c 1
 549 135 l 1
 526 69 470 18 400 4 c 1
 400 -80 l 1
 320 -80 l 1
 320 4 l 1
 229 23 160 104 160 200 c 0
 160 296 229 377 320 396 c 1
 320 480 l 1
EndSplineSet
Validated: 1
EndChar

StartChar: sterling
Encoding: 163 163 99
Width: 720
VWidth: 0
Flags: HMW
LayerCount: 2
Fore
SplineSet
440 480 m 1
 440 400 l 1
 320 400 l 2
 276 400 240 364 240 320 c 1
 400 320 l 1
 400 240 l 1
 240 240 l 1
 240 80 l 1
 400 80 l 2
 444 80 480 116 480 160 c 1
 560 160 l 1
 560 72 488 0 400 0 c 2
 160 0 l 1
 160 240 l 1
 80 240 l 1
 80 320 l 1
 160 320 l 1
 160 408 232 480 320 480 c 2
 440 480 l 1
EndSplineSet
Validated: 1
EndChar

StartChar: currency
Encoding: 164 164 100
Width: 720
VWidth: 0
Flags: HMW
LayerCount: 2
Fore
SplineSet
320 280 m 0
 320 258 338 240 360 240 c 0
 382 240 400 258 400 280 c 0
 400 302 382 320 360 320 c 0
 338 320 320 302 320 280 c 0
532 508 m 1
 588 452 l 1
 468 332 l 1
 476 316 480 298 480 280 c 0
 480 262 476 244 468 228 c 1
 588 108 l 1
 532 52 l 1
 412 172 l 1
 396 164 378 160 360 160 c 0
 342 160 324 164 308 172 c 1
 188 52 l 1
 132 108 l 1
 252 228 l 1
 244 244 240 262 240 280 c 0
 240 298 244 316 252 332 c 1
 132 452 l 1
 188 508 l 1
 308 388 l 1
 324 396 342 400 360 400 c 0
 378 400 396 396 412 388 c 1
 532 508 l 1
EndSplineSet
Validated: 1
EndChar

StartChar: yen
Encoding: 165 165 101
Width: 720
VWidth: 0
Flags: HMW
LayerCount: 2
Fore
SplineSet
63 480 m 1
 177 480 l 1
 360 297 l 1
 543 480 l 1
 657 480 l 1
 417 240 l 1
 560 240 l 1
 560 160 l 1
 400 160 l 1
 400 0 l 1
 320 0 l 1
 320 160 l 1
 160 160 l 1
 160 240 l 1
 303 240 l 1
 63 480 l 1
EndSplineSet
Validated: 1
EndChar

StartChar: brokenbar
Encoding: 166 166 102
Width: 720
VWidth: 0
Flags: HMW
LayerCount: 2
Fore
SplineSet
320 160 m 25
 400 160 l 25
 400 -160 l 25
 320 -160 l 25
 320 160 l 25
320 560 m 25
 400 560 l 25
 400 240 l 25
 320 240 l 25
 320 560 l 25
EndSplineSet
Validated: 1
EndChar

StartChar: section
Encoding: 167 167 103
Width: 720
VWidth: 0
Flags: HMW
LayerCount: 2
Fore
SplineSet
449 120 m 1
 468 99 480 71 480 40 c 0
 480 -26 426 -80 360 -80 c 2
 200 -80 l 1
 200 0 l 1
 360 0 l 2
 382 0 400 18 400 40 c 0
 400 62 382 80 360 80 c 2
 280 80 l 2
 214 80 160 134 160 200 c 0
 160 231 172 259 191 280 c 1
 172 301 160 329 160 360 c 0
 160 426 214 480 280 480 c 2
 440 480 l 1
 440 400 l 1
 280 400 l 2
 258 400 240 382 240 360 c 0
 240 338 258 320 280 320 c 2
 360 320 l 2
 426 320 480 266 480 200 c 0
 480 169 468 141 449 120 c 1
280 240 m 2
 258 240 240 222 240 200 c 0
 240 178 258 160 280 160 c 2
 360 160 l 2
 382 160 400 178 400 200 c 0
 400 222 382 240 360 240 c 2
 280 240 l 2
EndSplineSet
Validated: 1
EndChar

StartChar: dieresis
Encoding: 168 168 104
Width: 720
VWidth: 0
Flags: HMW
LayerCount: 2
Fore
SplineSet
400 480 m 25
 480 480 l 25
 480 400 l 25
 400 400 l 25
 400 480 l 25
240 480 m 25
 320 480 l 25
 320 400 l 25
 240 400 l 25
 240 480 l 25
EndSplineSet
Validated: 1
EndChar

StartChar: copyright
Encoding: 169 169 105
Width: 720
VWidth: 0
Flags: HM
LayerCount: 2
Fore
SplineSet
80 200 m 0
 80 355 205 480 360 480 c 0
 515 480 640 355 640 200 c 0
 640 45 515 -80 360 -80 c 0
 205 -80 80 45 80 200 c 0
160 200 m 0
 160 90 250 0 360 0 c 0
 470 0 560 90 560 200 c 0
 560 310 470 400 360 400 c 0
 250 400 160 310 160 200 c 0
240 200 m 4
 240 266 294 320 360 320 c 4
 393 320 423 307 445 285 c 5
 388 228 l 5
 381 235 371 240 360 240 c 4
 338 240 320 222 320 200 c 4
 320 178 338 160 360 160 c 4
 371 160 381 165 388 172 c 5
 445 115 l 5
 423 93 393 80 360 80 c 4
 294 80 240 134 240 200 c 4
EndSplineSet
Validated: 1
EndChar

StartChar: ordfeminine
Encoding: 170 170 106
Width: 720
VWidth: 0
Flags: HMW
LayerCount: 2
Fore
SplineSet
480 259 m 1
 434 209 375 160 320 160 c 0
 230 160 160 230 160 320 c 0
 160 410 250 480 360 480 c 2
 560 480 l 1
 560 160 l 1
 480 160 l 1
 480 259 l 1
240 320 m 0
 240 274 274 240 320 240 c 0
 386 240 480 360 480 360 c 1
 480 400 l 1
 360 400 l 2
 294 400 240 366 240 320 c 0
160 80 m 1
 560 80 l 1
 560 0 l 1
 160 0 l 1
 160 80 l 1
EndSplineSet
Validated: 1
EndChar

StartChar: guillemotleft
Encoding: 171 171 107
Width: 720
VWidth: 0
Flags: HMW
LayerCount: 2
Fore
SplineSet
532 348 m 1
 588 292 l 1
 497 200 l 1
 588 108 l 1
 532 52 l 1
 383 200 l 1
 532 348 l 1
292 348 m 1
 348 292 l 1
 257 200 l 1
 348 108 l 1
 292 52 l 1
 143 200 l 1
 292 348 l 1
EndSplineSet
Validated: 1
EndChar

StartChar: logicalnot
Encoding: 172 172 108
Width: 720
VWidth: 0
Flags: HMW
LayerCount: 2
Fore
SplineSet
160 240 m 1
 560 240 l 1
 560 80 l 1
 480 80 l 1
 480 160 l 1
 160 160 l 1
 160 240 l 1
EndSplineSet
Validated: 1
EndChar

StartChar: uni00AD
Encoding: 173 173 109
Width: 720
VWidth: 0
Flags: HMW
LayerCount: 2
Fore
SplineSet
160 240 m 25
 560 240 l 25
 560 160 l 25
 160 160 l 25
 160 240 l 25
EndSplineSet
Validated: 1
EndChar

StartChar: registered
Encoding: 174 174 110
Width: 720
VWidth: 0
Flags: HMW
LayerCount: 2
Fore
SplineSet
160 200 m 0
 160 90 250 0 360 0 c 0
 470 0 560 90 560 200 c 0
 560 310 470 400 360 400 c 0
 250 400 160 310 160 200 c 0
80 200 m 0
 80 355 205 480 360 480 c 0
 515 480 640 355 640 200 c 0
 640 45 515 -80 360 -80 c 0
 205 -80 80 45 80 200 c 0
350 313 m 1
 363 317 376 320 390 320 c 0
 423 320 453 307 475 285 c 1
 418 228 l 1
 411 235 401 240 390 240 c 0
 368 240 350 222 350 200 c 2
 350 80 l 1
 270 80 l 1
 270 320 l 1
 350 320 l 1
 350 313 l 1
EndSplineSet
Validated: 1
EndChar

StartChar: macron
Encoding: 175 175 111
Width: 720
VWidth: 0
Flags: HMW
LayerCount: 2
Fore
SplineSet
80 560 m 1
 640 560 l 1
 640 480 l 1
 80 480 l 1
 80 560 l 1
EndSplineSet
Validated: 1
EndChar

StartChar: degree
Encoding: 176 176 112
Width: 720
VWidth: 0
Flags: HM
LayerCount: 2
Fore
SplineSet
240 360 m 0
 240 338 276 320 320 320 c 0
 364 320 400 338 400 360 c 0
 400 382 364 400 320 400 c 0
 276 400 240 382 240 360 c 0
160 360 m 0
 160 426 232 480 320 480 c 0
 408 480 480 426 480 360 c 0
 480 294 408 240 320 240 c 0
 232 240 160 294 160 360 c 0
EndSplineSet
Validated: 1
EndChar

StartChar: plusminus
Encoding: 177 177 113
Width: 720
VWidth: 0
Flags: HMW
LayerCount: 2
Fore
SplineSet
160 80 m 25
 560 80 l 25
 560 0 l 25
 160 0 l 25
 160 80 l 25
320 400 m 25
 400 400 l 25
 400 320 l 25
 560 320 l 25
 560 240 l 25
 400 240 l 25
 400 160 l 25
 320 160 l 25
 320 240 l 25
 160 240 l 25
 160 320 l 25
 320 320 l 25
 320 400 l 25
EndSplineSet
Validated: 1
EndChar

StartChar: uni00B2
Encoding: 178 178 114
Width: 720
VWidth: 0
Flags: HMW
LayerCount: 2
Fore
SplineSet
324 288 m 1
 480 288 l 1
 480 240 l 1
 240 240 l 1
 240 288 l 1
 240 288 432 400 432 450 c 0
 432 467 400 480 360 480 c 0
 325 480 296 470 289 456 c 1
 241 462 l 1
 250 500 300 528 360 528 c 0
 426 528 480 493 480 450 c 0
 480 385 324 288 324 288 c 1
EndSplineSet
Validated: 1
EndChar

StartChar: uni00B3
Encoding: 179 179 115
Width: 720
VWidth: 0
Flags: HMW
LayerCount: 2
Fore
SplineSet
289 324 m 1
 294 304 324 288 360 288 c 0
 400 288 432 307 432 330 c 0
 432 353 400 372 360 372 c 2
 336 372 l 1
 336 420 l 1
 360 420 l 2
 400 420 432 433 432 450 c 0
 432 467 400 480 360 480 c 0
 325 480 296 470 289 456 c 1
 241 462 l 1
 250 500 300 528 360 528 c 0
 426 528 480 493 480 450 c 0
 480 428 466 408 444 394 c 1
 466 378 480 355 480 330 c 0
 480 280 426 240 360 240 c 0
 299 240 249 274 241 318 c 1
 289 324 l 1
EndSplineSet
Validated: 1
EndChar

StartChar: acute
Encoding: 180 180 116
Width: 720
VWidth: 0
Flags: HMW
LayerCount: 2
Fore
SplineSet
292 388 m 1
 440 537 l 1
 497 480 l 1
 348 332 l 1
 292 388 l 1
EndSplineSet
Validated: 1
EndChar

StartChar: mu
Encoding: 181 181 117
Width: 720
VWidth: 0
Flags: HMW
LayerCount: 2
Fore
SplineSet
480 99 m 1
 434 49 375 0 320 0 c 0
 291 0 263 9 240 26 c 1
 240 -120 l 1
 160 -120 l 1
 160 400 l 1
 240 400 l 1
 240 200 l 2
 240 134 274 80 320 80 c 0
 386 80 480 200 480 200 c 1
 480 400 l 1
 560 400 l 1
 560 0 l 1
 480 0 l 1
 480 99 l 1
EndSplineSet
Validated: 1
EndChar

StartChar: paragraph
Encoding: 182 182 118
Width: 720
VWidth: 0
Flags: HM
LayerCount: 2
Fore
SplineSet
480 400 m 1
 480 -80 l 1
 400 -80 l 1
 400 480 l 1
 560 480 l 1
 560 400 l 1
 480 400 l 1
320 480 m 1
 320 -80 l 1
 240 -80 l 1
 240 240 l 1
 200 240 l 2
 134 240 80 294 80 360 c 0
 80 426 134 480 200 480 c 2
 320 480 l 1
EndSplineSet
Validated: 1
EndChar

StartChar: periodcentered
Encoding: 183 183 119
Width: 720
VWidth: 0
Flags: HMW
LayerCount: 2
Fore
SplineSet
270 210 m 0
 270 238 292 260 320 260 c 0
 348 260 370 238 370 210 c 0
 370 182 348 160 320 160 c 0
 292 160 270 182 270 210 c 0
EndSplineSet
Validated: 1
EndChar

StartChar: cedilla
Encoding: 184 184 120
Width: 720
VWidth: 0
Flags: HMW
LayerCount: 2
Fore
SplineSet
400 -40 m 0
 400 -106 346 -160 280 -160 c 0
 247 -160 217 -147 195 -125 c 1
 252 -68 l 1
 259 -75 269 -80 280 -80 c 0
 302 -80 320 -62 320 -40 c 0
 320 -32 317 -24 313 -18 c 1
 279 16 l 1
 360 97 l 1
 417 40 l 1
 389 12 l 1
 396 -4 400 -22 400 -40 c 0
EndSplineSet
Validated: 1
EndChar

StartChar: uni00B9
Encoding: 185 185 121
Width: 720
VWidth: 0
Flags: HMW
LayerCount: 2
Fore
SplineSet
280 467 m 1
 403 528 l 1
 432 528 l 1
 432 240 l 5
 383 240 l 1
 384 465 l 1
 301 424 l 1
 280 467 l 1
EndSplineSet
Validated: 1
EndChar

StartChar: ordmasculine
Encoding: 186 186 122
Width: 720
VWidth: 0
Flags: HMW
LayerCount: 2
Fore
SplineSet
240 320 m 0
 240 276 294 240 360 240 c 0
 426 240 480 276 480 320 c 0
 480 364 426 400 360 400 c 0
 294 400 240 364 240 320 c 0
160 320 m 0
 160 408 250 480 360 480 c 0
 470 480 560 408 560 320 c 0
 560 232 470 160 360 160 c 0
 250 160 160 232 160 320 c 0
160 80 m 1
 560 80 l 1
 560 0 l 1
 160 0 l 1
 160 80 l 1
EndSplineSet
Validated: 1
EndChar

StartChar: guillemotright
Encoding: 187 187 123
Width: 720
VWidth: 0
Flags: HMW
LayerCount: 2
Fore
SplineSet
188 52 m 1
 132 108 l 1
 223 200 l 1
 132 292 l 1
 188 348 l 1
 337 200 l 1
 188 52 l 1
428 52 m 1
 372 108 l 1
 463 200 l 1
 372 292 l 1
 428 348 l 1
 577 200 l 1
 428 52 l 1
EndSplineSet
Validated: 1
EndChar

StartChar: onequarter
Encoding: 188 188 124
Width: 720
VWidth: 0
Flags: HMW
LayerCount: 2
Fore
SplineSet
175 49 m 25
 511 385 l 25
 545 351 l 25
 209 15 l 25
 175 49 l 25
120 467 m 1
 243 528 l 1
 272 528 l 1
 272 240 l 1
 223 240 l 1
 224 465 l 1
 141 424 l 1
 120 467 l 1
544 86 m 1
 448 -10 l 1
 448 -12 l 1
 543 -12 l 1
 544 86 l 1
400 10 m 1
 558 168 l 1
 592 168 l 1
 592 -12 l 1
 640 -12 l 1
 640 -60 l 1
 592 -60 l 1
 592 -120 l 1
 543 -120 l 1
 543 -60 l 1
 400 -60 l 1
 400 10 l 1
EndSplineSet
Validated: 1
EndChar

StartChar: onehalf
Encoding: 189 189 125
Width: 720
VWidth: 0
Flags: HMW
LayerCount: 2
Fore
SplineSet
175 49 m 25
 511 385 l 25
 545 351 l 25
 209 15 l 25
 175 49 l 25
484 -72 m 1
 640 -72 l 1
 640 -120 l 1
 400 -120 l 1
 400 -72 l 1
 400 -72 592 40 592 90 c 0
 592 107 560 120 520 120 c 0
 485 120 456 110 449 96 c 1
 401 102 l 1
 410 140 460 168 520 168 c 0
 586 168 640 133 640 90 c 0
 640 25 484 -72 484 -72 c 1
120 467 m 1
 243 528 l 1
 272 528 l 1
 272 240 l 1
 223 240 l 1
 224 465 l 1
 141 424 l 1
 120 467 l 1
EndSplineSet
Validated: 1
EndChar

StartChar: threequarters
Encoding: 190 190 126
Width: 720
VWidth: 0
Flags: HMW
LayerCount: 2
Fore
SplineSet
175 49 m 25
 511 385 l 25
 545 351 l 25
 209 15 l 25
 175 49 l 25
129 324 m 1
 134 304 164 288 200 288 c 0
 240 288 272 307 272 330 c 0
 272 353 240 372 200 372 c 2
 176 372 l 1
 176 420 l 1
 200 420 l 2
 240 420 272 433 272 450 c 0
 272 467 240 480 200 480 c 0
 165 480 136 470 129 456 c 1
 81 462 l 1
 90 500 140 528 200 528 c 0
 266 528 320 493 320 450 c 0
 320 428 306 408 284 394 c 1
 306 378 320 355 320 330 c 0
 320 280 266 240 200 240 c 0
 139 240 89 274 81 318 c 1
 129 324 l 1
544 86 m 1
 448 -10 l 1
 448 -12 l 1
 543 -12 l 1
 544 86 l 1
400 10 m 1
 558 168 l 1
 592 168 l 1
 592 -12 l 1
 640 -12 l 1
 640 -60 l 1
 592 -60 l 1
 592 -120 l 1
 543 -120 l 1
 543 -60 l 1
 400 -60 l 1
 400 10 l 1
EndSplineSet
Validated: 1
EndChar

StartChar: questiondown
Encoding: 191 191 127
Width: 720
VWidth: 0
Flags: HMW
LayerCount: 2
Fore
SplineSet
410 350 m 0
 410 322 388 300 360 300 c 0
 332 300 310 322 310 350 c 0
 310 378 332 400 360 400 c 0
 388 400 410 378 410 350 c 0
320 240 m 1
 400 240 l 1
 400 132 240 134 240 50 c 0
 240 22 294 0 360 0 c 0
 418 0 467 17 478 40 c 1
 558 30 l 1
 543 -33 460 -80 360 -80 c 0
 250 -80 160 -22 160 50 c 0
 160 158 320 156 320 240 c 1
EndSplineSet
Validated: 1
EndChar

StartChar: Agrave
Encoding: 192 192 128
Width: 720
VWidth: 0
Flags: HMW
LayerCount: 2
Fore
SplineSet
240 183 m 1
 240 180 l 1
 480 180 l 1
 480 183 l 1
 360 303 l 1
 240 183 l 1
160 217 m 1
 343 400 l 1
 377 400 l 1
 560 217 l 1
 560 0 l 1
 480 0 l 1
 480 100 l 1
 240 100 l 1
 240 0 l 1
 160 0 l 1
 160 217 l 1
211 591 m 1
 268 648 l 1
 416 499 l 1
 360 443 l 1
 211 591 l 1
EndSplineSet
Validated: 1
EndChar

StartChar: Aacute
Encoding: 193 193 129
Width: 720
VWidth: 0
Flags: HMW
LayerCount: 2
Fore
SplineSet
240 183 m 1
 240 180 l 1
 480 180 l 1
 480 183 l 1
 360 303 l 1
 240 183 l 1
160 217 m 1
 343 400 l 1
 377 400 l 1
 560 217 l 1
 560 0 l 1
 480 0 l 1
 480 100 l 1
 240 100 l 1
 240 0 l 1
 160 0 l 1
 160 217 l 1
304 499 m 1
 452 648 l 1
 509 591 l 1
 360 443 l 1
 304 499 l 1
EndSplineSet
Validated: 1
EndChar

StartChar: Acircumflex
Encoding: 194 194 130
Width: 720
VWidth: 0
Flags: HMW
LayerCount: 2
Fore
SplineSet
240 183 m 1
 240 180 l 1
 480 180 l 1
 480 183 l 1
 360 303 l 1
 240 183 l 1
160 217 m 1
 343 400 l 1
 377 400 l 1
 560 217 l 1
 560 0 l 1
 480 0 l 1
 480 100 l 1
 240 100 l 1
 240 0 l 1
 160 0 l 1
 160 217 l 1
268 443 m 1
 212 499 l 1
 360 648 l 1
 508 499 l 1
 452 443 l 1
 360 534 l 1
 268 443 l 1
EndSplineSet
Validated: 1
EndChar

StartChar: Atilde
Encoding: 195 195 131
Width: 720
VWidth: 0
Flags: HMW
LayerCount: 2
Fore
SplineSet
240 183 m 1
 240 180 l 1
 480 180 l 1
 480 183 l 1
 360 303 l 1
 240 183 l 1
160 217 m 1
 343 400 l 1
 377 400 l 1
 560 217 l 1
 560 0 l 1
 480 0 l 1
 480 100 l 1
 240 100 l 1
 240 0 l 1
 160 0 l 1
 160 217 l 1
340 472 m 0
 327 479 314 483 300 483 c 0
 273 483 246 468 231 443 c 1
 161 483 l 1
 191 534 245 563 301 563 c 0
 328 563 355 556 380 542 c 0
 393 535 406 531 420 531 c 0
 447 531 474 546 489 571 c 1
 559 531 l 1
 529 480 475 451 419 451 c 0
 392 451 365 458 340 472 c 0
EndSplineSet
Validated: 1
EndChar

StartChar: Adieresis
Encoding: 196 196 132
Width: 720
VWidth: 0
Flags: HMW
LayerCount: 2
Fore
SplineSet
240 183 m 1
 240 180 l 1
 480 180 l 1
 480 183 l 1
 360 303 l 1
 240 183 l 1
160 217 m 1
 343 400 l 1
 377 400 l 1
 560 217 l 1
 560 0 l 1
 480 0 l 1
 480 100 l 1
 240 100 l 1
 240 0 l 1
 160 0 l 1
 160 217 l 1
400 523 m 25
 480 523 l 25
 480 443 l 25
 400 443 l 25
 400 523 l 25
240 523 m 25
 320 523 l 25
 320 443 l 25
 240 443 l 25
 240 523 l 25
EndSplineSet
Validated: 1
EndChar

StartChar: Aring
Encoding: 197 197 133
Width: 720
VWidth: 0
Flags: HMW
LayerCount: 2
Fore
SplineSet
240 183 m 1
 240 180 l 1
 480 180 l 1
 480 183 l 1
 360 303 l 1
 240 183 l 1
160 217 m 1
 343 400 l 1
 377 400 l 1
 560 217 l 1
 560 0 l 1
 480 0 l 1
 480 100 l 1
 240 100 l 1
 240 0 l 1
 160 0 l 1
 160 217 l 1
280 523 m 0
 280 501 316 483 360 483 c 0
 404 483 440 501 440 523 c 0
 440 545 404 563 360 563 c 0
 316 563 280 545 280 523 c 0
200 523 m 0
 200 589 272 643 360 643 c 0
 448 643 520 589 520 523 c 0
 520 457 448 403 360 403 c 0
 272 403 200 457 200 523 c 0
EndSplineSet
Validated: 1
EndChar

StartChar: AE
Encoding: 198 198 134
Width: 720
VWidth: 0
Flags: HMW
LayerCount: 2
Fore
SplineSet
80 297 m 1
 263 480 l 1
 560 480 l 1
 560 400 l 1
 400 400 l 1
 400 300 l 1
 520 300 l 1
 520 220 l 1
 400 220 l 1
 400 80 l 1
 560 80 l 1
 560 0 l 1
 320 0 l 1
 320 180 l 1
 160 180 l 1
 160 0 l 1
 80 0 l 1
 80 297 l 1
320 400 m 1
 297 400 l 1
 160 263 l 1
 160 260 l 1
 320 260 l 1
 320 400 l 1
EndSplineSet
Validated: 1
EndChar

StartChar: Ccedilla
Encoding: 199 199 135
Width: 720
VWidth: 0
Flags: HMW
LayerCount: 2
Fore
SplineSet
360 -68 m 0
 360 -134 306 -188 240 -188 c 0
 207 -188 177 -175 155 -153 c 1
 212 -96 l 1
 219 -103 229 -108 240 -108 c 0
 262 -108 280 -90 280 -68 c 0
 280 -60 277 -52 273 -46 c 1
 239 -12 l 1
 259 8 l 1
 156 35 80 129 80 240 c 0
 80 372 188 480 320 480 c 0
 415 480 498 424 537 343 c 1
 453 329 l 1
 424 372 375 400 320 400 c 0
 232 400 160 328 160 240 c 0
 160 152 232 80 320 80 c 0
 375 80 424 108 453 151 c 1
 537 137 l 1
 505 71 444 21 371 5 c 1
 349 -16 l 1
 356 -32 360 -50 360 -68 c 0
EndSplineSet
Validated: 1
EndChar

StartChar: Egrave
Encoding: 200 200 136
Width: 720
VWidth: 0
Flags: HMW
LayerCount: 2
Fore
SplineSet
240 320 m 1
 240 240 l 1
 440 240 l 1
 440 160 l 1
 240 160 l 1
 240 80 l 1
 560 80 l 1
 560 0 l 1
 160 0 l 1
 160 400 l 1
 560 400 l 1
 560 320 l 1
 240 320 l 1
211 591 m 1
 268 648 l 1
 416 499 l 1
 360 443 l 1
 211 591 l 1
EndSplineSet
Validated: 1
EndChar

StartChar: Eacute
Encoding: 201 201 137
Width: 720
VWidth: 0
Flags: HMW
LayerCount: 2
Fore
SplineSet
240 320 m 1
 240 240 l 1
 440 240 l 1
 440 160 l 1
 240 160 l 1
 240 80 l 1
 560 80 l 1
 560 0 l 1
 160 0 l 1
 160 400 l 1
 560 400 l 1
 560 320 l 1
 240 320 l 1
304 499 m 1
 452 648 l 1
 509 591 l 1
 360 443 l 1
 304 499 l 1
EndSplineSet
Validated: 1
EndChar

StartChar: Ecircumflex
Encoding: 202 202 138
Width: 720
VWidth: 0
Flags: HMW
LayerCount: 2
Fore
SplineSet
240 320 m 1
 240 240 l 1
 440 240 l 1
 440 160 l 1
 240 160 l 1
 240 80 l 1
 560 80 l 1
 560 0 l 1
 160 0 l 1
 160 400 l 1
 560 400 l 1
 560 320 l 1
 240 320 l 1
268 443 m 1
 212 499 l 1
 360 648 l 1
 508 499 l 1
 452 443 l 1
 360 534 l 1
 268 443 l 1
EndSplineSet
Validated: 1
EndChar

StartChar: Edieresis
Encoding: 203 203 139
Width: 720
VWidth: 0
Flags: HMW
LayerCount: 2
Fore
SplineSet
240 320 m 1
 240 240 l 1
 440 240 l 1
 440 160 l 1
 240 160 l 1
 240 80 l 1
 560 80 l 1
 560 0 l 1
 160 0 l 1
 160 400 l 1
 560 400 l 1
 560 320 l 1
 240 320 l 1
400 523 m 25
 480 523 l 25
 480 443 l 25
 400 443 l 25
 400 523 l 25
240 523 m 25
 320 523 l 25
 320 443 l 25
 240 443 l 25
 240 523 l 25
EndSplineSet
Validated: 1
EndChar

StartChar: Igrave
Encoding: 204 204 140
Width: 720
VWidth: 0
Flags: HMW
LayerCount: 2
Fore
SplineSet
240 400 m 25
 480 400 l 25
 480 320 l 25
 400 320 l 25
 400 80 l 25
 480 80 l 25
 480 0 l 25
 240 0 l 25
 240 80 l 25
 320 80 l 25
 320 320 l 25
 240 320 l 25
 240 400 l 25
211 591 m 1
 268 648 l 1
 416 499 l 1
 360 443 l 1
 211 591 l 1
EndSplineSet
Validated: 1
EndChar

StartChar: Iacute
Encoding: 205 205 141
Width: 720
VWidth: 0
Flags: HMW
LayerCount: 2
Fore
SplineSet
240 400 m 25
 480 400 l 25
 480 320 l 25
 400 320 l 25
 400 80 l 25
 480 80 l 25
 480 0 l 25
 240 0 l 25
 240 80 l 25
 320 80 l 25
 320 320 l 25
 240 320 l 25
 240 400 l 25
304 499 m 1
 452 648 l 1
 509 591 l 1
 360 443 l 1
 304 499 l 1
EndSplineSet
Validated: 1
EndChar

StartChar: Icircumflex
Encoding: 206 206 142
Width: 720
VWidth: 0
Flags: HMW
LayerCount: 2
Fore
SplineSet
240 400 m 25
 480 400 l 25
 480 320 l 25
 400 320 l 25
 400 80 l 25
 480 80 l 25
 480 0 l 25
 240 0 l 25
 240 80 l 25
 320 80 l 25
 320 320 l 25
 240 320 l 25
 240 400 l 25
268 443 m 1
 212 499 l 1
 360 648 l 1
 508 499 l 1
 452 443 l 1
 360 534 l 1
 268 443 l 1
EndSplineSet
Validated: 1
EndChar

StartChar: Idieresis
Encoding: 207 207 143
Width: 720
VWidth: 0
Flags: HMW
LayerCount: 2
Fore
SplineSet
240 400 m 25
 480 400 l 25
 480 320 l 25
 400 320 l 25
 400 80 l 25
 480 80 l 25
 480 0 l 25
 240 0 l 25
 240 80 l 25
 320 80 l 25
 320 320 l 25
 240 320 l 25
 240 400 l 25
400 523 m 25
 480 523 l 25
 480 443 l 25
 400 443 l 25
 400 523 l 25
240 523 m 25
 320 523 l 25
 320 443 l 25
 240 443 l 25
 240 523 l 25
EndSplineSet
Validated: 1
EndChar

StartChar: Eth
Encoding: 208 208 144
Width: 720
VWidth: 0
Flags: HMW
LayerCount: 2
Fore
SplineSet
320 0 m 2
 160 0 l 1
 160 220 l 1
 80 220 l 1
 80 300 l 1
 160 300 l 1
 160 480 l 1
 320 480 l 2
 452 480 560 372 560 240 c 0
 560 108 452 0 320 0 c 2
240 220 m 1
 240 80 l 1
 320 80 l 2
 408 80 480 152 480 240 c 0
 480 328 408 400 320 400 c 2
 240 400 l 1
 240 300 l 1
 320 300 l 1
 320 220 l 1
 240 220 l 1
EndSplineSet
Validated: 1
EndChar

StartChar: Ntilde
Encoding: 209 209 145
Width: 720
VWidth: 0
Flags: HMW
LayerCount: 2
Fore
SplineSet
160 0 m 1
 160 400 l 1
 216 400 l 1
 480 136 l 1
 480 400 l 1
 560 400 l 1
 560 0 l 1
 504 0 l 1
 240 264 l 1
 240 0 l 1
 160 0 l 1
340 472 m 0
 327 479 314 483 300 483 c 0
 273 483 246 468 231 443 c 1
 161 483 l 1
 191 534 245 563 301 563 c 0
 328 563 355 556 380 542 c 0
 393 535 406 531 420 531 c 0
 447 531 474 546 489 571 c 1
 559 531 l 1
 529 480 475 451 419 451 c 0
 392 451 365 458 340 472 c 0
EndSplineSet
Validated: 1
EndChar

StartChar: Ograve
Encoding: 210 210 146
Width: 720
VWidth: 0
Flags: HMW
LayerCount: 2
Fore
SplineSet
240 200 m 0
 240 134 294 80 360 80 c 0
 426 80 480 134 480 200 c 0
 480 266 426 320 360 320 c 0
 294 320 240 266 240 200 c 0
160 200 m 0
 160 310 250 400 360 400 c 0
 470 400 560 310 560 200 c 0
 560 90 470 0 360 0 c 0
 250 0 160 90 160 200 c 0
211 591 m 1
 268 648 l 1
 416 499 l 1
 360 443 l 1
 211 591 l 1
EndSplineSet
Validated: 1
EndChar

StartChar: Oacute
Encoding: 211 211 147
Width: 720
VWidth: 0
Flags: HMW
LayerCount: 2
Fore
SplineSet
240 200 m 0
 240 134 294 80 360 80 c 0
 426 80 480 134 480 200 c 0
 480 266 426 320 360 320 c 0
 294 320 240 266 240 200 c 0
160 200 m 0
 160 310 250 400 360 400 c 0
 470 400 560 310 560 200 c 0
 560 90 470 0 360 0 c 0
 250 0 160 90 160 200 c 0
304 499 m 1
 452 648 l 1
 509 591 l 1
 360 443 l 1
 304 499 l 1
EndSplineSet
Validated: 1
EndChar

StartChar: Ocircumflex
Encoding: 212 212 148
Width: 720
VWidth: 0
Flags: HMW
LayerCount: 2
Fore
SplineSet
240 200 m 0
 240 134 294 80 360 80 c 0
 426 80 480 134 480 200 c 0
 480 266 426 320 360 320 c 0
 294 320 240 266 240 200 c 0
160 200 m 0
 160 310 250 400 360 400 c 0
 470 400 560 310 560 200 c 0
 560 90 470 0 360 0 c 0
 250 0 160 90 160 200 c 0
268 443 m 1
 212 499 l 1
 360 648 l 1
 508 499 l 1
 452 443 l 1
 360 534 l 1
 268 443 l 1
EndSplineSet
Validated: 1
EndChar

StartChar: Otilde
Encoding: 213 213 149
Width: 720
VWidth: 0
Flags: HMW
LayerCount: 2
Fore
SplineSet
240 200 m 0
 240 134 294 80 360 80 c 0
 426 80 480 134 480 200 c 0
 480 266 426 320 360 320 c 0
 294 320 240 266 240 200 c 0
160 200 m 0
 160 310 250 400 360 400 c 0
 470 400 560 310 560 200 c 0
 560 90 470 0 360 0 c 0
 250 0 160 90 160 200 c 0
340 472 m 0
 327 479 314 483 300 483 c 0
 273 483 246 468 231 443 c 1
 161 483 l 1
 191 534 245 563 301 563 c 0
 328 563 355 556 380 542 c 0
 393 535 406 531 420 531 c 0
 447 531 474 546 489 571 c 1
 559 531 l 1
 529 480 475 451 419 451 c 0
 392 451 365 458 340 472 c 0
EndSplineSet
Validated: 1
EndChar

StartChar: Odieresis
Encoding: 214 214 150
Width: 720
VWidth: 0
Flags: HMW
LayerCount: 2
Fore
SplineSet
240 200 m 0
 240 134 294 80 360 80 c 0
 426 80 480 134 480 200 c 0
 480 266 426 320 360 320 c 0
 294 320 240 266 240 200 c 0
160 200 m 0
 160 310 250 400 360 400 c 0
 470 400 560 310 560 200 c 0
 560 90 470 0 360 0 c 0
 250 0 160 90 160 200 c 0
400 523 m 25
 480 523 l 25
 480 443 l 25
 400 443 l 25
 400 523 l 25
240 523 m 25
 320 523 l 25
 320 443 l 25
 240 443 l 25
 240 523 l 25
EndSplineSet
Validated: 1
EndChar

StartChar: multiply
Encoding: 215 215 151
Width: 720
VWidth: 0
Flags: HMW
LayerCount: 2
Fore
SplineSet
532 428 m 25
 588 372 l 25
 417 200 l 25
 588 28 l 25
 532 -28 l 25
 360 143 l 25
 188 -28 l 25
 132 28 l 25
 303 200 l 25
 132 372 l 25
 188 428 l 25
 360 257 l 25
 532 428 l 25
EndSplineSet
Validated: 1
EndChar

StartChar: Oslash
Encoding: 216 216 152
Width: 720
VWidth: 0
Flags: HMW
LayerCount: 2
Fore
SplineSet
80 240 m 0
 80 372 188 480 320 480 c 0
 372 480 420 463 459 435 c 1
 532 508 l 1
 588 452 l 1
 515 379 l 1
 543 340 560 292 560 240 c 0
 560 108 452 0 320 0 c 0
 268 0 220 17 181 45 c 1
 108 -28 l 1
 52 28 l 1
 125 101 l 1
 97 140 80 188 80 240 c 0
402 378 m 1
 378 392 350 400 320 400 c 0
 232 400 160 328 160 240 c 0
 160 210 168 182 182 158 c 1
 402 378 l 1
458 322 m 1
 238 102 l 1
 262 88 290 80 320 80 c 0
 408 80 480 152 480 240 c 0
 480 270 472 298 458 322 c 1
EndSplineSet
Validated: 1
EndChar

StartChar: Ugrave
Encoding: 217 217 153
Width: 720
VWidth: 0
Flags: HMW
LayerCount: 2
Fore
SplineSet
160 200 m 2
 160 400 l 1
 240 400 l 1
 240 200 l 2
 240 134 294 80 360 80 c 0
 426 80 480 134 480 200 c 2
 480 400 l 1
 560 400 l 1
 560 200 l 2
 560 90 470 0 360 0 c 0
 250 0 160 90 160 200 c 2
211 591 m 1
 268 648 l 1
 416 499 l 1
 360 443 l 1
 211 591 l 1
EndSplineSet
Validated: 1
EndChar

StartChar: Uacute
Encoding: 218 218 154
Width: 720
VWidth: 0
Flags: HMW
LayerCount: 2
Fore
SplineSet
160 200 m 2
 160 400 l 1
 240 400 l 1
 240 200 l 2
 240 134 294 80 360 80 c 0
 426 80 480 134 480 200 c 2
 480 400 l 1
 560 400 l 1
 560 200 l 2
 560 90 470 0 360 0 c 0
 250 0 160 90 160 200 c 2
304 499 m 1
 452 648 l 1
 509 591 l 1
 360 443 l 1
 304 499 l 1
EndSplineSet
Validated: 1
EndChar

StartChar: Ucircumflex
Encoding: 219 219 155
Width: 720
VWidth: 0
Flags: HMW
LayerCount: 2
Fore
SplineSet
160 200 m 2
 160 400 l 1
 240 400 l 1
 240 200 l 2
 240 134 294 80 360 80 c 0
 426 80 480 134 480 200 c 2
 480 400 l 1
 560 400 l 1
 560 200 l 2
 560 90 470 0 360 0 c 0
 250 0 160 90 160 200 c 2
268 443 m 1
 212 499 l 1
 360 648 l 1
 508 499 l 1
 452 443 l 1
 360 534 l 1
 268 443 l 1
EndSplineSet
Validated: 1
EndChar

StartChar: Udieresis
Encoding: 220 220 156
Width: 720
VWidth: 0
Flags: HMW
LayerCount: 2
Fore
SplineSet
160 200 m 2
 160 400 l 1
 240 400 l 1
 240 200 l 2
 240 134 294 80 360 80 c 0
 426 80 480 134 480 200 c 2
 480 400 l 1
 560 400 l 1
 560 200 l 2
 560 90 470 0 360 0 c 0
 250 0 160 90 160 200 c 2
400 523 m 25
 480 523 l 25
 480 443 l 25
 400 443 l 25
 400 523 l 25
240 523 m 25
 320 523 l 25
 320 443 l 25
 240 443 l 25
 240 523 l 25
EndSplineSet
Validated: 1
EndChar

StartChar: Yacute
Encoding: 221 221 157
Width: 720
VWidth: 0
Flags: HMW
LayerCount: 2
Fore
SplineSet
103 400 m 1
 217 400 l 1
 360 257 l 1
 503 400 l 1
 617 400 l 1
 400 183 l 1
 400 0 l 1
 320 0 l 1
 320 183 l 1
 103 400 l 1
304 499 m 1
 452 648 l 1
 509 591 l 1
 360 443 l 1
 304 499 l 1
EndSplineSet
Validated: 1
EndChar

StartChar: Thorn
Encoding: 222 222 158
Width: 720
VWidth: 0
Flags: HMW
LayerCount: 2
Fore
SplineSet
400 400 m 2
 488 400 560 328 560 240 c 0
 560 152 488 80 400 80 c 2
 160 80 l 1
 160 0 l 1
 80 0 l 1
 80 480 l 1
 160 480 l 1
 160 400 l 1
 400 400 l 2
160 320 m 1
 160 160 l 1
 400 160 l 2
 444 160 480 196 480 240 c 0
 480 284 444 320 400 320 c 2
 160 320 l 1
EndSplineSet
Validated: 1
EndChar

StartChar: germandbls
Encoding: 223 223 159
Width: 720
VWidth: 0
Flags: HMW
LayerCount: 2
Fore
SplineSet
410 80 m 2
 449 80 480 111 480 150 c 0
 480 189 449 220 410 220 c 2
 320 220 l 1
 320 300 l 1
 410 300 l 2
 438 300 460 322 460 350 c 0
 460 378 438 400 410 400 c 2
 320 400 l 2
 276 400 240 364 240 320 c 2
 240 0 l 1
 160 0 l 1
 160 320 l 2
 160 408 232 480 320 480 c 2
 410 480 l 2
 482 480 540 422 540 350 c 0
 540 317 528 287 508 264 c 1
 540 237 560 196 560 150 c 0
 560 67 493 0 410 0 c 2
 320 0 l 1
 320 80 l 1
 410 80 l 2
EndSplineSet
Validated: 1
EndChar

StartChar: agrave
Encoding: 224 224 160
Width: 720
VWidth: 0
Flags: HM
LayerCount: 2
Fore
SplineSet
240 200 m 0
 240 134 274 80 320 80 c 0
 386 80 480 200 480 200 c 1
 480 320 l 1
 360 320 l 2
 294 320 240 266 240 200 c 0
480 99 m 1
 434 49 375 0 320 0 c 0
 230 0 160 90 160 200 c 0
 160 310 250 400 360 400 c 2
 560 400 l 1
 560 0 l 1
 480 0 l 1
 480 99 l 1
211 591 m 1
 268 648 l 1
 416 499 l 1
 360 443 l 1
 211 591 l 1
EndSplineSet
Validated: 1
EndChar

StartChar: aacute
Encoding: 225 225 161
Width: 720
VWidth: 0
Flags: HM
LayerCount: 2
Fore
SplineSet
240 200 m 0
 240 134 274 80 320 80 c 0
 386 80 480 200 480 200 c 1
 480 320 l 1
 360 320 l 2
 294 320 240 266 240 200 c 0
480 99 m 1
 434 49 375 0 320 0 c 0
 230 0 160 90 160 200 c 0
 160 310 250 400 360 400 c 2
 560 400 l 1
 560 0 l 1
 480 0 l 1
 480 99 l 1
304 499 m 1
 452 648 l 1
 509 591 l 1
 360 443 l 1
 304 499 l 1
EndSplineSet
Validated: 1
EndChar

StartChar: acircumflex
Encoding: 226 226 162
Width: 720
VWidth: 0
Flags: HM
LayerCount: 2
Fore
SplineSet
240 200 m 0
 240 134 274 80 320 80 c 0
 386 80 480 200 480 200 c 1
 480 320 l 1
 360 320 l 2
 294 320 240 266 240 200 c 0
480 99 m 1
 434 49 375 0 320 0 c 0
 230 0 160 90 160 200 c 0
 160 310 250 400 360 400 c 2
 560 400 l 1
 560 0 l 1
 480 0 l 1
 480 99 l 1
268 443 m 1
 212 499 l 1
 360 648 l 1
 508 499 l 1
 452 443 l 1
 360 534 l 1
 268 443 l 1
EndSplineSet
Validated: 1
EndChar

StartChar: atilde
Encoding: 227 227 163
Width: 720
VWidth: 0
Flags: HM
LayerCount: 2
Fore
SplineSet
240 200 m 0
 240 134 274 80 320 80 c 0
 386 80 480 200 480 200 c 1
 480 320 l 1
 360 320 l 2
 294 320 240 266 240 200 c 0
480 99 m 1
 434 49 375 0 320 0 c 0
 230 0 160 90 160 200 c 0
 160 310 250 400 360 400 c 2
 560 400 l 1
 560 0 l 1
 480 0 l 1
 480 99 l 1
340 472 m 0
 327 479 314 483 300 483 c 0
 273 483 246 468 231 443 c 1
 161 483 l 1
 191 534 245 563 301 563 c 0
 328 563 355 556 380 542 c 0
 393 535 406 531 420 531 c 0
 447 531 474 546 489 571 c 1
 559 531 l 1
 529 480 475 451 419 451 c 0
 392 451 365 458 340 472 c 0
EndSplineSet
Validated: 1
EndChar

StartChar: adieresis
Encoding: 228 228 164
Width: 720
VWidth: 0
Flags: HM
LayerCount: 2
Fore
SplineSet
240 200 m 0
 240 134 274 80 320 80 c 0
 386 80 480 200 480 200 c 1
 480 320 l 1
 360 320 l 2
 294 320 240 266 240 200 c 0
480 99 m 1
 434 49 375 0 320 0 c 0
 230 0 160 90 160 200 c 0
 160 310 250 400 360 400 c 2
 560 400 l 1
 560 0 l 1
 480 0 l 1
 480 99 l 1
400 523 m 25
 480 523 l 25
 480 443 l 25
 400 443 l 25
 400 523 l 25
240 523 m 25
 320 523 l 25
 320 443 l 25
 240 443 l 25
 240 523 l 25
EndSplineSet
Validated: 1
EndChar

StartChar: aring
Encoding: 229 229 165
Width: 720
VWidth: 0
Flags: HMW
LayerCount: 2
Fore
SplineSet
240 200 m 0
 240 134 274 80 320 80 c 0
 386 80 480 200 480 200 c 1
 480 320 l 1
 360 320 l 2
 294 320 240 266 240 200 c 0
480 99 m 1
 434 49 375 0 320 0 c 0
 230 0 160 90 160 200 c 0
 160 310 250 400 360 400 c 2
 560 400 l 1
 560 0 l 1
 480 0 l 1
 480 99 l 1
280 523 m 0
 280 501 316 483 360 483 c 0
 404 483 440 501 440 523 c 0
 440 545 404 563 360 563 c 0
 316 563 280 545 280 523 c 0
200 523 m 0
 200 589 272 643 360 643 c 0
 448 643 520 589 520 523 c 0
 520 457 448 403 360 403 c 0
 272 403 200 457 200 523 c 0
EndSplineSet
Validated: 1
EndChar

StartChar: ae
Encoding: 230 230 166
Width: 720
VWidth: 0
Flags: HMW
LayerCount: 2
Fore
SplineSet
320 99 m 1
 320 99 265 0 200 0 c 0
 130 0 80 90 80 200 c 0
 80 310 150 400 240 400 c 2
 400 400 l 1
 400 374 l 1
 423 391 451 400 480 400 c 0
 570 400 640 310 640 200 c 2
 640 160 l 1
 407 160 l 1
 407 160 428 80 480 80 c 2
 600 80 l 1
 600 0 l 1
 480 0 l 2
 451 0 423 9 400 26 c 1
 400 0 l 1
 320 0 l 1
 320 99 l 1
160 200 m 0
 160 134 174 80 200 80 c 0
 246 80 320 200 320 200 c 1
 320 320 l 1
 240 320 l 2
 194 320 160 266 160 200 c 0
553 240 m 1
 553 240 532 320 480 320 c 0
 428 320 407 240 407 240 c 1
 553 240 l 1
EndSplineSet
Validated: 1
EndChar

StartChar: ccedilla
Encoding: 231 231 167
Width: 720
VWidth: 0
Flags: HM
LayerCount: 2
Fore
SplineSet
400 -68 m 0
 400 -134 346 -188 280 -188 c 0
 247 -188 217 -175 195 -153 c 1
 252 -96 l 1
 259 -103 269 -108 280 -108 c 0
 302 -108 320 -90 320 -68 c 0
 320 -60 317 -52 313 -46 c 1
 279 -12 l 1
 301 9 l 1
 220 34 160 111 160 200 c 0
 160 310 250 400 360 400 c 0
 447 400 522 343 549 265 c 1
 468 251 l 1
 449 291 408 320 360 320 c 0
 294 320 240 266 240 200 c 0
 240 134 294 80 360 80 c 0
 408 80 449 109 468 149 c 1
 549 135 l 1
 528 73 477 25 413 7 c 1
 389 -16 l 1
 396 -32 400 -50 400 -68 c 0
EndSplineSet
Validated: 1
EndChar

StartChar: egrave
Encoding: 232 232 168
Width: 720
VWidth: 0
Flags: HM
LayerCount: 2
Fore
SplineSet
160 200 m 0
 160 310 250 400 360 400 c 0
 470 400 560 310 560 200 c 2
 560 160 l 1
 247 160 l 1
 264 114 308 80 360 80 c 2
 520 80 l 1
 520 0 l 1
 360 0 l 2
 250 0 160 90 160 200 c 0
473 240 m 1
 456 286 412 320 360 320 c 0
 308 320 264 286 247 240 c 1
 473 240 l 1
211 591 m 1
 268 648 l 1
 416 499 l 1
 360 443 l 1
 211 591 l 1
EndSplineSet
Validated: 1
EndChar

StartChar: eacute
Encoding: 233 233 169
Width: 720
VWidth: 0
Flags: HM
LayerCount: 2
Fore
SplineSet
160 200 m 0
 160 310 250 400 360 400 c 0
 470 400 560 310 560 200 c 2
 560 160 l 1
 247 160 l 1
 264 114 308 80 360 80 c 2
 520 80 l 1
 520 0 l 1
 360 0 l 2
 250 0 160 90 160 200 c 0
473 240 m 1
 456 286 412 320 360 320 c 0
 308 320 264 286 247 240 c 1
 473 240 l 1
304 499 m 1
 452 648 l 1
 509 591 l 1
 360 443 l 1
 304 499 l 1
EndSplineSet
Validated: 1
EndChar

StartChar: ecircumflex
Encoding: 234 234 170
Width: 720
VWidth: 0
Flags: HM
LayerCount: 2
Fore
SplineSet
160 200 m 0
 160 310 250 400 360 400 c 0
 470 400 560 310 560 200 c 2
 560 160 l 1
 247 160 l 1
 264 114 308 80 360 80 c 2
 520 80 l 1
 520 0 l 1
 360 0 l 2
 250 0 160 90 160 200 c 0
473 240 m 1
 456 286 412 320 360 320 c 0
 308 320 264 286 247 240 c 1
 473 240 l 1
268 443 m 1
 212 499 l 1
 360 648 l 1
 508 499 l 1
 452 443 l 1
 360 534 l 1
 268 443 l 1
EndSplineSet
Validated: 1
EndChar

StartChar: edieresis
Encoding: 235 235 171
Width: 720
VWidth: 0
Flags: HM
LayerCount: 2
Fore
SplineSet
160 200 m 0
 160 310 250 400 360 400 c 0
 470 400 560 310 560 200 c 2
 560 160 l 1
 247 160 l 1
 264 114 308 80 360 80 c 2
 520 80 l 1
 520 0 l 1
 360 0 l 2
 250 0 160 90 160 200 c 0
473 240 m 1
 456 286 412 320 360 320 c 0
 308 320 264 286 247 240 c 1
 473 240 l 1
400 523 m 25
 480 523 l 25
 480 443 l 25
 400 443 l 25
 400 523 l 25
240 523 m 25
 320 523 l 25
 320 443 l 25
 240 443 l 25
 240 523 l 25
EndSplineSet
Validated: 1
EndChar

StartChar: igrave
Encoding: 236 236 172
Width: 720
VWidth: 0
Flags: HM
LayerCount: 2
Fore
SplineSet
160 400 m 1
 400 400 l 1
 400 80 l 1
 560 80 l 1
 560 0 l 1
 160 0 l 1
 160 80 l 1
 320 80 l 1
 320 320 l 1
 160 320 l 1
 160 400 l 1
211 591 m 1
 268 648 l 1
 416 499 l 1
 360 443 l 1
 211 591 l 1
EndSplineSet
Validated: 1
EndChar

StartChar: iacute
Encoding: 237 237 173
Width: 720
VWidth: 0
Flags: HM
LayerCount: 2
Fore
SplineSet
160 400 m 1
 400 400 l 1
 400 80 l 1
 560 80 l 1
 560 0 l 1
 160 0 l 1
 160 80 l 1
 320 80 l 1
 320 320 l 1
 160 320 l 1
 160 400 l 1
304 499 m 1
 452 648 l 1
 509 591 l 1
 360 443 l 1
 304 499 l 1
EndSplineSet
Validated: 1
EndChar

StartChar: icircumflex
Encoding: 238 238 174
Width: 720
VWidth: 0
Flags: HM
LayerCount: 2
Fore
SplineSet
160 400 m 1
 400 400 l 1
 400 80 l 1
 560 80 l 1
 560 0 l 1
 160 0 l 1
 160 80 l 1
 320 80 l 1
 320 320 l 1
 160 320 l 1
 160 400 l 1
268 443 m 1
 212 499 l 1
 360 648 l 1
 508 499 l 1
 452 443 l 1
 360 534 l 1
 268 443 l 1
EndSplineSet
Validated: 1
EndChar

StartChar: idieresis
Encoding: 239 239 175
Width: 720
VWidth: 0
Flags: HM
LayerCount: 2
Fore
SplineSet
160 400 m 1
 400 400 l 1
 400 80 l 1
 560 80 l 1
 560 0 l 1
 160 0 l 1
 160 80 l 1
 320 80 l 1
 320 320 l 1
 160 320 l 1
 160 400 l 1
400 523 m 25
 480 523 l 25
 480 443 l 25
 400 443 l 25
 400 523 l 25
240 523 m 25
 320 523 l 25
 320 443 l 25
 240 443 l 25
 240 523 l 25
EndSplineSet
Validated: 1
EndChar

StartChar: eth
Encoding: 240 240 176
Width: 720
VWidth: 0
Flags: HMW
LayerCount: 2
Fore
SplineSet
480 160 m 0
 480 204 426 240 360 240 c 0
 294 240 240 204 240 160 c 0
 240 116 294 80 360 80 c 0
 426 80 480 116 480 160 c 0
283 381 m 1
 219 433 l 1
 255 462 305 480 360 480 c 0
 391 480 421 474 447 464 c 1
 520 537 l 1
 577 480 l 1
 516 420 l 1
 543 393 560 358 560 320 c 2
 560 160 l 2
 560 72 470 0 360 0 c 0
 250 0 160 72 160 160 c 0
 160 248 250 320 360 320 c 1
 332 348 l 1
 382 399 l 1
 375 400 368 400 360 400 c 0
 331 400 304 393 283 381 c 1
411 315 m 1
 436 310 460 300 480 288 c 1
 480 320 l 2
 480 336 472 351 460 364 c 1
 411 315 l 1
EndSplineSet
Validated: 1
EndChar

StartChar: ntilde
Encoding: 241 241 177
Width: 720
VWidth: 0
Flags: HM
LayerCount: 2
Fore
SplineSet
240 301 m 1
 286 351 345 400 400 400 c 0
 490 400 560 310 560 200 c 2
 560 0 l 1
 480 0 l 1
 480 200 l 2
 480 266 446 320 400 320 c 0
 334 320 240 200 240 200 c 1
 240 0 l 1
 160 0 l 1
 160 400 l 1
 240 400 l 1
 240 301 l 1
340 472 m 0
 327 479 314 483 300 483 c 0
 273 483 246 468 231 443 c 1
 161 483 l 1
 191 534 245 563 301 563 c 0
 328 563 355 556 380 542 c 0
 393 535 406 531 420 531 c 0
 447 531 474 546 489 571 c 1
 559 531 l 1
 529 480 475 451 419 451 c 0
 392 451 365 458 340 472 c 0
EndSplineSet
Validated: 1
EndChar

StartChar: ograve
Encoding: 242 242 178
Width: 720
VWidth: 0
Flags: HM
LayerCount: 2
Fore
SplineSet
240 200 m 0
 240 134 294 80 360 80 c 0
 426 80 480 134 480 200 c 0
 480 266 426 320 360 320 c 0
 294 320 240 266 240 200 c 0
160 200 m 0
 160 310 250 400 360 400 c 0
 470 400 560 310 560 200 c 0
 560 90 470 0 360 0 c 0
 250 0 160 90 160 200 c 0
211 591 m 1
 268 648 l 1
 416 499 l 1
 360 443 l 1
 211 591 l 1
EndSplineSet
Validated: 1
EndChar

StartChar: oacute
Encoding: 243 243 179
Width: 720
VWidth: 0
Flags: HM
LayerCount: 2
Fore
SplineSet
240 200 m 0
 240 134 294 80 360 80 c 0
 426 80 480 134 480 200 c 0
 480 266 426 320 360 320 c 0
 294 320 240 266 240 200 c 0
160 200 m 0
 160 310 250 400 360 400 c 0
 470 400 560 310 560 200 c 0
 560 90 470 0 360 0 c 0
 250 0 160 90 160 200 c 0
304 499 m 1
 452 648 l 1
 509 591 l 1
 360 443 l 1
 304 499 l 1
EndSplineSet
Validated: 1
EndChar

StartChar: ocircumflex
Encoding: 244 244 180
Width: 720
VWidth: 0
Flags: HM
LayerCount: 2
Fore
SplineSet
240 200 m 0
 240 134 294 80 360 80 c 0
 426 80 480 134 480 200 c 0
 480 266 426 320 360 320 c 0
 294 320 240 266 240 200 c 0
160 200 m 0
 160 310 250 400 360 400 c 0
 470 400 560 310 560 200 c 0
 560 90 470 0 360 0 c 0
 250 0 160 90 160 200 c 0
268 443 m 1
 212 499 l 1
 360 648 l 1
 508 499 l 1
 452 443 l 1
 360 534 l 1
 268 443 l 1
EndSplineSet
Validated: 1
EndChar

StartChar: otilde
Encoding: 245 245 181
Width: 720
VWidth: 0
Flags: HM
LayerCount: 2
Fore
SplineSet
240 200 m 0
 240 134 294 80 360 80 c 0
 426 80 480 134 480 200 c 0
 480 266 426 320 360 320 c 0
 294 320 240 266 240 200 c 0
160 200 m 0
 160 310 250 400 360 400 c 0
 470 400 560 310 560 200 c 0
 560 90 470 0 360 0 c 0
 250 0 160 90 160 200 c 0
340 472 m 0
 327 479 314 483 300 483 c 0
 273 483 246 468 231 443 c 1
 161 483 l 1
 191 534 245 563 301 563 c 0
 328 563 355 556 380 542 c 0
 393 535 406 531 420 531 c 0
 447 531 474 546 489 571 c 1
 559 531 l 1
 529 480 475 451 419 451 c 0
 392 451 365 458 340 472 c 0
EndSplineSet
Validated: 1
EndChar

StartChar: odieresis
Encoding: 246 246 182
Width: 720
VWidth: 0
Flags: HM
LayerCount: 2
Fore
SplineSet
240 200 m 0
 240 134 294 80 360 80 c 0
 426 80 480 134 480 200 c 0
 480 266 426 320 360 320 c 0
 294 320 240 266 240 200 c 0
160 200 m 0
 160 310 250 400 360 400 c 0
 470 400 560 310 560 200 c 0
 560 90 470 0 360 0 c 0
 250 0 160 90 160 200 c 0
400 523 m 25
 480 523 l 25
 480 443 l 25
 400 443 l 25
 400 523 l 25
240 523 m 25
 320 523 l 25
 320 443 l 25
 240 443 l 25
 240 523 l 25
EndSplineSet
Validated: 1
EndChar

StartChar: divide
Encoding: 247 247 183
Width: 720
VWidth: 0
Flags: HMW
LayerCount: 2
Fore
SplineSet
320 80 m 25
 400 80 l 25
 400 0 l 25
 320 0 l 25
 320 80 l 25
320 400 m 25
 400 400 l 25
 400 320 l 25
 320 320 l 25
 320 400 l 25
160 240 m 25
 560 240 l 25
 560 160 l 25
 160 160 l 25
 160 240 l 25
EndSplineSet
Validated: 1
EndChar

StartChar: oslash
Encoding: 248 248 184
Width: 720
VWidth: 0
Flags: HMW
LayerCount: 2
Fore
SplineSet
160 200 m 0
 160 310 250 400 360 400 c 0
 401 400 438 387 470 366 c 1
 532 428 l 1
 588 372 l 1
 526 310 l 1
 547 278 560 241 560 200 c 0
 560 90 470 0 360 0 c 0
 319 0 282 13 250 34 c 1
 188 -28 l 1
 132 28 l 1
 194 90 l 1
 173 122 160 159 160 200 c 0
308 92 m 1
 324 84 341 80 360 80 c 0
 426 80 480 134 480 200 c 0
 480 219 476 236 468 252 c 1
 308 92 l 1
252 148 m 1
 412 308 l 1
 396 316 379 320 360 320 c 0
 294 320 240 266 240 200 c 0
 240 181 244 164 252 148 c 1
EndSplineSet
Validated: 1
EndChar

StartChar: ugrave
Encoding: 249 249 185
Width: 720
VWidth: 0
Flags: HM
LayerCount: 2
Fore
SplineSet
480 99 m 1
 434 49 375 0 320 0 c 0
 230 0 160 90 160 200 c 2
 160 400 l 1
 240 400 l 1
 240 200 l 2
 240 134 274 80 320 80 c 0
 386 80 480 200 480 200 c 1
 480 400 l 1
 560 400 l 1
 560 0 l 1
 480 0 l 1
 480 99 l 1
211 591 m 1
 268 648 l 1
 416 499 l 1
 360 443 l 1
 211 591 l 1
EndSplineSet
Validated: 1
EndChar

StartChar: uacute
Encoding: 250 250 186
Width: 720
VWidth: 0
Flags: HM
LayerCount: 2
Fore
SplineSet
480 99 m 1
 434 49 375 0 320 0 c 0
 230 0 160 90 160 200 c 2
 160 400 l 1
 240 400 l 1
 240 200 l 2
 240 134 274 80 320 80 c 0
 386 80 480 200 480 200 c 1
 480 400 l 1
 560 400 l 1
 560 0 l 1
 480 0 l 1
 480 99 l 1
304 499 m 1
 452 648 l 1
 509 591 l 1
 360 443 l 1
 304 499 l 1
EndSplineSet
Validated: 1
EndChar

StartChar: ucircumflex
Encoding: 251 251 187
Width: 720
VWidth: 0
Flags: HM
LayerCount: 2
Fore
SplineSet
480 99 m 1
 434 49 375 0 320 0 c 0
 230 0 160 90 160 200 c 2
 160 400 l 1
 240 400 l 1
 240 200 l 2
 240 134 274 80 320 80 c 0
 386 80 480 200 480 200 c 1
 480 400 l 1
 560 400 l 1
 560 0 l 1
 480 0 l 1
 480 99 l 1
268 443 m 1
 212 499 l 1
 360 648 l 1
 508 499 l 1
 452 443 l 1
 360 534 l 1
 268 443 l 1
EndSplineSet
Validated: 1
EndChar

StartChar: udieresis
Encoding: 252 252 188
Width: 720
VWidth: 0
Flags: HM
LayerCount: 2
Fore
SplineSet
480 99 m 1
 434 49 375 0 320 0 c 0
 230 0 160 90 160 200 c 2
 160 400 l 1
 240 400 l 1
 240 200 l 2
 240 134 274 80 320 80 c 0
 386 80 480 200 480 200 c 1
 480 400 l 1
 560 400 l 1
 560 0 l 1
 480 0 l 1
 480 99 l 1
400 523 m 25
 480 523 l 25
 480 443 l 25
 400 443 l 25
 400 523 l 25
240 523 m 25
 320 523 l 25
 320 443 l 25
 240 443 l 25
 240 523 l 25
EndSplineSet
Validated: 1
EndChar

StartChar: yacute
Encoding: 253 253 189
Width: 720
VWidth: 0
Flags: HM
LayerCount: 2
Fore
SplineSet
480 119 m 1
 434 69 375 40 320 40 c 0
 230 40 160 120 160 220 c 2
 160 400 l 1
 240 400 l 1
 240 220 l 2
 240 164 274 120 320 120 c 0
 386 120 480 220 480 220 c 1
 480 400 l 1
 560 400 l 1
 560 80 l 2
 560 -30 470 -120 360 -120 c 0
 288 -120 224 -81 189 -23 c 1
 257 18 l 1
 278 -17 317 -40 360 -40 c 0
 426 -40 480 14 480 80 c 2
 480 119 l 1
304 499 m 1
 452 648 l 1
 509 591 l 1
 360 443 l 1
 304 499 l 1
EndSplineSet
Validated: 1
EndChar

StartChar: thorn
Encoding: 254 254 190
Width: 720
VWidth: 0
Flags: HMW
LayerCount: 2
Fore
SplineSet
240 301 m 1
 286 351 345 400 400 400 c 0
 490 400 560 310 560 200 c 0
 560 90 470 0 360 0 c 2
 240 0 l 1
 240 -120 l 1
 160 -120 l 1
 160 520 l 1
 240 520 l 1
 240 301 l 1
480 200 m 0
 480 266 446 320 400 320 c 0
 334 320 240 200 240 200 c 1
 240 80 l 1
 360 80 l 2
 426 80 480 134 480 200 c 0
EndSplineSet
Validated: 1
EndChar

StartChar: ydieresis
Encoding: 255 255 191
Width: 720
VWidth: 0
Flags: HM
LayerCount: 2
Fore
SplineSet
480 119 m 1
 434 69 375 40 320 40 c 0
 230 40 160 120 160 220 c 2
 160 400 l 1
 240 400 l 1
 240 220 l 2
 240 164 274 120 320 120 c 0
 386 120 480 220 480 220 c 1
 480 400 l 1
 560 400 l 1
 560 80 l 2
 560 -30 470 -120 360 -120 c 0
 288 -120 224 -81 189 -23 c 1
 257 18 l 1
 278 -17 317 -40 360 -40 c 0
 426 -40 480 14 480 80 c 2
 480 119 l 1
400 523 m 25
 480 523 l 25
 480 443 l 25
 400 443 l 25
 400 523 l 25
240 523 m 25
 320 523 l 25
 320 443 l 25
 240 443 l 25
 240 523 l 25
EndSplineSet
Validated: 1
EndChar

StartChar: Amacron
Encoding: 256 256 192
Width: 720
VWidth: 0
Flags: HMW
LayerCount: 2
Fore
SplineSet
240 183 m 1
 240 180 l 1
 480 180 l 1
 480 183 l 1
 360 303 l 1
 240 183 l 1
160 217 m 1
 343 400 l 1
 377 400 l 1
 560 217 l 1
 560 0 l 1
 480 0 l 1
 480 100 l 1
 240 100 l 1
 240 0 l 1
 160 0 l 1
 160 217 l 1
240 523 m 1
 480 523 l 1
 480 443 l 1
 240 443 l 1
 240 523 l 1
EndSplineSet
Validated: 1
EndChar

StartChar: amacron
Encoding: 257 257 193
Width: 720
VWidth: 0
Flags: MW
LayerCount: 2
Fore
SplineSet
240 200 m 0
 240 134 274 80 320 80 c 0
 386 80 480 200 480 200 c 1
 480 320 l 1
 360 320 l 2
 294 320 240 266 240 200 c 0
480 99 m 1
 434 49 375 0 320 0 c 0
 230 0 160 90 160 200 c 0
 160 310 250 400 360 400 c 2
 560 400 l 1
 560 0 l 1
 480 0 l 1
 480 99 l 1
240 523 m 1
 480 523 l 1
 480 443 l 1
 240 443 l 1
 240 523 l 1
EndSplineSet
Validated: 1
EndChar

StartChar: Abreve
Encoding: 258 258 194
Width: 720
VWidth: 0
Flags: HMW
LayerCount: 2
Fore
SplineSet
240 183 m 1
 240 180 l 1
 480 180 l 1
 480 183 l 1
 360 303 l 1
 240 183 l 1
160 217 m 1
 343 400 l 1
 377 400 l 1
 560 217 l 1
 560 0 l 1
 480 0 l 1
 480 100 l 1
 240 100 l 1
 240 0 l 1
 160 0 l 1
 160 217 l 1
440 563 m 1
 520 563 l 1
 520 497 448 443 360 443 c 0
 272 443 200 497 200 563 c 1
 280 563 l 1
 280 541 316 523 360 523 c 0
 404 523 440 541 440 563 c 1
EndSplineSet
Validated: 1
EndChar

StartChar: abreve
Encoding: 259 259 195
Width: 720
VWidth: 0
Flags: MW
LayerCount: 2
Fore
SplineSet
240 200 m 4
 240 134 274 80 320 80 c 4
 386 80 480 200 480 200 c 5
 480 320 l 5
 360 320 l 6
 294 320 240 266 240 200 c 4
480 99 m 5
 434 49 375 0 320 0 c 4
 230 0 160 90 160 200 c 4
 160 310 250 400 360 400 c 6
 560 400 l 5
 560 0 l 5
 480 0 l 5
 480 99 l 5
440 563 m 1
 520 563 l 1
 520 497 448 443 360 443 c 0
 272 443 200 497 200 563 c 1
 280 563 l 1
 280 541 316 523 360 523 c 0
 404 523 440 541 440 563 c 1
EndSplineSet
Validated: 1
EndChar

StartChar: Aogonek
Encoding: 260 260 196
Width: 720
VWidth: 0
Flags: HM
LayerCount: 2
Fore
SplineSet
480 -68 m 0
 480 -50 484 -32 491 -16 c 1
 480 0 l 1
 480 180 l 1
 160 180 l 1
 160 0 l 1
 80 0 l 1
 80 297 l 1
 263 480 l 1
 377 480 l 1
 560 297 l 1
 560 29 l 1
 601 -12 l 1
 567 -46 l 1
 563 -52 560 -60 560 -68 c 0
 560 -90 578 -108 600 -108 c 0
 611 -108 621 -103 628 -96 c 1
 685 -153 l 1
 663 -175 633 -188 600 -188 c 0
 534 -188 480 -134 480 -68 c 0
160 263 m 1
 160 260 l 1
 480 260 l 1
 480 263 l 1
 343 400 l 1
 297 400 l 1
 160 263 l 1
EndSplineSet
Validated: 1
EndChar

StartChar: aogonek
Encoding: 261 261 197
Width: 720
VWidth: 0
Flags: HM
LayerCount: 2
Fore
SplineSet
480 -68 m 0
 480 -50 484 -32 491 -16 c 1
 480 0 l 1
 480 99 l 1
 434 49 375 0 320 0 c 0
 230 0 160 90 160 200 c 0
 160 310 250 400 360 400 c 2
 560 400 l 1
 560 29 l 1
 601 -12 l 1
 567 -46 l 1
 563 -52 560 -60 560 -68 c 0
 560 -90 578 -108 600 -108 c 0
 611 -108 621 -103 628 -96 c 1
 685 -153 l 1
 663 -175 633 -188 600 -188 c 0
 534 -188 480 -134 480 -68 c 0
240 200 m 0
 240 134 274 80 320 80 c 0
 386 80 480 200 480 200 c 1
 480 320 l 1
 360 320 l 2
 294 320 240 266 240 200 c 0
EndSplineSet
Validated: 1
EndChar

StartChar: Cacute
Encoding: 262 262 198
Width: 720
VWidth: 0
Flags: HMW
LayerCount: 2
Fore
SplineSet
160 200 m 0
 160 310 250 400 360 400 c 0
 447 400 522 343 549 265 c 1
 468 251 l 1
 449 291 408 320 360 320 c 4
 294 320 240 266 240 200 c 0
 240 134 294 80 360 80 c 0
 408 80 449 109 468 149 c 1
 549 135 l 1
 522 57 447 0 360 0 c 0
 250 0 160 90 160 200 c 0
304 499 m 1
 452 648 l 1
 509 591 l 1
 360 443 l 1
 304 499 l 1
EndSplineSet
Validated: 1
EndChar

StartChar: cacute
Encoding: 263 263 199
Width: 720
VWidth: 0
Flags: HM
LayerCount: 2
Fore
SplineSet
160 200 m 0
 160 310 250 400 360 400 c 0
 447 400 522 343 549 265 c 1
 468 251 l 1
 449 291 408 320 360 320 c 4
 294 320 240 266 240 200 c 0
 240 134 294 80 360 80 c 0
 408 80 449 109 468 149 c 1
 549 135 l 1
 522 57 447 0 360 0 c 0
 250 0 160 90 160 200 c 0
304 499 m 1
 452 648 l 1
 509 591 l 1
 360 443 l 1
 304 499 l 1
EndSplineSet
Validated: 1
EndChar

StartChar: Ccircumflex
Encoding: 264 264 200
Width: 720
VWidth: 0
Flags: HMW
LayerCount: 2
Fore
SplineSet
160 200 m 0
 160 310 250 400 360 400 c 0
 447 400 522 343 549 265 c 1
 468 251 l 1
 449 291 408 320 360 320 c 4
 294 320 240 266 240 200 c 0
 240 134 294 80 360 80 c 0
 408 80 449 109 468 149 c 1
 549 135 l 1
 522 57 447 0 360 0 c 0
 250 0 160 90 160 200 c 0
268 443 m 1
 212 499 l 1
 360 648 l 1
 508 499 l 1
 452 443 l 1
 360 534 l 1
 268 443 l 1
EndSplineSet
Validated: 1
EndChar

StartChar: ccircumflex
Encoding: 265 265 201
Width: 720
VWidth: 0
Flags: HM
LayerCount: 2
Fore
SplineSet
160 200 m 0
 160 310 250 400 360 400 c 0
 447 400 522 343 549 265 c 1
 468 251 l 1
 449 291 408 320 360 320 c 4
 294 320 240 266 240 200 c 0
 240 134 294 80 360 80 c 0
 408 80 449 109 468 149 c 1
 549 135 l 1
 522 57 447 0 360 0 c 0
 250 0 160 90 160 200 c 0
268 443 m 1
 212 499 l 1
 360 648 l 1
 508 499 l 1
 452 443 l 1
 360 534 l 1
 268 443 l 1
EndSplineSet
Validated: 1
EndChar

StartChar: Cdotaccent
Encoding: 266 266 202
Width: 720
VWidth: 0
Flags: HMW
LayerCount: 2
Fore
SplineSet
160 200 m 0
 160 310 250 400 360 400 c 0
 447 400 522 343 549 265 c 1
 468 251 l 1
 449 291 408 320 360 320 c 4
 294 320 240 266 240 200 c 0
 240 134 294 80 360 80 c 0
 408 80 449 109 468 149 c 1
 549 135 l 1
 522 57 447 0 360 0 c 0
 250 0 160 90 160 200 c 0
320 523 m 25
 400 523 l 25
 400 443 l 25
 320 443 l 25
 320 523 l 25
EndSplineSet
Validated: 1
EndChar

StartChar: cdotaccent
Encoding: 267 267 203
Width: 720
VWidth: 0
Flags: HM
LayerCount: 2
Fore
SplineSet
160 200 m 0
 160 310 250 400 360 400 c 0
 447 400 522 343 549 265 c 1
 468 251 l 1
 449 291 408 320 360 320 c 4
 294 320 240 266 240 200 c 0
 240 134 294 80 360 80 c 0
 408 80 449 109 468 149 c 1
 549 135 l 1
 522 57 447 0 360 0 c 0
 250 0 160 90 160 200 c 0
320 523 m 25
 400 523 l 25
 400 443 l 25
 320 443 l 25
 320 523 l 25
EndSplineSet
Validated: 1
EndChar

StartChar: Ccaron
Encoding: 268 268 204
Width: 720
VWidth: 0
Flags: HMW
LayerCount: 2
Fore
SplineSet
160 200 m 0
 160 310 250 400 360 400 c 0
 447 400 522 343 549 265 c 1
 468 251 l 1
 449 291 408 320 360 320 c 0
 294 320 240 266 240 200 c 0
 240 134 294 80 360 80 c 0
 408 80 449 109 468 149 c 1
 549 135 l 1
 522 57 447 0 360 0 c 0
 250 0 160 90 160 200 c 0
452 648 m 1
 508 592 l 1
 360 443 l 1
 212 592 l 1
 268 648 l 1
 360 557 l 1
 452 648 l 1
EndSplineSet
Validated: 1
EndChar

StartChar: ccaron
Encoding: 269 269 205
Width: 720
VWidth: 0
Flags: HM
LayerCount: 2
Fore
SplineSet
160 200 m 0
 160 310 250 400 360 400 c 0
 447 400 522 343 549 265 c 1
 468 251 l 1
 449 291 408 320 360 320 c 4
 294 320 240 266 240 200 c 0
 240 134 294 80 360 80 c 0
 408 80 449 109 468 149 c 1
 549 135 l 1
 522 57 447 0 360 0 c 0
 250 0 160 90 160 200 c 0
452 648 m 1
 508 592 l 1
 360 443 l 1
 212 592 l 1
 268 648 l 1
 360 557 l 1
 452 648 l 1
EndSplineSet
Validated: 1
EndChar

StartChar: Dcaron
Encoding: 270 270 206
Width: 720
VWidth: 0
Flags: HMW
LayerCount: 2
Fore
SplineSet
360 80 m 2
 426 80 480 134 480 200 c 0
 480 266 426 320 360 320 c 2
 240 320 l 1
 240 80 l 1
 360 80 l 2
360 0 m 2
 160 0 l 1
 160 400 l 1
 360 400 l 2
 470 400 560 310 560 200 c 0
 560 90 470 0 360 0 c 2
452 648 m 1
 508 592 l 1
 360 443 l 1
 212 592 l 1
 268 648 l 1
 360 557 l 1
 452 648 l 1
EndSplineSet
Validated: 1
EndChar

StartChar: dcaron
Encoding: 271 271 207
Width: 720
VWidth: 0
Flags: HMW
LayerCount: 2
Fore
SplineSet
80 200 m 0
 80 134 114 80 160 80 c 0
 226 80 320 200 320 200 c 1
 320 320 l 1
 200 320 l 2
 134 320 80 266 80 200 c 0
320 99 m 1
 274 49 215 0 160 0 c 0
 70 0 0 90 0 200 c 0
 0 310 90 400 200 400 c 2
 320 400 l 1
 320 520 l 1
 400 520 l 1
 400 0 l 1
 320 0 l 1
 320 99 l 1
602 520 m 1
 658 463 l 1
 522 326 l 1
 464 383 l 1
 602 520 l 1
EndSplineSet
Validated: 1
EndChar

StartChar: Dcroat
Encoding: 272 272 208
Width: 720
VWidth: 0
Flags: HMW
LayerCount: 2
Fore
SplineSet
320 0 m 2
 160 0 l 1
 160 220 l 1
 80 220 l 1
 80 300 l 1
 160 300 l 1
 160 480 l 1
 320 480 l 2
 452 480 560 372 560 240 c 0
 560 108 452 0 320 0 c 2
240 220 m 1
 240 80 l 1
 320 80 l 2
 408 80 480 152 480 240 c 0
 480 328 408 400 320 400 c 2
 240 400 l 1
 240 300 l 1
 320 300 l 1
 320 220 l 1
 240 220 l 1
EndSplineSet
Validated: 1
EndChar

StartChar: dcroat
Encoding: 273 273 209
Width: 720
VWidth: 0
Flags: HMW
LayerCount: 2
Fore
SplineSet
480 99 m 1
 480 99 395 0 320 0 c 0
 230 0 160 50 160 160 c 0
 160 270 250 320 360 320 c 2
 480 320 l 1
 480 360 l 1
 400 360 l 1
 400 440 l 1
 480 440 l 1
 480 520 l 1
 560 520 l 1
 560 440 l 1
 640 440 l 1
 640 360 l 1
 560 360 l 1
 560 0 l 1
 480 0 l 1
 480 99 l 1
240 160 m 0
 240 94 274 80 320 80 c 0
 386 80 480 200 480 200 c 1
 480 240 l 1
 360 240 l 2
 294 240 240 226 240 160 c 0
EndSplineSet
Validated: 1
EndChar

StartChar: Emacron
Encoding: 274 274 210
Width: 720
VWidth: 0
Flags: HMW
LayerCount: 2
Fore
SplineSet
240 523 m 1
 480 523 l 1
 480 443 l 1
 240 443 l 1
 240 523 l 1
240 320 m 5
 240 240 l 5
 440 240 l 5
 440 160 l 5
 240 160 l 5
 240 80 l 5
 560 80 l 5
 560 0 l 5
 160 0 l 5
 160 400 l 5
 560 400 l 5
 560 320 l 5
 240 320 l 5
EndSplineSet
Validated: 1
EndChar

StartChar: emacron
Encoding: 275 275 211
Width: 720
VWidth: 0
Flags: HM
LayerCount: 2
Fore
SplineSet
160 200 m 0
 160 310 250 400 360 400 c 0
 470 400 560 310 560 200 c 2
 560 160 l 1
 247 160 l 1
 264 114 308 80 360 80 c 2
 520 80 l 1
 520 0 l 1
 360 0 l 2
 250 0 160 90 160 200 c 0
473 240 m 1
 456 286 412 320 360 320 c 0
 308 320 264 286 247 240 c 1
 473 240 l 1
240 523 m 5
 480 523 l 5
 480 443 l 5
 240 443 l 5
 240 523 l 5
EndSplineSet
Validated: 1
EndChar

StartChar: Ebreve
Encoding: 276 276 212
Width: 720
VWidth: 0
Flags: HMW
LayerCount: 2
Fore
SplineSet
440 563 m 1
 520 563 l 1
 520 497 448 443 360 443 c 0
 272 443 200 497 200 563 c 1
 280 563 l 1
 280 541 316 523 360 523 c 0
 404 523 440 541 440 563 c 1
240 320 m 5
 240 240 l 5
 440 240 l 5
 440 160 l 5
 240 160 l 5
 240 80 l 5
 560 80 l 5
 560 0 l 5
 160 0 l 5
 160 400 l 5
 560 400 l 5
 560 320 l 5
 240 320 l 5
EndSplineSet
Validated: 1
EndChar

StartChar: ebreve
Encoding: 277 277 213
Width: 720
VWidth: 0
Flags: HM
LayerCount: 2
Fore
SplineSet
160 200 m 0
 160 310 250 400 360 400 c 0
 470 400 560 310 560 200 c 2
 560 160 l 1
 247 160 l 1
 264 114 308 80 360 80 c 2
 520 80 l 1
 520 0 l 1
 360 0 l 2
 250 0 160 90 160 200 c 0
473 240 m 1
 456 286 412 320 360 320 c 0
 308 320 264 286 247 240 c 1
 473 240 l 1
440 563 m 1
 520 563 l 1
 520 497 448 443 360 443 c 0
 272 443 200 497 200 563 c 1
 280 563 l 1
 280 541 316 523 360 523 c 0
 404 523 440 541 440 563 c 1
EndSplineSet
Validated: 1
EndChar

StartChar: Edotaccent
Encoding: 278 278 214
Width: 720
VWidth: 0
Flags: HMW
LayerCount: 2
Fore
SplineSet
320 523 m 25
 400 523 l 25
 400 443 l 25
 320 443 l 25
 320 523 l 25
240 320 m 5
 240 240 l 5
 440 240 l 5
 440 160 l 5
 240 160 l 5
 240 80 l 5
 560 80 l 5
 560 0 l 5
 160 0 l 5
 160 400 l 5
 560 400 l 5
 560 320 l 5
 240 320 l 5
EndSplineSet
Validated: 1
EndChar

StartChar: edotaccent
Encoding: 279 279 215
Width: 720
VWidth: 0
Flags: HM
LayerCount: 2
Fore
SplineSet
160 200 m 0
 160 310 250 400 360 400 c 0
 470 400 560 310 560 200 c 2
 560 160 l 1
 247 160 l 1
 264 114 308 80 360 80 c 2
 520 80 l 1
 520 0 l 1
 360 0 l 2
 250 0 160 90 160 200 c 0
473 240 m 1
 456 286 412 320 360 320 c 0
 308 320 264 286 247 240 c 1
 473 240 l 1
320 523 m 25
 400 523 l 25
 400 443 l 25
 320 443 l 25
 320 523 l 25
EndSplineSet
Validated: 1
EndChar

StartChar: Eogonek
Encoding: 280 280 216
Width: 720
VWidth: 0
Flags: HM
LayerCount: 2
Fore
SplineSet
280 -68 m 0
 280 -50 284 -32 291 -16 c 1
 275 0 l 1
 80 0 l 1
 80 480 l 1
 560 480 l 1
 560 400 l 1
 160 400 l 1
 160 300 l 1
 440 300 l 1
 440 220 l 1
 160 220 l 1
 160 80 l 1
 560 80 l 1
 560 0 l 1
 389 0 l 1
 401 -12 l 1
 367 -46 l 1
 363 -52 360 -60 360 -68 c 0
 360 -90 378 -108 400 -108 c 0
 411 -108 421 -103 428 -96 c 1
 485 -153 l 1
 463 -175 433 -188 400 -188 c 0
 334 -188 280 -134 280 -68 c 0
EndSplineSet
Validated: 1
EndChar

StartChar: eogonek
Encoding: 281 281 217
Width: 720
VWidth: 0
Flags: HM
LayerCount: 2
Fore
SplineSet
400 -68 m 0
 400 -50 404 -32 411 -16 c 1
 395 0 l 1
 360 0 l 2
 250 0 160 90 160 200 c 0
 160 310 250 400 360 400 c 0
 470 400 560 310 560 200 c 2
 560 160 l 1
 247 160 l 1
 264 114 308 80 360 80 c 2
 520 80 l 1
 520 0 l 1
 509 0 l 1
 521 -12 l 1
 487 -46 l 1
 483 -52 480 -60 480 -68 c 0
 480 -90 498 -108 520 -108 c 0
 531 -108 541 -103 548 -96 c 1
 605 -153 l 1
 583 -175 553 -188 520 -188 c 0
 454 -188 400 -134 400 -68 c 0
473 240 m 1
 456 286 412 320 360 320 c 0
 308 320 264 286 247 240 c 1
 473 240 l 1
EndSplineSet
Validated: 1
EndChar

StartChar: Ecaron
Encoding: 282 282 218
Width: 720
VWidth: 0
Flags: HMW
LayerCount: 2
Fore
SplineSet
452 648 m 1
 508 592 l 1
 360 443 l 1
 212 592 l 1
 268 648 l 1
 360 557 l 1
 452 648 l 1
240 320 m 1
 240 240 l 1
 440 240 l 1
 440 160 l 1
 240 160 l 1
 240 80 l 1
 560 80 l 1
 560 0 l 1
 160 0 l 1
 160 400 l 1
 560 400 l 1
 560 320 l 1
 240 320 l 1
EndSplineSet
Validated: 1
EndChar

StartChar: ecaron
Encoding: 283 283 219
Width: 720
VWidth: 0
Flags: HM
LayerCount: 2
Fore
SplineSet
160 200 m 0
 160 310 250 400 360 400 c 0
 470 400 560 310 560 200 c 2
 560 160 l 1
 247 160 l 1
 264 114 308 80 360 80 c 2
 520 80 l 1
 520 0 l 1
 360 0 l 2
 250 0 160 90 160 200 c 0
473 240 m 1
 456 286 412 320 360 320 c 0
 308 320 264 286 247 240 c 1
 473 240 l 1
452 648 m 1
 508 592 l 1
 360 443 l 1
 212 592 l 1
 268 648 l 1
 360 557 l 1
 452 648 l 1
EndSplineSet
Validated: 1
EndChar

StartChar: Gcircumflex
Encoding: 284 284 220
Width: 720
VWidth: 0
Flags: HMW
LayerCount: 2
Fore
SplineSet
360 0 m 2
 250 0 160 90 160 200 c 0
 160 310 250 400 360 400 c 0
 447 400 522 343 549 265 c 1
 468 251 l 1
 449 291 408 320 360 320 c 0
 294 320 240 266 240 200 c 0
 240 134 294 80 360 80 c 2
 470 80 l 1
 470 130 l 1
 370 130 l 1
 370 210 l 1
 550 210 l 1
 550 0 l 1
 360 0 l 2
268 443 m 1
 212 499 l 1
 360 648 l 1
 508 499 l 1
 452 443 l 1
 360 534 l 1
 268 443 l 1
EndSplineSet
Validated: 1
EndChar

StartChar: gcircumflex
Encoding: 285 285 221
Width: 720
VWidth: 0
Flags: HM
LayerCount: 2
Fore
SplineSet
480 119 m 1
 434 69 375 40 320 40 c 0
 230 40 160 120 160 220 c 0
 160 320 250 400 360 400 c 2
 560 400 l 1
 560 80 l 2
 560 -30 470 -120 360 -120 c 0
 288 -120 224 -81 189 -23 c 1
 257 18 l 1
 278 -17 317 -40 360 -40 c 0
 426 -40 480 14 480 80 c 2
 480 119 l 1
240 220 m 0
 240 164 274 120 320 120 c 0
 386 120 480 220 480 220 c 1
 480 320 l 1
 360 320 l 2
 294 320 240 276 240 220 c 0
268 443 m 1
 212 499 l 1
 360 648 l 1
 508 499 l 1
 452 443 l 1
 360 534 l 1
 268 443 l 1
EndSplineSet
Validated: 1
EndChar

StartChar: Gbreve
Encoding: 286 286 222
Width: 720
VWidth: 0
Flags: HMW
LayerCount: 2
Fore
SplineSet
440 563 m 1
 520 563 l 1
 520 497 448 443 360 443 c 0
 272 443 200 497 200 563 c 1
 280 563 l 1
 280 541 316 523 360 523 c 0
 404 523 440 541 440 563 c 1
360 0 m 6
 250 0 160 90 160 200 c 4
 160 310 250 400 360 400 c 4
 447 400 522 343 549 265 c 5
 468 251 l 5
 449 291 408 320 360 320 c 4
 294 320 240 266 240 200 c 4
 240 134 294 80 360 80 c 6
 470 80 l 5
 470 130 l 5
 370 130 l 5
 370 210 l 5
 550 210 l 5
 550 0 l 5
 360 0 l 6
EndSplineSet
Validated: 1
EndChar

StartChar: gbreve
Encoding: 287 287 223
Width: 720
VWidth: 0
Flags: HM
LayerCount: 2
Fore
SplineSet
480 119 m 1
 434 69 375 40 320 40 c 0
 230 40 160 120 160 220 c 0
 160 320 250 400 360 400 c 2
 560 400 l 1
 560 80 l 2
 560 -30 470 -120 360 -120 c 0
 288 -120 224 -81 189 -23 c 1
 257 18 l 1
 278 -17 317 -40 360 -40 c 0
 426 -40 480 14 480 80 c 2
 480 119 l 1
240 220 m 0
 240 164 274 120 320 120 c 0
 386 120 480 220 480 220 c 1
 480 320 l 1
 360 320 l 2
 294 320 240 276 240 220 c 0
440 563 m 1
 520 563 l 1
 520 497 448 443 360 443 c 0
 272 443 200 497 200 563 c 1
 280 563 l 1
 280 541 316 523 360 523 c 0
 404 523 440 541 440 563 c 1
EndSplineSet
Validated: 1
EndChar

StartChar: Gdotaccent
Encoding: 288 288 224
Width: 720
VWidth: 0
Flags: HMW
LayerCount: 2
Fore
SplineSet
320 523 m 25
 400 523 l 25
 400 443 l 25
 320 443 l 25
 320 523 l 25
360 0 m 6
 250 0 160 90 160 200 c 4
 160 310 250 400 360 400 c 4
 447 400 522 343 549 265 c 5
 468 251 l 5
 449 291 408 320 360 320 c 4
 294 320 240 266 240 200 c 4
 240 134 294 80 360 80 c 6
 470 80 l 5
 470 130 l 5
 370 130 l 5
 370 210 l 5
 550 210 l 5
 550 0 l 5
 360 0 l 6
EndSplineSet
Validated: 1
EndChar

StartChar: gdotaccent
Encoding: 289 289 225
Width: 720
VWidth: 0
Flags: HM
LayerCount: 2
Fore
SplineSet
480 119 m 1
 434 69 375 40 320 40 c 0
 230 40 160 120 160 220 c 0
 160 320 250 400 360 400 c 2
 560 400 l 1
 560 80 l 2
 560 -30 470 -120 360 -120 c 0
 288 -120 224 -81 189 -23 c 1
 257 18 l 1
 278 -17 317 -40 360 -40 c 0
 426 -40 480 14 480 80 c 2
 480 119 l 1
240 220 m 0
 240 164 274 120 320 120 c 0
 386 120 480 220 480 220 c 1
 480 320 l 1
 360 320 l 2
 294 320 240 276 240 220 c 0
320 523 m 25
 400 523 l 25
 400 443 l 25
 320 443 l 25
 320 523 l 25
EndSplineSet
Validated: 1
EndChar

StartChar: uni0122
Encoding: 290 290 226
Width: 720
VWidth: 0
Flags: HM
LayerCount: 2
Fore
SplineSet
460 180 m 1
 320 180 l 1
 320 260 l 1
 540 260 l 1
 540 0 l 1
 320 0 l 2
 188 0 80 108 80 240 c 0
 80 372 188 480 320 480 c 0
 415 480 498 424 537 343 c 1
 453 329 l 1
 424 372 375 400 320 400 c 0
 232 400 160 328 160 240 c 0
 160 152 232 80 320 80 c 2
 460 80 l 1
 460 180 l 1
310 -43 m 1
 367 -100 l 1
 230 -237 l 1
 173 -180 l 1
 310 -43 l 1
EndSplineSet
Validated: 1
EndChar

StartChar: uni0123
Encoding: 291 291 227
Width: 720
VWidth: 0
Flags: HMW
LayerCount: 2
Fore
SplineSet
211 591 m 1
 268 648 l 1
 416 499 l 1
 360 443 l 1
 211 591 l 1
480 119 m 1
 434 69 375 40 320 40 c 0
 230 40 160 120 160 220 c 0
 160 320 250 400 360 400 c 2
 560 400 l 1
 560 80 l 2
 560 -30 470 -120 360 -120 c 0
 288 -120 224 -81 189 -23 c 1
 257 18 l 1
 278 -17 317 -40 360 -40 c 0
 426 -40 480 14 480 80 c 2
 480 119 l 1
240 220 m 0
 240 164 274 120 320 120 c 0
 386 120 480 220 480 220 c 1
 480 320 l 1
 360 320 l 2
 294 320 240 276 240 220 c 0
EndSplineSet
Validated: 1
EndChar

StartChar: Hcircumflex
Encoding: 292 292 228
Width: 720
VWidth: 0
Flags: HMW
LayerCount: 2
Fore
SplineSet
160 400 m 1
 240 400 l 1
 240 240 l 1
 480 240 l 1
 480 400 l 1
 560 400 l 1
 560 0 l 1
 480 0 l 1
 480 160 l 1
 240 160 l 1
 240 0 l 1
 160 0 l 1
 160 400 l 1
268 443 m 1
 212 499 l 1
 360 648 l 1
 508 499 l 1
 452 443 l 1
 360 534 l 1
 268 443 l 1
EndSplineSet
Validated: 1
EndChar

StartChar: hcircumflex
Encoding: 293 293 229
Width: 720
VWidth: 0
Flags: HM
LayerCount: 2
Fore
SplineSet
240 221 m 1
 286 271 345 320 400 320 c 0
 490 320 560 230 560 120 c 2
 560 0 l 1
 480 0 l 1
 480 120 l 2
 480 186 446 240 400 240 c 0
 334 240 240 120 240 120 c 1
 240 0 l 1
 160 0 l 1
 160 400 l 1
 240 400 l 1
 240 221 l 1
268 443 m 1
 212 499 l 1
 360 648 l 1
 508 499 l 1
 452 443 l 1
 360 534 l 1
 268 443 l 1
EndSplineSet
Validated: 1
EndChar

StartChar: Hbar
Encoding: 294 294 230
Width: 720
VWidth: 0
Flags: HMW
LayerCount: 2
Fore
SplineSet
80 480 m 1
 160 480 l 1
 160 400 l 1
 480 400 l 1
 480 480 l 1
 560 480 l 1
 560 400 l 1
 640 400 l 1
 640 320 l 1
 560 320 l 1
 560 0 l 1
 480 0 l 1
 480 200 l 1
 160 200 l 1
 160 0 l 1
 80 0 l 1
 80 320 l 1
 0 320 l 1
 0 400 l 1
 80 400 l 1
 80 480 l 1
160 320 m 1
 160 280 l 1
 480 280 l 1
 480 320 l 1
 160 320 l 1
EndSplineSet
Validated: 1
EndChar

StartChar: hbar
Encoding: 295 295 231
Width: 720
VWidth: 0
Flags: HMW
LayerCount: 2
Fore
SplineSet
240 221 m 1
 286 271 345 320 400 320 c 0
 490 320 560 230 560 120 c 2
 560 0 l 1
 480 0 l 1
 480 120 l 2
 480 186 446 240 400 240 c 0
 334 240 240 120 240 120 c 1
 240 0 l 1
 160 0 l 1
 160 360 l 1
 80 360 l 1
 80 440 l 1
 160 440 l 1
 160 520 l 1
 240 520 l 1
 240 440 l 1
 320 440 l 1
 320 360 l 1
 240 360 l 1
 240 221 l 1
EndSplineSet
Validated: 1
EndChar

StartChar: Itilde
Encoding: 296 296 232
Width: 720
VWidth: 0
Flags: HMW
LayerCount: 2
Fore
SplineSet
340 472 m 0
 327 479 314 483 300 483 c 0
 273 483 246 468 231 443 c 1
 161 483 l 1
 191 534 245 563 301 563 c 0
 328 563 355 556 380 542 c 0
 393 535 406 531 420 531 c 0
 447 531 474 546 489 571 c 1
 559 531 l 1
 529 480 475 451 419 451 c 0
 392 451 365 458 340 472 c 0
240 400 m 25
 480 400 l 25
 480 320 l 25
 400 320 l 25
 400 80 l 25
 480 80 l 25
 480 0 l 25
 240 0 l 25
 240 80 l 25
 320 80 l 25
 320 320 l 25
 240 320 l 25
 240 400 l 25
EndSplineSet
Validated: 1
EndChar

StartChar: itilde
Encoding: 297 297 233
Width: 720
VWidth: 0
Flags: HM
LayerCount: 2
Fore
SplineSet
160 400 m 1
 400 400 l 1
 400 80 l 1
 560 80 l 1
 560 0 l 1
 160 0 l 1
 160 80 l 1
 320 80 l 1
 320 320 l 1
 160 320 l 1
 160 400 l 1
340 472 m 0
 327 479 314 483 300 483 c 0
 273 483 246 468 231 443 c 1
 161 483 l 1
 191 534 245 563 301 563 c 0
 328 563 355 556 380 542 c 0
 393 535 406 531 420 531 c 0
 447 531 474 546 489 571 c 1
 559 531 l 1
 529 480 475 451 419 451 c 0
 392 451 365 458 340 472 c 0
EndSplineSet
Validated: 1
EndChar

StartChar: Imacron
Encoding: 298 298 234
Width: 720
VWidth: 0
Flags: HMW
LayerCount: 2
Fore
SplineSet
240 523 m 1
 480 523 l 1
 480 443 l 1
 240 443 l 1
 240 523 l 1
240 400 m 29
 480 400 l 29
 480 320 l 29
 400 320 l 29
 400 80 l 29
 480 80 l 29
 480 0 l 29
 240 0 l 29
 240 80 l 29
 320 80 l 29
 320 320 l 29
 240 320 l 29
 240 400 l 29
EndSplineSet
Validated: 1
EndChar

StartChar: imacron
Encoding: 299 299 235
Width: 720
VWidth: 0
Flags: HM
LayerCount: 2
Fore
SplineSet
160 400 m 1
 400 400 l 1
 400 80 l 1
 560 80 l 1
 560 0 l 1
 160 0 l 1
 160 80 l 1
 320 80 l 1
 320 320 l 1
 160 320 l 1
 160 400 l 1
240 523 m 1
 480 523 l 1
 480 443 l 1
 240 443 l 1
 240 523 l 1
EndSplineSet
Validated: 1
EndChar

StartChar: Ibreve
Encoding: 300 300 236
Width: 720
VWidth: 0
Flags: HMW
LayerCount: 2
Fore
SplineSet
440 563 m 1
 520 563 l 1
 520 497 448 443 360 443 c 0
 272 443 200 497 200 563 c 1
 280 563 l 1
 280 541 316 523 360 523 c 0
 404 523 440 541 440 563 c 1
240 400 m 29
 480 400 l 29
 480 320 l 29
 400 320 l 29
 400 80 l 29
 480 80 l 29
 480 0 l 29
 240 0 l 29
 240 80 l 29
 320 80 l 29
 320 320 l 29
 240 320 l 29
 240 400 l 29
EndSplineSet
Validated: 1
EndChar

StartChar: ibreve
Encoding: 301 301 237
Width: 720
VWidth: 0
Flags: HM
LayerCount: 2
Fore
SplineSet
160 400 m 1
 400 400 l 1
 400 80 l 1
 560 80 l 1
 560 0 l 1
 160 0 l 1
 160 80 l 1
 320 80 l 1
 320 320 l 1
 160 320 l 1
 160 400 l 1
440 563 m 1
 520 563 l 1
 520 497 448 443 360 443 c 0
 272 443 200 497 200 563 c 1
 280 563 l 1
 280 541 316 523 360 523 c 0
 404 523 440 541 440 563 c 1
EndSplineSet
Validated: 1
EndChar

StartChar: Iogonek
Encoding: 302 302 238
Width: 720
VWidth: 0
Flags: HM
LayerCount: 2
Fore
SplineSet
240 480 m 1
 480 480 l 1
 480 400 l 1
 400 400 l 1
 400 80 l 1
 480 80 l 1
 480 0 l 1
 429 0 l 1
 441 -12 l 1
 407 -46 l 1
 403 -52 400 -60 400 -68 c 0
 400 -90 418 -108 440 -108 c 0
 451 -108 461 -103 468 -96 c 1
 525 -153 l 1
 503 -175 473 -188 440 -188 c 0
 374 -188 320 -134 320 -68 c 0
 320 -50 324 -32 331 -16 c 1
 315 0 l 1
 240 0 l 1
 240 80 l 1
 320 80 l 1
 320 400 l 1
 240 400 l 1
 240 480 l 1
EndSplineSet
Validated: 1
EndChar

StartChar: iogonek
Encoding: 303 303 239
Width: 720
VWidth: 0
Flags: HM
LayerCount: 2
Fore
SplineSet
320 -68 m 0
 320 -50 324 -32 331 -16 c 1
 315 0 l 1
 160 0 l 1
 160 80 l 1
 320 80 l 1
 320 320 l 1
 160 320 l 1
 160 400 l 1
 400 400 l 1
 400 80 l 1
 560 80 l 1
 560 0 l 1
 429 0 l 1
 441 -12 l 1
 407 -46 l 1
 403 -52 400 -60 400 -68 c 0
 400 -90 418 -108 440 -108 c 0
 451 -108 461 -103 468 -96 c 1
 525 -153 l 1
 503 -175 473 -188 440 -188 c 0
 374 -188 320 -134 320 -68 c 0
320 560 m 1
 400 560 l 1
 400 480 l 1
 320 480 l 1
 320 560 l 1
EndSplineSet
Validated: 1
EndChar

StartChar: Idotaccent
Encoding: 304 304 240
Width: 720
VWidth: 0
Flags: HMW
LayerCount: 2
Fore
SplineSet
240 400 m 25
 480 400 l 25
 480 320 l 25
 400 320 l 25
 400 80 l 25
 480 80 l 25
 480 0 l 25
 240 0 l 25
 240 80 l 25
 320 80 l 25
 320 320 l 25
 240 320 l 25
 240 400 l 25
320 523 m 25
 400 523 l 25
 400 443 l 25
 320 443 l 25
 320 523 l 25
EndSplineSet
Validated: 1
EndChar

StartChar: dotlessi
Encoding: 305 305 241
Width: 720
VWidth: 0
Flags: MW
LayerCount: 2
Fore
SplineSet
160 400 m 1
 400 400 l 1
 400 80 l 1
 560 80 l 1
 560 0 l 1
 160 0 l 1
 160 80 l 1
 320 80 l 1
 320 320 l 1
 160 320 l 1
 160 400 l 1
EndSplineSet
Validated: 1
EndChar

StartChar: IJ
Encoding: 306 306 242
Width: 720
VWidth: 0
Flags: HMW
LayerCount: 2
Fore
SplineSet
80 480 m 1
 320 480 l 1
 320 400 l 1
 240 400 l 1
 240 80 l 1
 360 80 l 2
 426 80 480 134 480 200 c 2
 480 400 l 1
 400 400 l 1
 400 480 l 1
 640 480 l 1
 640 400 l 1
 560 400 l 1
 560 200 l 2
 560 90 470 0 360 0 c 2
 80 0 l 1
 80 80 l 1
 160 80 l 1
 160 400 l 1
 80 400 l 1
 80 480 l 1
EndSplineSet
Validated: 1
EndChar

StartChar: ij
Encoding: 307 307 243
Width: 720
VWidth: 0
Flags: HMW
LayerCount: 2
Fore
SplineSet
160 400 m 1
 320 400 l 1
 320 80 l 1
 400 80 l 1
 400 0 l 1
 270 0 l 1
 292 -25 325 -40 360 -40 c 0
 426 -40 480 14 480 80 c 2
 480 400 l 1
 560 400 l 1
 560 80 l 2
 560 -30 470 -120 360 -120 c 0
 288 -120 224 -81 189 -23 c 1
 227 0 l 1
 160 0 l 1
 160 80 l 1
 240 80 l 1
 240 320 l 1
 160 320 l 1
 160 400 l 1
240 560 m 1
 320 560 l 1
 320 480 l 1
 240 480 l 1
 240 560 l 1
480 560 m 1
 560 560 l 1
 560 480 l 1
 480 480 l 1
 480 560 l 1
EndSplineSet
Validated: 1
EndChar

StartChar: Jcircumflex
Encoding: 308 308 244
Width: 720
VWidth: 0
Flags: HMW
LayerCount: 2
Fore
SplineSet
480 160 m 2
 480 72 408 0 320 0 c 0
 241 0 175 58 162 134 c 1
 241 147 l 1
 247 109 280 80 320 80 c 0
 364 80 400 116 400 160 c 2
 400 320 l 1
 320 320 l 1
 320 400 l 1
 560 400 l 1
 560 320 l 1
 480 320 l 1
 480 160 l 2
348 443 m 1
 292 499 l 1
 440 648 l 1
 588 499 l 1
 532 443 l 1
 440 534 l 1
 348 443 l 1
EndSplineSet
Validated: 1
EndChar

StartChar: jcircumflex
Encoding: 309 309 245
Width: 720
VWidth: 0
Flags: HM
LayerCount: 2
Fore
SplineSet
308 28 m 1
 301 35 291 40 280 40 c 0
 258 40 240 22 240 0 c 0
 240 -32 284 -40 350 -40 c 0
 416 -40 480 14 480 80 c 2
 480 400 l 1
 560 400 l 1
 560 80 l 2
 560 -30 460 -120 350 -120 c 0
 240 -120 160 -76 160 0 c 0
 160 66 214 120 280 120 c 0
 313 120 343 107 365 85 c 1
 308 28 l 1
428 443 m 1
 372 499 l 1
 520 648 l 1
 668 499 l 1
 612 443 l 1
 520 534 l 1
 428 443 l 1
EndSplineSet
Validated: 1
EndChar

StartChar: uni0136
Encoding: 310 310 246
Width: 720
VWidth: 0
Flags: HM
LayerCount: 2
Fore
SplineSet
80 480 m 1
 160 480 l 1
 160 216 l 1
 424 480 l 1
 536 480 l 1
 336 280 l 1
 616 0 l 1
 504 0 l 1
 280 224 l 1
 160 104 l 1
 160 0 l 1
 80 0 l 1
 80 480 l 1
388 -43 m 1
 445 -100 l 1
 308 -237 l 1
 251 -180 l 1
 388 -43 l 1
EndSplineSet
Validated: 1
EndChar

StartChar: uni0137
Encoding: 311 311 247
Width: 720
VWidth: 0
Flags: HM
LayerCount: 2
Fore
SplineSet
160 520 m 1
 240 520 l 1
 240 217 l 1
 423 400 l 1
 537 400 l 1
 377 240 l 1
 617 0 l 1
 503 0 l 1
 320 183 l 1
 240 103 l 1
 240 0 l 1
 160 0 l 1
 160 520 l 1
428 -43 m 1
 486 -100 l 1
 348 -237 l 1
 292 -180 l 1
 428 -43 l 1
EndSplineSet
Validated: 1
EndChar

StartChar: kgreenlandic
Encoding: 312 312 248
Width: 720
VWidth: 0
Flags: HMW
LayerCount: 2
Fore
SplineSet
160 400 m 1
 240 400 l 1
 240 217 l 1
 423 400 l 1
 537 400 l 1
 377 240 l 1
 617 0 l 1
 503 0 l 1
 320 183 l 1
 240 103 l 1
 240 0 l 1
 160 0 l 1
 160 400 l 1
EndSplineSet
Validated: 1
EndChar

StartChar: Lacute
Encoding: 313 313 249
Width: 720
VWidth: 0
Flags: HMW
LayerCount: 2
Fore
SplineSet
160 400 m 25
 240 400 l 25
 240 80 l 25
 560 80 l 25
 560 0 l 25
 160 0 l 25
 160 400 l 25
304 499 m 1
 452 648 l 1
 509 591 l 1
 360 443 l 1
 304 499 l 1
EndSplineSet
Validated: 1
EndChar

StartChar: lacute
Encoding: 314 314 250
Width: 720
VWidth: 0
Flags: HM
LayerCount: 2
Fore
SplineSet
160 400 m 1
 400 400 l 1
 400 80 l 1
 560 80 l 1
 560 0 l 1
 160 0 l 1
 160 80 l 1
 320 80 l 1
 320 320 l 1
 160 320 l 1
 160 400 l 1
304 499 m 1
 452 648 l 1
 509 591 l 1
 360 443 l 1
 304 499 l 1
EndSplineSet
Validated: 1
EndChar

StartChar: uni013B
Encoding: 315 315 251
Width: 720
VWidth: 0
Flags: HM
LayerCount: 2
Fore
SplineSet
80 480 m 25
 160 480 l 25
 160 80 l 25
 560 80 l 25
 560 0 l 25
 80 0 l 25
 80 480 l 25
360 -43 m 1
 417 -100 l 1
 280 -237 l 1
 223 -180 l 1
 360 -43 l 1
EndSplineSet
Validated: 1
EndChar

StartChar: uni013C
Encoding: 316 316 252
Width: 720
VWidth: 0
Flags: HM
LayerCount: 2
Fore
SplineSet
160 520 m 1
 400 520 l 1
 400 80 l 1
 560 80 l 1
 560 0 l 1
 160 0 l 1
 160 80 l 1
 320 80 l 1
 320 440 l 1
 160 440 l 1
 160 520 l 1
400 -43 m 1
 457 -100 l 1
 320 -237 l 1
 263 -180 l 1
 400 -43 l 1
EndSplineSet
Validated: 1
EndChar

StartChar: Lcaron
Encoding: 317 317 253
Width: 720
VWidth: 0
Flags: HMW
LayerCount: 2
Fore
SplineSet
80 480 m 25
 160 480 l 25
 160 80 l 25
 560 80 l 25
 560 0 l 25
 80 0 l 25
 80 480 l 25
442 480 m 1
 498 423 l 1
 362 286 l 1
 304 343 l 1
 442 480 l 1
EndSplineSet
Validated: 1
EndChar

StartChar: lcaron
Encoding: 318 318 254
Width: 720
VWidth: 0
Flags: HMW
LayerCount: 2
Fore
SplineSet
160 520 m 1
 400 520 l 1
 400 80 l 1
 560 80 l 1
 560 0 l 1
 160 0 l 1
 160 80 l 1
 320 80 l 1
 320 440 l 1
 160 440 l 1
 160 520 l 1
562 520 m 1
 618 463 l 1
 482 326 l 1
 424 383 l 1
 562 520 l 1
EndSplineSet
Validated: 1
EndChar

StartChar: Ldot
Encoding: 319 319 255
Width: 720
VWidth: 0
Flags: HMW
LayerCount: 2
Fore
SplineSet
270 290 m 0
 270 318 292 340 320 340 c 0
 348 340 370 318 370 290 c 0
 370 262 348 240 320 240 c 0
 292 240 270 262 270 290 c 0
80 480 m 25
 160 480 l 25
 160 80 l 25
 560 80 l 25
 560 0 l 25
 80 0 l 25
 80 480 l 25
EndSplineSet
Validated: 1
EndChar

StartChar: ldot
Encoding: 320 320 256
Width: 720
VWidth: 0
Flags: HMW
LayerCount: 2
Fore
SplineSet
510 290 m 0
 510 318 532 340 560 340 c 0
 588 340 610 318 610 290 c 0
 610 262 588 240 560 240 c 0
 532 240 510 262 510 290 c 0
160 520 m 1
 400 520 l 1
 400 80 l 1
 560 80 l 1
 560 0 l 1
 160 0 l 1
 160 80 l 1
 320 80 l 1
 320 440 l 1
 160 440 l 1
 160 520 l 1
EndSplineSet
Validated: 1
EndChar

StartChar: Lslash
Encoding: 321 321 257
Width: 720
VWidth: 0
Flags: HMW
LayerCount: 2
Fore
SplineSet
160 480 m 1
 240 480 l 1
 240 376 l 1
 292 428 l 1
 348 372 l 1
 240 264 l 1
 240 80 l 1
 560 80 l 1
 560 0 l 1
 160 0 l 1
 160 184 l 1
 108 132 l 1
 52 188 l 1
 160 296 l 1
 160 480 l 1
EndSplineSet
Validated: 1
EndChar

StartChar: lslash
Encoding: 322 322 258
Width: 720
VWidth: 0
Flags: HMW
LayerCount: 2
Fore
SplineSet
160 520 m 1
 400 520 l 1
 400 376 l 1
 452 428 l 1
 508 372 l 1
 400 264 l 1
 400 80 l 1
 560 80 l 1
 560 0 l 1
 160 0 l 1
 160 80 l 1
 320 80 l 1
 320 184 l 1
 268 132 l 1
 212 188 l 1
 320 296 l 1
 320 440 l 1
 160 440 l 1
 160 520 l 1
EndSplineSet
Validated: 1
EndChar

StartChar: Nacute
Encoding: 323 323 259
Width: 720
VWidth: 0
Flags: HMW
LayerCount: 2
Fore
SplineSet
304 499 m 1
 452 648 l 1
 509 591 l 1
 360 443 l 1
 304 499 l 1
160 0 m 1
 160 400 l 1
 216 400 l 1
 480 136 l 1
 480 400 l 1
 560 400 l 1
 560 0 l 1
 504 0 l 1
 240 264 l 1
 240 0 l 1
 160 0 l 1
EndSplineSet
Validated: 1
EndChar

StartChar: nacute
Encoding: 324 324 260
Width: 720
VWidth: 0
Flags: HM
LayerCount: 2
Fore
SplineSet
240 301 m 1
 286 351 345 400 400 400 c 0
 490 400 560 310 560 200 c 2
 560 0 l 1
 480 0 l 1
 480 200 l 2
 480 266 446 320 400 320 c 0
 334 320 240 200 240 200 c 1
 240 0 l 1
 160 0 l 1
 160 400 l 1
 240 400 l 1
 240 301 l 1
304 499 m 1
 452 648 l 1
 509 591 l 1
 360 443 l 1
 304 499 l 1
EndSplineSet
Validated: 1
EndChar

StartChar: uni0145
Encoding: 325 325 261
Width: 720
VWidth: 0
Flags: HM
LayerCount: 2
Fore
SplineSet
80 0 m 1
 80 480 l 1
 136 480 l 1
 480 136 l 1
 480 480 l 1
 560 480 l 1
 560 0 l 1
 504 0 l 1
 160 344 l 1
 160 0 l 1
 80 0 l 1
360 -43 m 5
 417 -100 l 5
 280 -237 l 5
 223 -180 l 5
 360 -43 l 5
EndSplineSet
Validated: 1
EndChar

StartChar: uni0146
Encoding: 326 326 262
Width: 720
VWidth: 0
Flags: HM
LayerCount: 2
Fore
SplineSet
240 301 m 1
 286 351 345 400 400 400 c 0
 490 400 560 310 560 200 c 2
 560 0 l 1
 480 0 l 1
 480 200 l 2
 480 266 446 320 400 320 c 0
 334 320 240 200 240 200 c 1
 240 0 l 1
 160 0 l 1
 160 400 l 1
 240 400 l 1
 240 301 l 1
400 -43 m 1
 457 -100 l 1
 320 -237 l 1
 263 -180 l 1
 400 -43 l 1
EndSplineSet
Validated: 1
EndChar

StartChar: Ncaron
Encoding: 327 327 263
Width: 720
VWidth: 0
Flags: HMW
LayerCount: 2
Fore
SplineSet
452 648 m 1
 508 592 l 1
 360 443 l 1
 212 592 l 1
 268 648 l 1
 360 557 l 1
 452 648 l 1
160 0 m 5
 160 400 l 5
 216 400 l 5
 480 136 l 5
 480 400 l 5
 560 400 l 5
 560 0 l 5
 504 0 l 5
 240 264 l 5
 240 0 l 5
 160 0 l 5
EndSplineSet
Validated: 1
EndChar

StartChar: ncaron
Encoding: 328 328 264
Width: 720
VWidth: 0
Flags: HM
LayerCount: 2
Fore
SplineSet
240 301 m 1
 286 351 345 400 400 400 c 0
 490 400 560 310 560 200 c 2
 560 0 l 1
 480 0 l 1
 480 200 l 2
 480 266 446 320 400 320 c 0
 334 320 240 200 240 200 c 1
 240 0 l 1
 160 0 l 1
 160 400 l 1
 240 400 l 1
 240 301 l 1
452 648 m 1
 508 592 l 1
 360 443 l 1
 212 592 l 1
 268 648 l 1
 360 557 l 1
 452 648 l 1
EndSplineSet
Validated: 1
EndChar

StartChar: napostrophe
Encoding: 329 329 265
Width: 720
VWidth: 0
Flags: HMW
LayerCount: 2
Fore
SplineSet
80 360 m 1
 80 480 l 1
 160 480 l 1
 160 280 l 1
 0 280 l 1
 0 360 l 1
 80 360 l 1
320 301 m 1
 366 351 425 400 480 400 c 0
 570 400 640 310 640 200 c 2
 640 0 l 1
 560 0 l 1
 560 200 l 2
 560 266 526 320 480 320 c 0
 414 320 320 200 320 200 c 1
 320 0 l 1
 240 0 l 1
 240 400 l 1
 320 400 l 1
 320 301 l 1
EndSplineSet
Validated: 1
EndChar

StartChar: Eng
Encoding: 330 330 266
Width: 720
VWidth: 0
Flags: HMW
LayerCount: 2
Fore
SplineSet
80 40 m 1
 80 480 l 1
 136 480 l 1
 480 136 l 1
 480 480 l 1
 560 480 l 1
 560 80 l 2
 560 -30 470 -120 360 -120 c 0
 288 -120 224 -81 189 -23 c 1
 257 18 l 1
 278 -17 317 -40 360 -40 c 0
 410 -40 453 -10 471 33 c 1
 160 344 l 1
 160 40 l 1
 80 40 l 1
EndSplineSet
Validated: 1
EndChar

StartChar: eng
Encoding: 331 331 267
Width: 720
VWidth: 0
Flags: HMW
LayerCount: 2
Fore
SplineSet
240 301 m 1
 286 351 345 400 400 400 c 0
 490 400 560 310 560 200 c 2
 560 80 l 2
 560 -30 470 -120 360 -120 c 0
 288 -120 224 -81 189 -23 c 1
 257 18 l 1
 278 -17 317 -40 360 -40 c 0
 426 -40 480 14 480 80 c 2
 480 200 l 2
 480 266 446 320 400 320 c 0
 334 320 240 200 240 200 c 1
 240 40 l 1
 160 40 l 1
 160 400 l 1
 240 400 l 1
 240 301 l 1
EndSplineSet
Validated: 1
EndChar

StartChar: Omacron
Encoding: 332 332 268
Width: 720
VWidth: 0
Flags: HMW
LayerCount: 2
Fore
SplineSet
240 200 m 0
 240 134 294 80 360 80 c 0
 426 80 480 134 480 200 c 0
 480 266 426 320 360 320 c 0
 294 320 240 266 240 200 c 0
160 200 m 0
 160 310 250 400 360 400 c 0
 470 400 560 310 560 200 c 0
 560 90 470 0 360 0 c 0
 250 0 160 90 160 200 c 0
240 523 m 1
 480 523 l 1
 480 443 l 1
 240 443 l 1
 240 523 l 1
EndSplineSet
Validated: 1
EndChar

StartChar: omacron
Encoding: 333 333 269
Width: 720
VWidth: 0
Flags: HM
LayerCount: 2
Fore
SplineSet
240 200 m 0
 240 134 294 80 360 80 c 0
 426 80 480 134 480 200 c 0
 480 266 426 320 360 320 c 0
 294 320 240 266 240 200 c 0
160 200 m 0
 160 310 250 400 360 400 c 0
 470 400 560 310 560 200 c 0
 560 90 470 0 360 0 c 0
 250 0 160 90 160 200 c 0
240 523 m 1
 480 523 l 1
 480 443 l 1
 240 443 l 1
 240 523 l 1
EndSplineSet
Validated: 1
EndChar

StartChar: Obreve
Encoding: 334 334 270
Width: 720
VWidth: 0
Flags: HMW
LayerCount: 2
Fore
SplineSet
240 200 m 0
 240 134 294 80 360 80 c 0
 426 80 480 134 480 200 c 0
 480 266 426 320 360 320 c 0
 294 320 240 266 240 200 c 0
160 200 m 0
 160 310 250 400 360 400 c 0
 470 400 560 310 560 200 c 0
 560 90 470 0 360 0 c 0
 250 0 160 90 160 200 c 0
440 563 m 1
 520 563 l 1
 520 497 448 443 360 443 c 0
 272 443 200 497 200 563 c 1
 280 563 l 1
 280 541 316 523 360 523 c 0
 404 523 440 541 440 563 c 1
EndSplineSet
Validated: 1
EndChar

StartChar: obreve
Encoding: 335 335 271
Width: 720
VWidth: 0
Flags: HM
LayerCount: 2
Fore
SplineSet
240 200 m 0
 240 134 294 80 360 80 c 0
 426 80 480 134 480 200 c 0
 480 266 426 320 360 320 c 0
 294 320 240 266 240 200 c 0
160 200 m 0
 160 310 250 400 360 400 c 0
 470 400 560 310 560 200 c 0
 560 90 470 0 360 0 c 0
 250 0 160 90 160 200 c 0
440 563 m 1
 520 563 l 1
 520 497 448 443 360 443 c 0
 272 443 200 497 200 563 c 1
 280 563 l 1
 280 541 316 523 360 523 c 0
 404 523 440 541 440 563 c 1
EndSplineSet
Validated: 1
EndChar

StartChar: Ohungarumlaut
Encoding: 336 336 272
Width: 720
VWidth: 0
Flags: HMW
LayerCount: 2
Fore
SplineSet
240 200 m 0
 240 134 294 80 360 80 c 0
 426 80 480 134 480 200 c 0
 480 266 426 320 360 320 c 0
 294 320 240 266 240 200 c 0
160 200 m 0
 160 310 250 400 360 400 c 0
 470 400 560 310 560 200 c 0
 560 90 470 0 360 0 c 0
 250 0 160 90 160 200 c 0
184 499 m 1
 332 648 l 1
 389 591 l 1
 240 443 l 1
 184 499 l 1
424 499 m 1
 572 648 l 1
 629 591 l 1
 480 443 l 1
 424 499 l 1
EndSplineSet
Validated: 1
EndChar

StartChar: ohungarumlaut
Encoding: 337 337 273
Width: 720
VWidth: 0
Flags: HM
LayerCount: 2
Fore
SplineSet
240 200 m 0
 240 134 294 80 360 80 c 0
 426 80 480 134 480 200 c 0
 480 266 426 320 360 320 c 0
 294 320 240 266 240 200 c 0
160 200 m 0
 160 310 250 400 360 400 c 0
 470 400 560 310 560 200 c 0
 560 90 470 0 360 0 c 0
 250 0 160 90 160 200 c 0
184 499 m 1
 332 648 l 1
 389 591 l 1
 240 443 l 1
 184 499 l 1
424 499 m 1
 572 648 l 1
 629 591 l 1
 480 443 l 1
 424 499 l 1
EndSplineSet
Validated: 1
EndChar

StartChar: OE
Encoding: 338 338 274
Width: 720
VWidth: 0
Flags: HMW
LayerCount: 2
Fore
SplineSet
400 400 m 1
 400 300 l 1
 520 300 l 1
 520 220 l 1
 400 220 l 1
 400 80 l 1
 560 80 l 1
 560 0 l 1
 320 0 l 2
 188 0 80 108 80 240 c 0
 80 372 188 480 320 480 c 2
 560 480 l 1
 560 400 l 1
 400 400 l 1
320 400 m 1
 232 400 160 328 160 240 c 0
 160 152 232 80 320 80 c 1
 320 400 l 1
EndSplineSet
Validated: 1
EndChar

StartChar: oe
Encoding: 339 339 275
Width: 720
VWidth: 0
Flags: HMW
LayerCount: 2
Fore
SplineSet
553 240 m 1
 553 240 532 320 480 320 c 0
 428 320 407 240 407 240 c 1
 553 240 l 1
80 200 m 0
 80 310 150 400 240 400 c 0
 288 400 331 374 360 333 c 1
 389 374 432 400 480 400 c 0
 570 400 640 310 640 200 c 2
 640 160 l 1
 407 160 l 1
 407 160 428 80 480 80 c 2
 600 80 l 1
 600 0 l 1
 480 0 l 2
 432 0 389 26 360 67 c 1
 331 26 288 0 240 0 c 0
 150 0 80 90 80 200 c 0
160 200 m 0
 160 134 194 80 240 80 c 0
 286 80 320 134 320 200 c 0
 320 266 286 320 240 320 c 0
 194 320 160 266 160 200 c 0
EndSplineSet
Validated: 1
EndChar

StartChar: Racute
Encoding: 340 340 276
Width: 720
VWidth: 0
Flags: HMW
LayerCount: 2
Fore
SplineSet
284 499 m 1
 432 648 l 1
 489 591 l 1
 340 443 l 1
 284 499 l 1
400 400 m 2
 488 400 560 348 560 280 c 0
 560 216 496 167 415 161 c 1
 576 0 l 1
 464 0 l 1
 304 160 l 1
 240 160 l 1
 240 0 l 1
 160 0 l 1
 160 400 l 1
 400 400 l 2
240 320 m 1
 240 240 l 1
 400 240 l 2
 444 240 480 256 480 280 c 0
 480 304 444 320 400 320 c 2
 240 320 l 1
EndSplineSet
Validated: 1
EndChar

StartChar: racute
Encoding: 341 341 277
Width: 720
VWidth: 0
Flags: HM
LayerCount: 2
Fore
SplineSet
400 320 m 18
 334 320 240 200 240 200 c 1
 240 0 l 1
 160 0 l 1
 160 400 l 1
 240 400 l 1
 240 301 l 1
 286 351 345 400 400 400 c 10
 520 400 l 1
 520 320 l 1
 400 320 l 18
284 499 m 1
 432 648 l 1
 489 591 l 1
 340 443 l 1
 284 499 l 1
EndSplineSet
Validated: 1
EndChar

StartChar: uni0156
Encoding: 342 342 278
Width: 720
VWidth: 0
Flags: HM
LayerCount: 2
Fore
SplineSet
400 480 m 2
 488 480 560 408 560 320 c 0
 560 237 496 169 415 161 c 1
 576 0 l 1
 464 0 l 1
 304 160 l 1
 160 160 l 1
 160 0 l 1
 80 0 l 1
 80 480 l 1
 400 480 l 2
160 400 m 1
 160 240 l 1
 400 240 l 2
 444 240 480 276 480 320 c 0
 480 364 444 400 400 400 c 2
 160 400 l 1
368 -43 m 1
 425 -100 l 1
 288 -237 l 1
 231 -180 l 1
 368 -43 l 1
EndSplineSet
Validated: 1
EndChar

StartChar: uni0157
Encoding: 343 343 279
Width: 720
VWidth: 0
Flags: HM
LayerCount: 2
Fore
SplineSet
400 320 m 18
 334 320 240 200 240 200 c 1
 240 0 l 1
 160 0 l 1
 160 400 l 1
 240 400 l 1
 240 301 l 1
 286 351 345 400 400 400 c 10
 520 400 l 1
 520 320 l 1
 400 320 l 18
240 -43 m 1
 297 -100 l 1
 160 -237 l 1
 103 -180 l 1
 240 -43 l 1
EndSplineSet
Validated: 1
EndChar

StartChar: Rcaron
Encoding: 344 344 280
Width: 720
VWidth: 0
Flags: HMW
LayerCount: 2
Fore
SplineSet
432 648 m 1
 488 592 l 1
 340 443 l 1
 192 592 l 1
 248 648 l 1
 340 557 l 1
 432 648 l 1
400 400 m 2
 488 400 560 348 560 280 c 0
 560 216 496 167 415 161 c 1
 576 0 l 1
 464 0 l 1
 304 160 l 1
 240 160 l 1
 240 0 l 1
 160 0 l 1
 160 400 l 1
 400 400 l 2
240 320 m 1
 240 240 l 1
 400 240 l 2
 444 240 480 256 480 280 c 0
 480 304 444 320 400 320 c 2
 240 320 l 1
EndSplineSet
Validated: 1
EndChar

StartChar: rcaron
Encoding: 345 345 281
Width: 720
VWidth: 0
Flags: HM
LayerCount: 2
Fore
SplineSet
400 320 m 18
 334 320 240 200 240 200 c 1
 240 0 l 1
 160 0 l 1
 160 400 l 1
 240 400 l 1
 240 301 l 1
 286 351 345 400 400 400 c 10
 520 400 l 1
 520 320 l 1
 400 320 l 18
432 648 m 1
 488 592 l 1
 340 443 l 1
 192 592 l 1
 248 648 l 1
 340 557 l 1
 432 648 l 1
EndSplineSet
Validated: 1
EndChar

StartChar: Sacute
Encoding: 346 346 282
Width: 720
VWidth: 0
Flags: HMW
LayerCount: 2
Fore
SplineSet
520 400 m 1
 520 320 l 1
 280 320 l 2
 258 320 240 302 240 280 c 0
 240 258 258 240 280 240 c 2
 440 240 l 2
 506 240 560 186 560 120 c 0
 560 54 506 0 440 0 c 2
 160 0 l 1
 160 80 l 1
 440 80 l 2
 462 80 480 98 480 120 c 0
 480 142 462 160 440 160 c 2
 280 160 l 2
 214 160 160 214 160 280 c 0
 160 346 214 400 280 400 c 2
 520 400 l 1
304 499 m 1
 452 648 l 1
 509 591 l 1
 360 443 l 1
 304 499 l 1
EndSplineSet
Validated: 1
EndChar

StartChar: sacute
Encoding: 347 347 283
Width: 720
VWidth: 0
Flags: HM
LayerCount: 2
Fore
SplineSet
520 400 m 1
 520 320 l 1
 280 320 l 2
 258 320 240 302 240 280 c 0
 240 258 258 240 280 240 c 2
 440 240 l 2
 506 240 560 186 560 120 c 0
 560 54 506 0 440 0 c 2
 160 0 l 1
 160 80 l 1
 440 80 l 2
 462 80 480 98 480 120 c 0
 480 142 462 160 440 160 c 2
 280 160 l 2
 214 160 160 214 160 280 c 0
 160 346 214 400 280 400 c 2
 520 400 l 1
304 499 m 1
 452 648 l 1
 509 591 l 1
 360 443 l 1
 304 499 l 1
EndSplineSet
Validated: 1
EndChar

StartChar: Scircumflex
Encoding: 348 348 284
Width: 720
VWidth: 0
Flags: HMW
LayerCount: 2
Fore
SplineSet
520 400 m 1
 520 320 l 1
 280 320 l 2
 258 320 240 302 240 280 c 0
 240 258 258 240 280 240 c 2
 440 240 l 2
 506 240 560 186 560 120 c 0
 560 54 506 0 440 0 c 2
 160 0 l 1
 160 80 l 1
 440 80 l 2
 462 80 480 98 480 120 c 0
 480 142 462 160 440 160 c 2
 280 160 l 2
 214 160 160 214 160 280 c 0
 160 346 214 400 280 400 c 2
 520 400 l 1
268 443 m 1
 212 499 l 1
 360 648 l 1
 508 499 l 1
 452 443 l 1
 360 534 l 1
 268 443 l 1
EndSplineSet
Validated: 1
EndChar

StartChar: scircumflex
Encoding: 349 349 285
Width: 720
VWidth: 0
Flags: HM
LayerCount: 2
Fore
SplineSet
520 400 m 1
 520 320 l 1
 280 320 l 2
 258 320 240 302 240 280 c 0
 240 258 258 240 280 240 c 2
 440 240 l 2
 506 240 560 186 560 120 c 0
 560 54 506 0 440 0 c 2
 160 0 l 1
 160 80 l 1
 440 80 l 2
 462 80 480 98 480 120 c 0
 480 142 462 160 440 160 c 2
 280 160 l 2
 214 160 160 214 160 280 c 0
 160 346 214 400 280 400 c 2
 520 400 l 1
268 443 m 1
 212 499 l 1
 360 648 l 1
 508 499 l 1
 452 443 l 1
 360 534 l 1
 268 443 l 1
EndSplineSet
Validated: 1
EndChar

StartChar: Scedilla
Encoding: 350 350 286
Width: 720
VWidth: 0
Flags: HM
LayerCount: 2
Fore
SplineSet
360 -68 m 0
 360 -134 306 -188 240 -188 c 0
 207 -188 177 -175 155 -153 c 1
 212 -96 l 1
 219 -103 229 -108 240 -108 c 0
 262 -108 280 -90 280 -68 c 0
 280 -60 277 -52 273 -46 c 1
 239 -12 l 1
 258 6 l 1
 177 23 111 72 80 137 c 1
 164 151 l 1
 193 108 252 80 320 80 c 0
 408 80 480 108 480 140 c 0
 480 202 80 194 80 340 c 0
 80 416 188 480 320 480 c 0
 428 480 521 424 560 343 c 1
 476 329 l 1
 447 372 388 400 320 400 c 0
 232 400 160 372 160 340 c 0
 160 278 560 286 560 140 c 0
 560 74 477 16 368 3 c 1
 349 -16 l 1
 356 -32 360 -50 360 -68 c 0
EndSplineSet
Validated: 1
EndChar

StartChar: scedilla
Encoding: 351 351 287
Width: 720
VWidth: 0
Flags: HM
LayerCount: 2
Fore
SplineSet
340 -68 m 0
 340 -134 286 -188 220 -188 c 0
 187 -188 157 -175 135 -153 c 1
 192 -96 l 1
 199 -103 209 -108 220 -108 c 0
 242 -108 260 -90 260 -68 c 0
 260 -60 257 -52 253 -46 c 1
 219 -12 l 1
 231 0 l 1
 160 0 l 1
 160 80 l 1
 440 80 l 2
 462 80 480 98 480 120 c 0
 480 142 462 160 440 160 c 2
 280 160 l 2
 214 160 160 214 160 280 c 0
 160 346 214 400 280 400 c 2
 520 400 l 1
 520 320 l 1
 280 320 l 2
 258 320 240 302 240 280 c 0
 240 258 258 240 280 240 c 2
 440 240 l 2
 506 240 560 186 560 120 c 0
 560 54 506 0 440 0 c 2
 345 0 l 1
 329 -16 l 1
 336 -32 340 -50 340 -68 c 0
EndSplineSet
Validated: 1
EndChar

StartChar: Scaron
Encoding: 352 352 288
Width: 720
VWidth: 0
Flags: HMW
LayerCount: 2
Fore
SplineSet
520 400 m 1
 520 320 l 1
 280 320 l 2
 258 320 240 302 240 280 c 0
 240 258 258 240 280 240 c 2
 440 240 l 2
 506 240 560 186 560 120 c 0
 560 54 506 0 440 0 c 2
 160 0 l 1
 160 80 l 1
 440 80 l 2
 462 80 480 98 480 120 c 0
 480 142 462 160 440 160 c 2
 280 160 l 2
 214 160 160 214 160 280 c 0
 160 346 214 400 280 400 c 2
 520 400 l 1
452 648 m 1
 508 592 l 1
 360 443 l 1
 212 592 l 1
 268 648 l 1
 360 557 l 1
 452 648 l 1
EndSplineSet
Validated: 1
EndChar

StartChar: scaron
Encoding: 353 353 289
Width: 720
VWidth: 0
Flags: HM
LayerCount: 2
Fore
SplineSet
520 400 m 1
 520 320 l 1
 280 320 l 2
 258 320 240 302 240 280 c 0
 240 258 258 240 280 240 c 2
 440 240 l 2
 506 240 560 186 560 120 c 0
 560 54 506 0 440 0 c 2
 160 0 l 1
 160 80 l 1
 440 80 l 2
 462 80 480 98 480 120 c 0
 480 142 462 160 440 160 c 2
 280 160 l 2
 214 160 160 214 160 280 c 0
 160 346 214 400 280 400 c 2
 520 400 l 1
452 648 m 1
 508 592 l 1
 360 443 l 1
 212 592 l 1
 268 648 l 1
 360 557 l 1
 452 648 l 1
EndSplineSet
Validated: 1
EndChar

StartChar: uni0162
Encoding: 354 354 290
Width: 720
VWidth: 0
Flags: HM
LayerCount: 2
Fore
SplineSet
400 -68 m 0
 400 -134 346 -188 280 -188 c 0
 247 -188 217 -175 195 -153 c 1
 252 -96 l 1
 259 -103 269 -108 280 -108 c 0
 302 -108 320 -90 320 -68 c 0
 320 -60 317 -52 313 -46 c 1
 279 -12 l 1
 320 29 l 1
 320 400 l 1
 120 400 l 1
 120 480 l 1
 600 480 l 1
 600 400 l 1
 400 400 l 1
 400 0 l 1
 389 -16 l 1
 396 -32 400 -50 400 -68 c 0
EndSplineSet
Validated: 1
EndChar

StartChar: uni0163
Encoding: 355 355 291
Width: 720
VWidth: 0
Flags: HM
LayerCount: 2
Fore
SplineSet
580 -68 m 0
 580 -134 526 -188 460 -188 c 0
 427 -188 397 -175 375 -153 c 1
 432 -96 l 1
 439 -103 449 -108 460 -108 c 0
 482 -108 500 -90 500 -68 c 0
 500 -60 497 -52 493 -46 c 1
 459 -12 l 1
 471 0 l 1
 387 5 320 75 320 160 c 2
 320 320 l 1
 160 320 l 1
 160 400 l 1
 320 400 l 1
 320 520 l 1
 400 520 l 1
 400 400 l 1
 560 400 l 1
 560 320 l 1
 400 320 l 1
 400 160 l 2
 400 116 436 80 480 80 c 2
 600 80 l 1
 600 0 l 1
 585 0 l 1
 569 -16 l 1
 576 -32 580 -50 580 -68 c 0
EndSplineSet
Validated: 1
EndChar

StartChar: Tcaron
Encoding: 356 356 292
Width: 720
VWidth: 0
Flags: HM
LayerCount: 2
Fore
SplineSet
452 648 m 1
 508 592 l 1
 360 443 l 1
 212 592 l 1
 268 648 l 1
 360 557 l 1
 452 648 l 1
160 400 m 25
 560 400 l 25
 560 320 l 25
 400 320 l 25
 400 0 l 25
 320 0 l 25
 320 320 l 25
 160 320 l 25
 160 400 l 25
EndSplineSet
Validated: 1
EndChar

StartChar: tcaron
Encoding: 357 357 293
Width: 720
VWidth: 0
Flags: HMW
LayerCount: 2
Fore
SplineSet
240 160 m 2
 240 116 276 80 320 80 c 2
 440 80 l 1
 440 0 l 1
 320 0 l 2
 232 0 160 72 160 160 c 2
 160 320 l 1
 0 320 l 1
 0 400 l 1
 160 400 l 1
 160 520 l 1
 240 520 l 1
 240 400 l 1
 400 400 l 1
 400 320 l 1
 240 320 l 1
 240 160 l 2
602 520 m 1
 658 463 l 1
 522 326 l 1
 464 383 l 1
 602 520 l 1
EndSplineSet
Validated: 1
EndChar

StartChar: Tbar
Encoding: 358 358 294
Width: 720
VWidth: 0
Flags: HMW
LayerCount: 2
Fore
SplineSet
120 480 m 1
 600 480 l 1
 600 400 l 1
 400 400 l 1
 400 320 l 1
 560 320 l 1
 560 240 l 1
 400 240 l 1
 400 0 l 1
 320 0 l 1
 320 240 l 1
 160 240 l 1
 160 320 l 1
 320 320 l 1
 320 400 l 1
 120 400 l 1
 120 480 l 1
EndSplineSet
Validated: 1
EndChar

StartChar: tbar
Encoding: 359 359 295
Width: 720
VWidth: 0
Flags: HMW
LayerCount: 2
Fore
SplineSet
320 160 m 1
 160 160 l 1
 160 240 l 1
 320 240 l 1
 320 320 l 1
 160 320 l 1
 160 400 l 1
 320 400 l 1
 320 520 l 1
 400 520 l 1
 400 400 l 1
 560 400 l 1
 560 320 l 1
 400 320 l 1
 400 240 l 1
 560 240 l 1
 560 160 l 1
 400 160 l 1
 400 116 436 80 480 80 c 2
 600 80 l 1
 600 0 l 1
 480 0 l 2
 392 0 320 72 320 160 c 1
EndSplineSet
Validated: 1
EndChar

StartChar: Utilde
Encoding: 360 360 296
Width: 720
VWidth: 0
Flags: HMW
LayerCount: 2
Fore
SplineSet
340 472 m 0
 327 479 314 483 300 483 c 0
 273 483 246 468 231 443 c 1
 161 483 l 1
 191 534 245 563 301 563 c 0
 328 563 355 556 380 542 c 0
 393 535 406 531 420 531 c 0
 447 531 474 546 489 571 c 1
 559 531 l 1
 529 480 475 451 419 451 c 0
 392 451 365 458 340 472 c 0
160 200 m 6
 160 400 l 5
 240 400 l 5
 240 200 l 6
 240 134 294 80 360 80 c 4
 426 80 480 134 480 200 c 6
 480 400 l 5
 560 400 l 5
 560 200 l 6
 560 90 470 0 360 0 c 4
 250 0 160 90 160 200 c 6
EndSplineSet
Validated: 1
EndChar

StartChar: utilde
Encoding: 361 361 297
Width: 720
VWidth: 0
Flags: HM
LayerCount: 2
Fore
SplineSet
480 99 m 1
 434 49 375 0 320 0 c 0
 230 0 160 90 160 200 c 2
 160 400 l 1
 240 400 l 1
 240 200 l 2
 240 134 274 80 320 80 c 0
 386 80 480 200 480 200 c 1
 480 400 l 1
 560 400 l 1
 560 0 l 1
 480 0 l 1
 480 99 l 1
340 472 m 0
 327 479 314 483 300 483 c 0
 273 483 246 468 231 443 c 1
 161 483 l 1
 191 534 245 563 301 563 c 0
 328 563 355 556 380 542 c 0
 393 535 406 531 420 531 c 0
 447 531 474 546 489 571 c 1
 559 531 l 1
 529 480 475 451 419 451 c 0
 392 451 365 458 340 472 c 0
EndSplineSet
Validated: 1
EndChar

StartChar: Umacron
Encoding: 362 362 298
Width: 720
VWidth: 0
Flags: HMW
LayerCount: 2
Fore
SplineSet
240 523 m 1
 480 523 l 1
 480 443 l 1
 240 443 l 1
 240 523 l 1
160 200 m 2
 160 400 l 1
 240 400 l 1
 240 200 l 2
 240 134 294 80 360 80 c 0
 426 80 480 134 480 200 c 2
 480 400 l 1
 560 400 l 1
 560 200 l 2
 560 90 470 0 360 0 c 0
 250 0 160 90 160 200 c 2
EndSplineSet
Validated: 1
EndChar

StartChar: umacron
Encoding: 363 363 299
Width: 720
VWidth: 0
Flags: HM
LayerCount: 2
Fore
SplineSet
480 99 m 1
 434 49 375 0 320 0 c 0
 230 0 160 90 160 200 c 2
 160 400 l 1
 240 400 l 1
 240 200 l 2
 240 134 274 80 320 80 c 0
 386 80 480 200 480 200 c 1
 480 400 l 1
 560 400 l 1
 560 0 l 1
 480 0 l 1
 480 99 l 1
240 523 m 1
 480 523 l 1
 480 443 l 1
 240 443 l 1
 240 523 l 1
EndSplineSet
Validated: 1
EndChar

StartChar: Ubreve
Encoding: 364 364 300
Width: 720
VWidth: 0
Flags: HMW
LayerCount: 2
Fore
SplineSet
440 563 m 1
 520 563 l 1
 520 497 448 443 360 443 c 0
 272 443 200 497 200 563 c 1
 280 563 l 1
 280 541 316 523 360 523 c 0
 404 523 440 541 440 563 c 1
160 200 m 6
 160 400 l 5
 240 400 l 5
 240 200 l 6
 240 134 294 80 360 80 c 4
 426 80 480 134 480 200 c 6
 480 400 l 5
 560 400 l 5
 560 200 l 6
 560 90 470 0 360 0 c 4
 250 0 160 90 160 200 c 6
EndSplineSet
Validated: 1
EndChar

StartChar: ubreve
Encoding: 365 365 301
Width: 720
VWidth: 0
Flags: HM
LayerCount: 2
Fore
SplineSet
480 99 m 1
 434 49 375 0 320 0 c 0
 230 0 160 90 160 200 c 2
 160 400 l 1
 240 400 l 1
 240 200 l 2
 240 134 274 80 320 80 c 0
 386 80 480 200 480 200 c 1
 480 400 l 1
 560 400 l 1
 560 0 l 1
 480 0 l 1
 480 99 l 1
440 563 m 1
 520 563 l 1
 520 497 448 443 360 443 c 0
 272 443 200 497 200 563 c 1
 280 563 l 1
 280 541 316 523 360 523 c 0
 404 523 440 541 440 563 c 1
EndSplineSet
Validated: 1
EndChar

StartChar: Uring
Encoding: 366 366 302
Width: 720
VWidth: 0
Flags: HMW
LayerCount: 2
Fore
SplineSet
280 563 m 0
 280 541 316 523 360 523 c 0
 404 523 440 541 440 563 c 0
 440 585 404 603 360 603 c 0
 316 603 280 585 280 563 c 0
200 563 m 0
 200 629 272 683 360 683 c 0
 448 683 520 629 520 563 c 0
 520 497 448 443 360 443 c 0
 272 443 200 497 200 563 c 0
160 200 m 6
 160 400 l 5
 240 400 l 5
 240 200 l 6
 240 134 294 80 360 80 c 4
 426 80 480 134 480 200 c 6
 480 400 l 5
 560 400 l 5
 560 200 l 6
 560 90 470 0 360 0 c 4
 250 0 160 90 160 200 c 6
EndSplineSet
Validated: 1
EndChar

StartChar: uring
Encoding: 367 367 303
Width: 720
VWidth: 0
Flags: HM
LayerCount: 2
Fore
SplineSet
480 99 m 1
 434 49 375 0 320 0 c 0
 230 0 160 90 160 200 c 2
 160 400 l 1
 240 400 l 1
 240 200 l 2
 240 134 274 80 320 80 c 0
 386 80 480 200 480 200 c 1
 480 400 l 1
 560 400 l 1
 560 0 l 1
 480 0 l 1
 480 99 l 1
280 563 m 0
 280 541 316 523 360 523 c 0
 404 523 440 541 440 563 c 0
 440 585 404 603 360 603 c 0
 316 603 280 585 280 563 c 0
200 563 m 0
 200 629 272 683 360 683 c 0
 448 683 520 629 520 563 c 0
 520 497 448 443 360 443 c 0
 272 443 200 497 200 563 c 0
EndSplineSet
Validated: 1
EndChar

StartChar: Uhungarumlaut
Encoding: 368 368 304
Width: 720
VWidth: 0
Flags: HMW
LayerCount: 2
Fore
SplineSet
184 499 m 1
 332 648 l 1
 389 591 l 1
 240 443 l 1
 184 499 l 1
424 499 m 1
 572 648 l 1
 629 591 l 1
 480 443 l 1
 424 499 l 1
160 200 m 6
 160 400 l 5
 240 400 l 5
 240 200 l 6
 240 134 294 80 360 80 c 4
 426 80 480 134 480 200 c 6
 480 400 l 5
 560 400 l 5
 560 200 l 6
 560 90 470 0 360 0 c 4
 250 0 160 90 160 200 c 6
EndSplineSet
Validated: 1
EndChar

StartChar: uhungarumlaut
Encoding: 369 369 305
Width: 720
VWidth: 0
Flags: HM
LayerCount: 2
Fore
SplineSet
480 99 m 1
 434 49 375 0 320 0 c 0
 230 0 160 90 160 200 c 2
 160 400 l 1
 240 400 l 1
 240 200 l 2
 240 134 274 80 320 80 c 0
 386 80 480 200 480 200 c 1
 480 400 l 1
 560 400 l 1
 560 0 l 1
 480 0 l 1
 480 99 l 1
184 499 m 1
 332 648 l 1
 389 591 l 1
 240 443 l 1
 184 499 l 1
424 499 m 1
 572 648 l 1
 629 591 l 1
 480 443 l 1
 424 499 l 1
EndSplineSet
Validated: 1
EndChar

StartChar: Uogonek
Encoding: 370 370 306
Width: 720
VWidth: 0
Flags: HM
LayerCount: 2
Fore
SplineSet
280 -68 m 0
 280 -50 284 -32 291 -16 c 1
 269 5 l 1
 161 29 80 125 80 240 c 2
 80 480 l 1
 160 480 l 1
 160 240 l 2
 160 152 232 80 320 80 c 0
 408 80 480 152 480 240 c 2
 480 480 l 1
 560 480 l 1
 560 240 l 2
 560 129 484 35 381 8 c 1
 401 -12 l 1
 367 -46 l 1
 363 -52 360 -60 360 -68 c 0
 360 -90 378 -108 400 -108 c 0
 411 -108 421 -103 428 -96 c 1
 485 -153 l 1
 463 -175 433 -188 400 -188 c 0
 334 -188 280 -134 280 -68 c 0
EndSplineSet
Validated: 1
EndChar

StartChar: uogonek
Encoding: 371 371 307
Width: 720
VWidth: 0
Flags: HM
LayerCount: 2
Fore
SplineSet
320 -68 m 0
 320 -50 324 -32 331 -16 c 1
 314 0 l 1
 227 4 160 92 160 200 c 2
 160 400 l 1
 240 400 l 1
 240 200 l 2
 240 134 274 80 320 80 c 0
 386 80 480 200 480 200 c 1
 480 400 l 1
 560 400 l 1
 560 0 l 1
 480 0 l 1
 480 99 l 1
 456 73 429 48 400 29 c 1
 441 -12 l 1
 407 -46 l 1
 403 -52 400 -60 400 -68 c 0
 400 -90 418 -108 440 -108 c 0
 451 -108 461 -103 468 -96 c 1
 525 -153 l 1
 503 -175 473 -188 440 -188 c 0
 374 -188 320 -134 320 -68 c 0
EndSplineSet
Validated: 1
EndChar

StartChar: Wcircumflex
Encoding: 372 372 308
Width: 720
VWidth: 0
Flags: HMW
LayerCount: 2
Fore
SplineSet
59 400 m 1
 146 400 l 1
 257 142 l 1
 333 320 l 1
 387 320 l 1
 463 142 l 1
 574 400 l 1
 661 400 l 1
 489 0 l 1
 437 0 l 1
 360 179 l 1
 283 0 l 1
 231 0 l 1
 59 400 l 1
268 443 m 1
 212 499 l 1
 360 648 l 1
 508 499 l 1
 452 443 l 1
 360 534 l 1
 268 443 l 1
EndSplineSet
Validated: 1
EndChar

StartChar: wcircumflex
Encoding: 373 373 309
Width: 720
VWidth: 0
Flags: HM
LayerCount: 2
Fore
SplineSet
59 400 m 1
 146 400 l 1
 257 142 l 1
 333 320 l 1
 387 320 l 1
 463 142 l 1
 574 400 l 1
 661 400 l 1
 489 0 l 1
 437 0 l 1
 360 179 l 1
 283 0 l 1
 231 0 l 1
 59 400 l 1
268 443 m 1
 212 499 l 1
 360 648 l 1
 508 499 l 1
 452 443 l 1
 360 534 l 1
 268 443 l 1
EndSplineSet
Validated: 1
EndChar

StartChar: Ycircumflex
Encoding: 374 374 310
Width: 720
VWidth: 0
Flags: HMW
LayerCount: 2
Fore
SplineSet
268 443 m 1
 212 499 l 1
 360 648 l 1
 508 499 l 1
 452 443 l 1
 360 534 l 1
 268 443 l 1
103 400 m 1
 217 400 l 1
 360 257 l 1
 503 400 l 1
 617 400 l 1
 400 183 l 1
 400 0 l 1
 320 0 l 1
 320 183 l 1
 103 400 l 1
EndSplineSet
Validated: 1
EndChar

StartChar: ycircumflex
Encoding: 375 375 311
Width: 720
VWidth: 0
Flags: HM
LayerCount: 2
Fore
SplineSet
480 119 m 1
 434 69 375 40 320 40 c 0
 230 40 160 120 160 220 c 2
 160 400 l 1
 240 400 l 1
 240 220 l 2
 240 164 274 120 320 120 c 0
 386 120 480 220 480 220 c 1
 480 400 l 1
 560 400 l 1
 560 80 l 2
 560 -30 470 -120 360 -120 c 0
 288 -120 224 -81 189 -23 c 1
 257 18 l 1
 278 -17 317 -40 360 -40 c 0
 426 -40 480 14 480 80 c 2
 480 119 l 1
268 443 m 1
 212 499 l 1
 360 648 l 1
 508 499 l 1
 452 443 l 1
 360 534 l 1
 268 443 l 1
EndSplineSet
Validated: 1
EndChar

StartChar: Ydieresis
Encoding: 376 376 312
Width: 720
VWidth: 0
Flags: HMW
LayerCount: 2
Fore
SplineSet
103 400 m 1
 217 400 l 1
 360 257 l 1
 503 400 l 1
 617 400 l 1
 400 183 l 1
 400 0 l 1
 320 0 l 1
 320 183 l 1
 103 400 l 1
400 523 m 25
 480 523 l 25
 480 443 l 25
 400 443 l 25
 400 523 l 25
240 523 m 25
 320 523 l 25
 320 443 l 25
 240 443 l 25
 240 523 l 25
EndSplineSet
Validated: 1
EndChar

StartChar: Zacute
Encoding: 377 377 313
Width: 720
VWidth: 0
Flags: HMW
LayerCount: 2
Fore
SplineSet
160 400 m 1
 560 400 l 1
 560 344 l 1
 296 80 l 1
 560 80 l 1
 560 0 l 1
 160 0 l 1
 160 56 l 1
 424 320 l 1
 160 320 l 1
 160 400 l 1
304 499 m 1
 452 648 l 1
 509 591 l 1
 360 443 l 1
 304 499 l 1
EndSplineSet
Validated: 1
EndChar

StartChar: zacute
Encoding: 378 378 314
Width: 720
VWidth: 0
Flags: HM
LayerCount: 2
Fore
SplineSet
160 400 m 1
 560 400 l 1
 560 344 l 1
 296 80 l 1
 560 80 l 1
 560 0 l 1
 160 0 l 1
 160 56 l 1
 424 320 l 1
 160 320 l 1
 160 400 l 1
304 499 m 1
 452 648 l 1
 509 591 l 1
 360 443 l 1
 304 499 l 1
EndSplineSet
Validated: 1
EndChar

StartChar: Zdotaccent
Encoding: 379 379 315
Width: 720
VWidth: 0
Flags: HMW
LayerCount: 2
Fore
SplineSet
160 400 m 1
 560 400 l 1
 560 344 l 1
 296 80 l 1
 560 80 l 1
 560 0 l 1
 160 0 l 1
 160 56 l 1
 424 320 l 1
 160 320 l 1
 160 400 l 1
320 523 m 25
 400 523 l 25
 400 443 l 25
 320 443 l 25
 320 523 l 25
EndSplineSet
Validated: 1
EndChar

StartChar: zdotaccent
Encoding: 380 380 316
Width: 720
VWidth: 0
Flags: HM
LayerCount: 2
Fore
SplineSet
160 400 m 1
 560 400 l 1
 560 344 l 1
 296 80 l 1
 560 80 l 1
 560 0 l 1
 160 0 l 1
 160 56 l 1
 424 320 l 1
 160 320 l 1
 160 400 l 1
320 523 m 25
 400 523 l 25
 400 443 l 25
 320 443 l 25
 320 523 l 25
EndSplineSet
Validated: 1
EndChar

StartChar: Zcaron
Encoding: 381 381 317
Width: 720
VWidth: 0
Flags: HMW
LayerCount: 2
Fore
SplineSet
160 400 m 1
 560 400 l 1
 560 344 l 1
 296 80 l 1
 560 80 l 1
 560 0 l 1
 160 0 l 1
 160 56 l 1
 424 320 l 1
 160 320 l 1
 160 400 l 1
452 648 m 1
 508 592 l 1
 360 443 l 5
 212 592 l 1
 268 648 l 1
 360 557 l 1
 452 648 l 1
EndSplineSet
Validated: 1
EndChar

StartChar: zcaron
Encoding: 382 382 318
Width: 720
VWidth: 0
Flags: HM
LayerCount: 2
Fore
SplineSet
160 400 m 1
 560 400 l 1
 560 344 l 1
 296 80 l 1
 560 80 l 1
 560 0 l 1
 160 0 l 1
 160 56 l 1
 424 320 l 1
 160 320 l 1
 160 400 l 1
452 648 m 1
 508 592 l 1
 360 443 l 5
 212 592 l 1
 268 648 l 1
 360 557 l 1
 452 648 l 1
EndSplineSet
Validated: 1
EndChar

StartChar: longs
Encoding: 383 383 319
Width: 720
VWidth: 0
Flags: HMW
LayerCount: 2
Fore
SplineSet
600 520 m 1
 600 440 l 1
 480 440 l 2
 436 440 400 404 400 360 c 2
 400 0 l 1
 320 0 l 1
 320 280 l 1
 160 280 l 1
 160 360 l 1
 320 360 l 1
 320 448 392 520 480 520 c 2
 600 520 l 1
EndSplineSet
Validated: 1
EndChar

StartChar: florin
Encoding: 402 402 320
Width: 720
VWidth: 0
Flags: HMW
LayerCount: 2
Fore
SplineSet
600 520 m 1
 600 440 l 1
 480 440 l 2
 436 440 400 404 400 360 c 1
 560 360 l 1
 560 280 l 1
 400 280 l 1
 400 40 l 2
 400 -48 328 -120 240 -120 c 2
 120 -120 l 1
 120 -40 l 1
 240 -40 l 2
 284 -40 320 -4 320 40 c 2
 320 280 l 1
 160 280 l 1
 160 360 l 1
 320 360 l 1
 320 448 392 520 480 520 c 2
 600 520 l 1
EndSplineSet
Validated: 1
EndChar

StartChar: uni01A7
Encoding: 423 423 321
Width: 720
VWidth: 0
Flags: HW
LayerCount: 2
Fore
SplineSet
320 80 m 0
 388 80 447 108 476 151 c 1
 560 137 l 1
 521 56 428 0 320 0 c 0
 188 0 80 64 80 140 c 0
 80 286 480 278 480 340 c 0
 480 372 408 400 320 400 c 0
 252 400 193 372 164 329 c 1
 80 343 l 1
 119 424 212 480 320 480 c 0
 452 480 560 416 560 340 c 0
 560 194 160 202 160 140 c 0
 160 108 232 80 320 80 c 0
EndSplineSet
Validated: 1
EndChar

StartChar: uni01A8
Encoding: 424 424 322
Width: 720
VWidth: 0
Flags: HW
LayerCount: 2
Fore
SplineSet
200 400 m 1
 440 400 l 2
 506 400 560 346 560 280 c 0
 560 214 506 160 440 160 c 2
 280 160 l 2
 258 160 240 142 240 120 c 0
 240 98 258 80 280 80 c 2
 560 80 l 1
 560 0 l 1
 280 0 l 2
 214 0 160 54 160 120 c 0
 160 186 214 240 280 240 c 2
 440 240 l 2
 462 240 480 258 480 280 c 0
 480 302 462 320 440 320 c 2
 200 320 l 1
 200 400 l 1
EndSplineSet
Validated: 1
EndChar

StartChar: uni01C0
Encoding: 448 448 323
Width: 720
VWidth: 0
Flags: HMW
LayerCount: 2
Fore
SplineSet
320 480 m 25
 400 480 l 25
 400 0 l 25
 320 0 l 25
 320 480 l 25
EndSplineSet
Validated: 1
EndChar

StartChar: uni01C1
Encoding: 449 449 324
Width: 720
VWidth: 0
Flags: HMW
LayerCount: 2
Fore
SplineSet
400 480 m 25
 480 480 l 25
 480 0 l 25
 400 0 l 25
 400 480 l 25
240 480 m 25
 320 480 l 25
 320 0 l 25
 240 0 l 25
 240 480 l 25
EndSplineSet
Validated: 1
EndChar

StartChar: uni01C2
Encoding: 450 450 325
Width: 720
VWidth: 0
Flags: HMW
LayerCount: 2
Fore
SplineSet
320 480 m 1
 400 480 l 1
 400 360 l 1
 560 360 l 1
 560 280 l 1
 400 280 l 1
 400 200 l 1
 560 200 l 1
 560 120 l 1
 400 120 l 1
 400 0 l 1
 320 0 l 1
 320 120 l 1
 160 120 l 1
 160 200 l 1
 320 200 l 1
 320 280 l 1
 160 280 l 1
 160 360 l 1
 320 360 l 1
 320 480 l 1
EndSplineSet
Validated: 1
EndChar

StartChar: uni01C3
Encoding: 451 451 326
Width: 720
VWidth: 0
Flags: HMW
LayerCount: 2
Fore
SplineSet
320 80 m 25
 400 80 l 25
 400 0 l 25
 320 0 l 25
 320 80 l 25
320 480 m 25
 400 480 l 25
 400 160 l 25
 320 160 l 25
 320 480 l 25
EndSplineSet
Validated: 1
EndChar

StartChar: uni01CD
Encoding: 461 461 327
Width: 720
VWidth: 0
Flags: HW
LayerCount: 2
Fore
SplineSet
240 183 m 1
 240 180 l 1
 480 180 l 1
 480 183 l 1
 360 303 l 1
 240 183 l 1
160 217 m 1
 343 400 l 1
 377 400 l 1
 560 217 l 1
 560 0 l 1
 480 0 l 1
 480 100 l 1
 240 100 l 1
 240 0 l 1
 160 0 l 1
 160 217 l 1
452 648 m 1
 508 592 l 1
 360 443 l 1
 212 592 l 1
 268 648 l 1
 360 557 l 1
 452 648 l 1
EndSplineSet
Validated: 1
EndChar

StartChar: uni01CE
Encoding: 462 462 328
Width: 720
VWidth: 0
Flags: HW
LayerCount: 2
Fore
SplineSet
240 200 m 0
 240 134 274 80 320 80 c 0
 386 80 480 200 480 200 c 1
 480 320 l 1
 360 320 l 2
 294 320 240 266 240 200 c 0
480 99 m 1
 434 49 375 0 320 0 c 0
 230 0 160 90 160 200 c 0
 160 310 250 400 360 400 c 2
 560 400 l 1
 560 0 l 1
 480 0 l 1
 480 99 l 1
452 648 m 1
 508 592 l 1
 360 443 l 1
 212 592 l 1
 268 648 l 1
 360 557 l 1
 452 648 l 1
EndSplineSet
Validated: 1
EndChar

StartChar: uni01CF
Encoding: 463 463 329
Width: 720
VWidth: 0
Flags: HW
LayerCount: 2
Fore
SplineSet
240 400 m 25
 480 400 l 25
 480 320 l 25
 400 320 l 25
 400 80 l 25
 480 80 l 25
 480 0 l 25
 240 0 l 25
 240 80 l 25
 320 80 l 25
 320 320 l 25
 240 320 l 25
 240 400 l 25
452 648 m 1
 508 592 l 1
 360 443 l 1
 212 592 l 1
 268 648 l 1
 360 557 l 1
 452 648 l 1
EndSplineSet
Validated: 1
EndChar

StartChar: uni01D0
Encoding: 464 464 330
Width: 720
VWidth: 0
Flags: HW
LayerCount: 2
Fore
SplineSet
160 400 m 1
 400 400 l 1
 400 80 l 1
 560 80 l 1
 560 0 l 1
 160 0 l 1
 160 80 l 1
 320 80 l 1
 320 320 l 1
 160 320 l 1
 160 400 l 1
452 648 m 1
 508 592 l 1
 360 443 l 1
 212 592 l 1
 268 648 l 1
 360 557 l 1
 452 648 l 1
EndSplineSet
Validated: 1
EndChar

StartChar: uni01D1
Encoding: 465 465 331
Width: 720
VWidth: 0
Flags: HW
LayerCount: 2
Fore
SplineSet
240 200 m 0
 240 134 294 80 360 80 c 0
 426 80 480 134 480 200 c 0
 480 266 426 320 360 320 c 0
 294 320 240 266 240 200 c 0
160 200 m 0
 160 310 250 400 360 400 c 0
 470 400 560 310 560 200 c 0
 560 90 470 0 360 0 c 0
 250 0 160 90 160 200 c 0
452 648 m 1
 508 592 l 1
 360 443 l 1
 212 592 l 1
 268 648 l 1
 360 557 l 1
 452 648 l 1
EndSplineSet
Validated: 1
EndChar

StartChar: uni01D2
Encoding: 466 466 332
Width: 720
VWidth: 0
Flags: HW
LayerCount: 2
Fore
SplineSet
240 200 m 0
 240 134 294 80 360 80 c 0
 426 80 480 134 480 200 c 0
 480 266 426 320 360 320 c 0
 294 320 240 266 240 200 c 0
160 200 m 0
 160 310 250 400 360 400 c 0
 470 400 560 310 560 200 c 0
 560 90 470 0 360 0 c 0
 250 0 160 90 160 200 c 0
452 648 m 1
 508 592 l 1
 360 443 l 1
 212 592 l 1
 268 648 l 1
 360 557 l 1
 452 648 l 1
EndSplineSet
Validated: 1
EndChar

StartChar: uni01D3
Encoding: 467 467 333
Width: 720
VWidth: 0
Flags: HW
LayerCount: 2
Fore
SplineSet
160 200 m 2
 160 400 l 1
 240 400 l 1
 240 200 l 2
 240 134 294 80 360 80 c 0
 426 80 480 134 480 200 c 2
 480 400 l 1
 560 400 l 1
 560 200 l 2
 560 90 470 0 360 0 c 0
 250 0 160 90 160 200 c 2
452 648 m 1
 508 592 l 1
 360 443 l 1
 212 592 l 1
 268 648 l 1
 360 557 l 1
 452 648 l 1
EndSplineSet
Validated: 1
EndChar

StartChar: uni01D4
Encoding: 468 468 334
Width: 720
VWidth: 0
Flags: HW
LayerCount: 2
Fore
SplineSet
480 99 m 1
 434 49 375 0 320 0 c 0
 230 0 160 90 160 200 c 2
 160 400 l 1
 240 400 l 1
 240 200 l 2
 240 134 274 80 320 80 c 0
 386 80 480 200 480 200 c 1
 480 400 l 1
 560 400 l 1
 560 0 l 1
 480 0 l 1
 480 99 l 1
452 648 m 1
 508 592 l 1
 360 443 l 1
 212 592 l 1
 268 648 l 1
 360 557 l 1
 452 648 l 1
EndSplineSet
Validated: 1
EndChar

StartChar: uni01DD
Encoding: 477 477 335
Width: 720
VWidth: 0
Flags: HMW
LayerCount: 2
Fore
SplineSet
560 200 m 0
 560 90 470 0 360 0 c 0
 250 0 160 90 160 200 c 2
 160 240 l 1
 473 240 l 1
 456 286 412 320 360 320 c 2
 200 320 l 1
 200 400 l 1
 360 400 l 2
 470 400 560 310 560 200 c 0
247 160 m 1
 264 114 308 80 360 80 c 0
 412 80 456 114 473 160 c 1
 247 160 l 1
EndSplineSet
Validated: 1
EndChar

StartChar: Gcaron
Encoding: 486 486 336
Width: 720
VWidth: 0
Flags: HW
LayerCount: 2
Fore
SplineSet
360 0 m 2
 250 0 160 90 160 200 c 0
 160 310 250 400 360 400 c 0
 447 400 522 343 549 265 c 1
 468 251 l 1
 449 291 408 320 360 320 c 0
 294 320 240 266 240 200 c 0
 240 134 294 80 360 80 c 2
 470 80 l 1
 470 130 l 1
 370 130 l 1
 370 210 l 1
 550 210 l 1
 550 0 l 1
 360 0 l 2
452 648 m 1
 508 592 l 1
 360 443 l 1
 212 592 l 1
 268 648 l 1
 360 557 l 1
 452 648 l 1
EndSplineSet
Validated: 1
EndChar

StartChar: gcaron
Encoding: 487 487 337
Width: 720
VWidth: 0
Flags: HW
LayerCount: 2
Fore
SplineSet
480 119 m 1
 434 69 375 40 320 40 c 0
 230 40 160 120 160 220 c 0
 160 320 250 400 360 400 c 2
 560 400 l 1
 560 80 l 2
 560 -30 470 -120 360 -120 c 0
 288 -120 224 -81 189 -23 c 1
 257 18 l 1
 278 -17 317 -40 360 -40 c 0
 426 -40 480 14 480 80 c 2
 480 119 l 1
240 220 m 0
 240 164 274 120 320 120 c 0
 386 120 480 220 480 220 c 1
 480 320 l 1
 360 320 l 2
 294 320 240 276 240 220 c 0
452 648 m 5
 508 592 l 5
 360 443 l 5
 212 592 l 5
 268 648 l 5
 360 557 l 5
 452 648 l 5
EndSplineSet
Validated: 1
EndChar

StartChar: uni01E8
Encoding: 488 488 338
Width: 720
VWidth: 0
Flags: HW
LayerCount: 2
Fore
SplineSet
160 400 m 1
 240 400 l 1
 240 217 l 1
 423 400 l 1
 537 400 l 1
 377 240 l 1
 617 0 l 1
 503 0 l 1
 320 183 l 1
 240 103 l 1
 240 0 l 1
 160 0 l 1
 160 400 l 1
452 648 m 5
 508 592 l 5
 360 443 l 5
 212 592 l 5
 268 648 l 5
 360 557 l 5
 452 648 l 5
EndSplineSet
Validated: 1
EndChar

StartChar: uni01E9
Encoding: 489 489 339
Width: 720
VWidth: 0
Flags: HW
LayerCount: 2
Fore
SplineSet
160 400 m 1
 240 400 l 1
 240 217 l 1
 423 400 l 1
 537 400 l 1
 377 240 l 1
 617 0 l 1
 503 0 l 1
 320 183 l 1
 240 103 l 1
 240 0 l 1
 160 0 l 1
 160 400 l 1
452 648 m 5
 508 592 l 5
 360 443 l 5
 212 592 l 5
 268 648 l 5
 360 557 l 5
 452 648 l 5
EndSplineSet
Validated: 1
EndChar

StartChar: AEacute
Encoding: 508 508 340
Width: 720
VWidth: 0
Flags: HW
LayerCount: 2
Fore
SplineSet
160 217 m 1
 343 400 l 1
 560 400 l 1
 560 320 l 1
 440 320 l 1
 440 240 l 1
 520 240 l 1
 520 160 l 1
 440 160 l 1
 440 80 l 1
 560 80 l 1
 560 0 l 1
 360 0 l 1
 360 100 l 1
 240 100 l 1
 240 0 l 1
 160 0 l 1
 160 217 l 1
360 303 m 1
 240 183 l 1
 240 180 l 1
 360 180 l 1
 360 303 l 1
304 499 m 5
 452 648 l 5
 509 591 l 5
 360 443 l 5
 304 499 l 5
EndSplineSet
Validated: 1
EndChar

StartChar: aeacute
Encoding: 509 509 341
Width: 720
VWidth: 0
Flags: HW
LayerCount: 2
Fore
SplineSet
320 99 m 1
 320 99 265 0 200 0 c 0
 130 0 80 90 80 200 c 0
 80 310 150 400 240 400 c 2
 400 400 l 1
 400 374 l 1
 423 391 451 400 480 400 c 0
 570 400 640 310 640 200 c 2
 640 160 l 1
 407 160 l 1
 407 160 428 80 480 80 c 2
 600 80 l 1
 600 0 l 1
 480 0 l 2
 451 0 423 9 400 26 c 1
 400 0 l 1
 320 0 l 1
 320 99 l 1
160 200 m 0
 160 134 174 80 200 80 c 0
 246 80 320 200 320 200 c 1
 320 320 l 1
 240 320 l 2
 194 320 160 266 160 200 c 0
553 240 m 1
 553 240 532 320 480 320 c 0
 428 320 407 240 407 240 c 1
 553 240 l 1
304 499 m 5
 452 648 l 5
 509 591 l 5
 360 443 l 5
 304 499 l 5
EndSplineSet
Validated: 1
EndChar

StartChar: Oslashacute
Encoding: 510 510 342
Width: 720
VWidth: 0
Flags: HW
LayerCount: 2
Fore
SplineSet
160 200 m 0
 160 310 250 400 360 400 c 0
 401 400 438 387 470 366 c 1
 532 428 l 1
 588 372 l 1
 526 310 l 1
 547 278 560 241 560 200 c 0
 560 90 470 0 360 0 c 0
 319 0 282 13 250 34 c 1
 188 -28 l 1
 132 28 l 1
 194 90 l 1
 173 122 160 159 160 200 c 0
308 92 m 1
 324 84 341 80 360 80 c 0
 426 80 480 134 480 200 c 0
 480 219 476 236 468 252 c 1
 308 92 l 1
252 148 m 1
 412 308 l 1
 396 316 379 320 360 320 c 0
 294 320 240 266 240 200 c 0
 240 181 244 164 252 148 c 1
304 499 m 5
 452 648 l 5
 509 591 l 5
 360 443 l 5
 304 499 l 5
EndSplineSet
Validated: 1
EndChar

StartChar: oslashacute
Encoding: 511 511 343
Width: 720
VWidth: 0
Flags: HW
LayerCount: 2
Fore
SplineSet
160 200 m 0
 160 310 250 400 360 400 c 0
 401 400 438 387 470 366 c 1
 532 428 l 1
 588 372 l 1
 526 310 l 1
 547 278 560 241 560 200 c 0
 560 90 470 0 360 0 c 0
 319 0 282 13 250 34 c 1
 188 -28 l 1
 132 28 l 1
 194 90 l 1
 173 122 160 159 160 200 c 0
308 92 m 1
 324 84 341 80 360 80 c 0
 426 80 480 134 480 200 c 0
 480 219 476 236 468 252 c 1
 308 92 l 1
252 148 m 1
 412 308 l 1
 396 316 379 320 360 320 c 0
 294 320 240 266 240 200 c 0
 240 181 244 164 252 148 c 1
304 499 m 5
 452 648 l 5
 509 591 l 5
 360 443 l 5
 304 499 l 5
EndSplineSet
Validated: 1
EndChar

StartChar: uni0218
Encoding: 536 536 344
Width: 720
VWidth: 0
Flags: HW
LayerCount: 2
Fore
SplineSet
320 80 m 0
 408 80 480 108 480 140 c 0
 480 202 80 194 80 340 c 0
 80 416 188 480 320 480 c 0
 428 480 521 424 560 343 c 1
 476 329 l 1
 447 372 388 400 320 400 c 0
 232 400 160 372 160 340 c 0
 160 278 560 286 560 140 c 0
 560 64 452 0 320 0 c 0
 212 0 119 56 80 137 c 1
 164 151 l 1
 193 108 252 80 320 80 c 0
360 -43 m 5
 417 -100 l 5
 280 -237 l 5
 223 -180 l 5
 360 -43 l 5
EndSplineSet
Validated: 1
EndChar

StartChar: uni0219
Encoding: 537 537 345
Width: 720
VWidth: 0
Flags: HW
LayerCount: 2
Fore
SplineSet
520 400 m 1
 520 320 l 1
 280 320 l 2
 258 320 240 302 240 280 c 0
 240 258 258 240 280 240 c 2
 440 240 l 2
 506 240 560 186 560 120 c 0
 560 54 506 0 440 0 c 2
 160 0 l 1
 160 80 l 1
 440 80 l 2
 462 80 480 98 480 120 c 0
 480 142 462 160 440 160 c 2
 280 160 l 2
 214 160 160 214 160 280 c 0
 160 346 214 400 280 400 c 2
 520 400 l 1
400 -43 m 5
 457 -100 l 5
 320 -237 l 5
 263 -180 l 5
 400 -43 l 5
EndSplineSet
Validated: 1
EndChar

StartChar: uni021A
Encoding: 538 538 346
Width: 720
VWidth: 0
Flags: HW
LayerCount: 2
Fore
SplineSet
120 480 m 25
 600 480 l 25
 600 400 l 25
 400 400 l 25
 400 0 l 25
 320 0 l 25
 320 400 l 25
 120 400 l 25
 120 480 l 25
360 -43 m 5
 417 -100 l 5
 280 -237 l 5
 223 -180 l 5
 360 -43 l 5
EndSplineSet
Validated: 1
EndChar

StartChar: uni021B
Encoding: 539 539 347
Width: 720
VWidth: 0
Flags: HW
LayerCount: 2
Fore
SplineSet
400 160 m 2
 400 116 436 80 480 80 c 2
 600 80 l 1
 600 0 l 1
 480 0 l 2
 392 0 320 72 320 160 c 2
 320 320 l 1
 160 320 l 1
 160 400 l 1
 320 400 l 1
 320 520 l 1
 400 520 l 1
 400 400 l 1
 560 400 l 1
 560 320 l 1
 400 320 l 1
 400 160 l 2
480 -43 m 1
 537 -100 l 1
 400 -237 l 1
 343 -180 l 1
 480 -43 l 1
EndSplineSet
Validated: 1
EndChar

StartChar: uni021E
Encoding: 542 542 348
Width: 720
VWidth: 0
Flags: HW
LayerCount: 2
Fore
SplineSet
160 400 m 1
 240 400 l 1
 240 240 l 1
 480 240 l 1
 480 400 l 1
 560 400 l 1
 560 0 l 1
 480 0 l 1
 480 160 l 1
 240 160 l 1
 240 0 l 1
 160 0 l 1
 160 400 l 1
452 648 m 1
 508 592 l 1
 360 443 l 1
 212 592 l 1
 268 648 l 1
 360 557 l 1
 452 648 l 1
EndSplineSet
Validated: 1
EndChar

StartChar: uni021F
Encoding: 543 543 349
Width: 720
VWidth: 0
Flags: HW
LayerCount: 2
Fore
SplineSet
240 221 m 1
 286 271 345 320 400 320 c 0
 490 320 560 230 560 120 c 2
 560 0 l 1
 480 0 l 1
 480 120 l 2
 480 186 446 240 400 240 c 0
 334 240 240 120 240 120 c 1
 240 0 l 1
 160 0 l 1
 160 400 l 1
 240 400 l 1
 240 221 l 1
452 648 m 5
 508 592 l 5
 360 443 l 5
 212 592 l 5
 268 648 l 5
 360 557 l 5
 452 648 l 5
EndSplineSet
Validated: 1
EndChar

StartChar: uni0226
Encoding: 550 550 350
Width: 720
VWidth: 0
Flags: HW
LayerCount: 2
Fore
SplineSet
240 183 m 1
 240 180 l 1
 480 180 l 1
 480 183 l 1
 360 303 l 1
 240 183 l 1
160 217 m 1
 343 400 l 1
 377 400 l 1
 560 217 l 1
 560 0 l 1
 480 0 l 1
 480 100 l 1
 240 100 l 1
 240 0 l 1
 160 0 l 1
 160 217 l 1
320 523 m 25
 400 523 l 25
 400 443 l 25
 320 443 l 25
 320 523 l 25
EndSplineSet
Validated: 1
EndChar

StartChar: uni0227
Encoding: 551 551 351
Width: 720
VWidth: 0
Flags: HW
LayerCount: 2
Fore
SplineSet
240 200 m 0
 240 134 274 80 320 80 c 0
 386 80 480 200 480 200 c 1
 480 320 l 1
 360 320 l 2
 294 320 240 266 240 200 c 0
480 99 m 1
 434 49 375 0 320 0 c 0
 230 0 160 90 160 200 c 0
 160 310 250 400 360 400 c 2
 560 400 l 1
 560 0 l 1
 480 0 l 1
 480 99 l 1
320 523 m 25
 400 523 l 25
 400 443 l 25
 320 443 l 25
 320 523 l 25
EndSplineSet
Validated: 1
EndChar

StartChar: uni0232
Encoding: 562 562 352
Width: 720
VWidth: 0
Flags: HW
LayerCount: 2
Fore
SplineSet
240 523 m 5
 480 523 l 5
 480 443 l 5
 240 443 l 5
 240 523 l 5
103 400 m 1
 217 400 l 1
 360 257 l 1
 503 400 l 1
 617 400 l 1
 400 183 l 1
 400 0 l 1
 320 0 l 1
 320 183 l 1
 103 400 l 1
EndSplineSet
Validated: 1
EndChar

StartChar: uni0233
Encoding: 563 563 353
Width: 720
VWidth: 0
Flags: HW
LayerCount: 2
Fore
SplineSet
240 523 m 1
 480 523 l 1
 480 443 l 1
 240 443 l 1
 240 523 l 1
480 119 m 1
 434 69 375 40 320 40 c 0
 230 40 160 120 160 220 c 2
 160 400 l 1
 240 400 l 1
 240 220 l 2
 240 164 274 120 320 120 c 0
 386 120 480 220 480 220 c 1
 480 400 l 1
 560 400 l 1
 560 80 l 2
 560 -30 470 -120 360 -120 c 0
 288 -120 224 -81 189 -23 c 1
 257 18 l 1
 278 -17 317 -40 360 -40 c 0
 426 -40 480 14 480 80 c 2
 480 119 l 1
EndSplineSet
Validated: 1
EndChar

StartChar: uni0237
Encoding: 567 567 354
Width: 720
VWidth: 0
Flags: MW
LayerCount: 2
Fore
SplineSet
308 28 m 1
 301 35 291 40 280 40 c 0
 258 40 240 22 240 0 c 0
 240 -32 284 -40 350 -40 c 0
 416 -40 480 14 480 80 c 2
 480 400 l 1
 560 400 l 1
 560 80 l 2
 560 -30 460 -120 350 -120 c 0
 240 -120 160 -76 160 0 c 0
 160 66 214 120 280 120 c 0
 313 120 343 107 365 85 c 1
 308 28 l 1
EndSplineSet
Validated: 1
EndChar

StartChar: uni0238
Encoding: 568 568 355
Width: 720
VWidth: 0
Flags: HMW
LayerCount: 2
Fore
SplineSet
560 200 m 0
 560 266 546 320 520 320 c 0
 474 320 400 200 400 200 c 1
 400 80 l 1
 480 80 l 2
 546 80 560 134 560 200 c 0
160 200 m 0
 160 134 174 80 200 80 c 0
 246 80 320 200 320 200 c 1
 320 320 l 1
 240 320 l 2
 174 320 160 266 160 200 c 0
320 0 m 1
 320 99 l 1
 320 99 255 0 200 0 c 0
 110 0 80 90 80 200 c 0
 80 310 130 400 240 400 c 2
 320 400 l 1
 320 520 l 1
 400 520 l 1
 400 301 l 1
 400 301 465 400 520 400 c 0
 610 400 640 310 640 200 c 0
 640 90 590 0 480 0 c 2
 320 0 l 1
EndSplineSet
Validated: 1
EndChar

StartChar: uni0239
Encoding: 569 569 356
Width: 720
VWidth: 0
Flags: HMW
LayerCount: 2
Fore
SplineSet
160 200 m 0
 160 134 174 80 200 80 c 0
 246 80 320 200 320 200 c 1
 320 320 l 1
 240 320 l 2
 174 320 160 266 160 200 c 0
560 200 m 0
 560 266 546 320 520 320 c 0
 474 320 400 200 400 200 c 1
 400 80 l 1
 480 80 l 2
 546 80 560 134 560 200 c 0
400 400 m 1
 400 301 l 1
 400 301 465 400 520 400 c 0
 610 400 640 310 640 200 c 0
 640 90 590 0 480 0 c 2
 400 0 l 1
 400 -120 l 1
 320 -120 l 1
 320 99 l 1
 320 99 255 0 200 0 c 0
 110 0 80 90 80 200 c 0
 80 310 130 400 240 400 c 2
 400 400 l 1
EndSplineSet
Validated: 1
EndChar

StartChar: uni0241
Encoding: 577 577 357
Width: 720
VWidth: 0
Flags: HW
LayerCount: 2
Fore
SplineSet
320 160 m 2
 320 268 480 266 480 350 c 0
 480 378 426 400 360 400 c 0
 302 400 253 383 242 360 c 1
 162 370 l 1
 177 433 260 480 360 480 c 0
 470 480 560 422 560 350 c 0
 560 242 400 244 400 160 c 2
 400 0 l 1
 320 0 l 1
 320 160 l 2
EndSplineSet
Validated: 1
EndChar

StartChar: uni0242
Encoding: 578 578 358
Width: 720
VWidth: 0
Flags: HW
LayerCount: 2
Fore
SplineSet
320 80 m 2
 320 188 480 186 480 270 c 0
 480 298 426 320 360 320 c 0
 302 320 253 303 242 280 c 1
 162 290 l 1
 177 353 260 400 360 400 c 0
 470 400 560 342 560 270 c 0
 560 162 400 164 400 80 c 2
 400 0 l 1
 320 0 l 1
 320 80 l 2
EndSplineSet
Validated: 1
EndChar

StartChar: uni0250
Encoding: 592 592 359
Width: 720
VWidth: 0
Flags: HMW
LayerCount: 2
Fore
SplineSet
480 200 m 0
 480 266 446 320 400 320 c 0
 334 320 240 200 240 200 c 1
 240 80 l 1
 360 80 l 2
 426 80 480 134 480 200 c 0
240 301 m 1
 286 351 345 400 400 400 c 0
 490 400 560 310 560 200 c 0
 560 90 470 0 360 0 c 2
 160 0 l 1
 160 400 l 1
 240 400 l 1
 240 301 l 1
EndSplineSet
Validated: 1
EndChar

StartChar: uni0251
Encoding: 593 593 360
Width: 720
VWidth: 0
Flags: HMW
LayerCount: 2
Fore
SplineSet
160 200 m 0
 160 310 250 400 360 400 c 0
 405 400 447 385 480 360 c 1
 480 400 l 1
 560 400 l 1
 560 0 l 1
 480 0 l 1
 480 40 l 1
 447 15 405 0 360 0 c 0
 250 0 160 90 160 200 c 0
240 200 m 0
 240 134 294 80 360 80 c 0
 426 80 480 134 480 200 c 0
 480 266 426 320 360 320 c 0
 294 320 240 266 240 200 c 0
EndSplineSet
Validated: 1
EndChar

StartChar: uni0252
Encoding: 594 594 361
Width: 720
VWidth: 0
Flags: HMW
LayerCount: 2
Fore
SplineSet
160 0 m 1
 160 400 l 1
 240 400 l 1
 240 360 l 1
 273 385 315 400 360 400 c 0
 470 400 560 310 560 200 c 0
 560 90 470 0 360 0 c 0
 315 0 273 15 240 40 c 1
 240 0 l 1
 160 0 l 1
240 200 m 0
 240 134 294 80 360 80 c 0
 426 80 480 134 480 200 c 0
 480 266 426 320 360 320 c 0
 294 320 240 266 240 200 c 0
EndSplineSet
Validated: 1
EndChar

StartChar: uni0254
Encoding: 596 596 362
Width: 720
VWidth: 0
Flags: HMW
LayerCount: 2
Fore
SplineSet
560 200 m 0
 560 90 470 0 360 0 c 0
 273 0 198 57 171 135 c 1
 252 149 l 1
 271 109 312 80 360 80 c 4
 426 80 480 134 480 200 c 0
 480 266 426 320 360 320 c 0
 312 320 271 291 252 251 c 1
 171 265 l 1
 198 343 273 400 360 400 c 0
 470 400 560 310 560 200 c 0
EndSplineSet
Validated: 1
EndChar

StartChar: uni0258
Encoding: 600 600 363
Width: 720
VWidth: 0
Flags: HMW
LayerCount: 2
Fore
SplineSet
560 200 m 0
 560 90 470 0 360 0 c 2
 200 0 l 1
 200 80 l 1
 360 80 l 2
 412 80 456 114 473 160 c 1
 160 160 l 1
 160 200 l 2
 160 310 250 400 360 400 c 4
 470 400 560 310 560 200 c 0
247 240 m 1
 473 240 l 1
 456 286 412 320 360 320 c 0
 308 320 264 286 247 240 c 1
EndSplineSet
Validated: 1
EndChar

StartChar: uni0259
Encoding: 601 601 364
Width: 720
VWidth: 0
Flags: HMW
LayerCount: 2
Fore
SplineSet
560 200 m 0
 560 90 470 0 360 0 c 0
 250 0 160 90 160 200 c 2
 160 240 l 1
 473 240 l 1
 456 286 412 320 360 320 c 2
 200 320 l 1
 200 400 l 1
 360 400 l 2
 470 400 560 310 560 200 c 0
247 160 m 1
 264 114 308 80 360 80 c 0
 412 80 456 114 473 160 c 1
 247 160 l 1
EndSplineSet
Validated: 1
EndChar

StartChar: uni025B
Encoding: 603 603 365
Width: 720
VWidth: 0
Flags: HMW
LayerCount: 2
Fore
SplineSet
478 140 m 1
 556 130 l 1
 544 56 460 0 360 0 c 0
 250 0 160 52 160 120 c 0
 160 152 184 176 220 196 c 1
 184 216 160 248 160 280 c 0
 160 348 250 400 360 400 c 4
 460 400 540 354 556 290 c 1
 476 280 l 1
 464 304 418 320 360 320 c 0
 294 320 240 304 240 280 c 0
 240 256 294 240 360 240 c 2
 400 240 l 1
 400 160 l 1
 360 160 l 2
 294 160 240 144 240 120 c 0
 240 96 294 80 360 80 c 0
 420 80 470 106 478 140 c 1
EndSplineSet
Validated: 1
EndChar

StartChar: uni025C
Encoding: 604 604 366
Width: 720
VWidth: 0
Flags: HMW
LayerCount: 2
Fore
SplineSet
242 140 m 1
 250 106 300 80 360 80 c 0
 426 80 480 96 480 120 c 0
 480 144 426 160 360 160 c 2
 320 160 l 1
 320 240 l 1
 360 240 l 2
 426 240 480 256 480 280 c 0
 480 304 426 320 360 320 c 0
 302 320 256 304 244 280 c 1
 164 290 l 1
 180 354 260 400 360 400 c 0
 470 400 560 348 560 280 c 0
 560 248 536 216 500 196 c 1
 536 176 560 152 560 120 c 0
 560 52 470 0 360 0 c 0
 260 0 176 56 164 130 c 1
 242 140 l 1
EndSplineSet
Validated: 1
EndChar

StartChar: uni025E
Encoding: 606 606 367
Width: 720
VWidth: 0
Flags: HMW
LayerCount: 2
Fore
SplineSet
160 200 m 1
 160 310 260 400 360 400 c 0
 470 400 560 348 560 280 c 0
 560 248 536 216 500 196 c 1
 536 176 560 152 560 120 c 0
 560 52 470 0 360 0 c 0
 260 0 160 90 160 200 c 1
240 200 m 1
 240 134 300 80 360 80 c 0
 426 80 480 96 480 120 c 0
 480 144 426 160 360 160 c 2
 320 160 l 1
 320 240 l 1
 360 240 l 2
 426 240 480 256 480 280 c 0
 480 304 426 320 360 320 c 0
 302 320 240 266 240 200 c 1
EndSplineSet
Validated: 1
EndChar

StartChar: uni025F
Encoding: 607 607 368
Width: 720
VWidth: 0
Flags: HMW
LayerCount: 2
Fore
SplineSet
120 -120 m 1
 120 -40 l 1
 240 -40 l 2
 284 -40 320 -4 320 40 c 1
 160 40 l 1
 160 120 l 1
 320 120 l 1
 320 400 l 1
 400 400 l 1
 400 120 l 1
 560 120 l 1
 560 40 l 1
 400 40 l 1
 400 -48 328 -120 240 -120 c 2
 120 -120 l 1
EndSplineSet
Validated: 1
EndChar

StartChar: uni0261
Encoding: 609 609 369
Width: 720
VWidth: 0
Flags: HMW
LayerCount: 2
Fore
SplineSet
480 119 m 1
 434 69 375 40 320 40 c 0
 230 40 160 120 160 220 c 0
 160 320 250 400 360 400 c 2
 560 400 l 1
 560 80 l 2
 560 -30 470 -120 360 -120 c 0
 288 -120 224 -81 189 -23 c 1
 257 18 l 1
 278 -17 317 -40 360 -40 c 0
 426 -40 480 14 480 80 c 2
 480 119 l 1
240 220 m 0
 240 164 274 120 320 120 c 0
 386 120 480 220 480 220 c 1
 480 320 l 1
 360 320 l 2
 294 320 240 276 240 220 c 0
EndSplineSet
Validated: 1
EndChar

StartChar: uni0262
Encoding: 610 610 370
Width: 720
VWidth: 0
Flags: HMW
LayerCount: 2
Fore
SplineSet
360 0 m 2
 250 0 160 90 160 200 c 0
 160 310 250 400 360 400 c 0
 447 400 522 343 549 265 c 1
 468 251 l 1
 449 291 408 320 360 320 c 0
 294 320 240 266 240 200 c 0
 240 134 294 80 360 80 c 2
 470 80 l 1
 470 130 l 1
 370 130 l 1
 370 210 l 1
 550 210 l 1
 550 0 l 1
 360 0 l 2
EndSplineSet
Validated: 1
EndChar

StartChar: uni0265
Encoding: 613 613 371
Width: 720
VWidth: 0
Flags: HMW
LayerCount: 2
Fore
SplineSet
480 99 m 1
 434 49 375 0 320 0 c 0
 230 0 160 90 160 200 c 2
 160 400 l 1
 240 400 l 1
 240 200 l 2
 240 134 274 80 320 80 c 0
 386 80 480 200 480 200 c 1
 480 400 l 1
 560 400 l 1
 560 -120 l 1
 480 -120 l 1
 480 99 l 1
EndSplineSet
Validated: 1
EndChar

StartChar: uni0268
Encoding: 616 616 372
Width: 720
VWidth: 0
Flags: HMW
LayerCount: 2
Fore
SplineSet
160 400 m 1
 400 400 l 1
 400 240 l 1
 560 240 l 1
 560 160 l 1
 400 160 l 1
 400 80 l 1
 560 80 l 1
 560 0 l 1
 160 0 l 1
 160 80 l 1
 320 80 l 1
 320 160 l 1
 160 160 l 1
 160 240 l 1
 320 240 l 1
 320 320 l 1
 160 320 l 1
 160 400 l 1
320 560 m 1
 400 560 l 1
 400 480 l 1
 320 480 l 1
 320 560 l 1
EndSplineSet
Validated: 1
EndChar

StartChar: uni026A
Encoding: 618 618 373
Width: 720
VWidth: 0
Flags: HMW
LayerCount: 2
Fore
SplineSet
240 400 m 25
 480 400 l 25
 480 320 l 25
 400 320 l 25
 400 80 l 25
 480 80 l 25
 480 0 l 25
 240 0 l 25
 240 80 l 25
 320 80 l 25
 320 320 l 25
 240 320 l 25
 240 400 l 25
EndSplineSet
Validated: 1
EndChar

StartChar: uni026F
Encoding: 623 623 374
Width: 720
VWidth: 0
Flags: HMW
LayerCount: 2
Fore
SplineSet
80 400 m 1
 160 400 l 1
 160 160 l 2
 160 116 196 80 240 80 c 0
 284 80 320 116 320 160 c 2
 320 400 l 1
 400 400 l 1
 400 160 l 2
 400 116 436 80 480 80 c 0
 524 80 560 116 560 160 c 2
 560 400 l 1
 640 400 l 1
 640 0 l 1
 560 0 l 1
 560 22 l 1
 536 8 509 0 480 0 c 0
 432 0 389 21 360 54 c 1
 331 21 288 0 240 0 c 0
 152 0 80 72 80 160 c 2
 80 400 l 1
EndSplineSet
Validated: 1
EndChar

StartChar: uni0270
Encoding: 624 624 375
Width: 720
VWidth: 0
Flags: HMW
LayerCount: 2
Fore
SplineSet
80 400 m 1
 160 400 l 1
 160 160 l 2
 160 116 196 80 240 80 c 0
 284 80 320 116 320 160 c 2
 320 400 l 1
 400 400 l 1
 400 160 l 2
 400 116 436 80 480 80 c 0
 524 80 560 116 560 160 c 2
 560 400 l 1
 640 400 l 1
 640 -120 l 1
 560 -120 l 1
 560 22 l 1
 536 8 509 0 480 0 c 0
 432 0 389 21 360 54 c 1
 331 21 288 0 240 0 c 0
 152 0 80 72 80 160 c 2
 80 400 l 1
EndSplineSet
Validated: 1
EndChar

StartChar: uni0271
Encoding: 625 625 376
Width: 720
VWidth: 0
Flags: HMW
LayerCount: 2
Fore
SplineSet
560 80 m 2
 560 240 l 2
 560 284 524 320 480 320 c 0
 436 320 400 284 400 240 c 2
 400 40 l 1
 320 40 l 1
 320 240 l 2
 320 284 284 320 240 320 c 0
 196 320 160 284 160 240 c 2
 160 0 l 1
 80 0 l 1
 80 400 l 1
 160 400 l 1
 160 378 l 1
 184 392 211 400 240 400 c 0
 288 400 331 379 360 346 c 1
 389 379 432 400 480 400 c 0
 568 400 640 328 640 240 c 2
 640 80 l 2
 640 -30 550 -120 440 -120 c 0
 368 -120 304 -81 269 -23 c 1
 337 18 l 1
 358 -17 397 -40 440 -40 c 0
 506 -40 560 14 560 80 c 2
EndSplineSet
Validated: 1
EndChar

StartChar: uni0274
Encoding: 628 628 377
Width: 720
VWidth: 0
Flags: HMW
LayerCount: 2
Fore
SplineSet
160 0 m 1
 160 400 l 1
 216 400 l 1
 480 136 l 1
 480 400 l 1
 560 400 l 1
 560 0 l 1
 504 0 l 1
 240 264 l 1
 240 0 l 1
 160 0 l 1
EndSplineSet
Validated: 1
EndChar

StartChar: uni0275
Encoding: 629 629 378
Width: 720
VWidth: 0
Flags: HMW
LayerCount: 2
Fore
SplineSet
160 200 m 0
 160 310 250 400 360 400 c 0
 470 400 560 310 560 200 c 0
 560 90 470 0 360 0 c 0
 250 0 160 90 160 200 c 0
247 160 m 1
 264 114 308 80 360 80 c 0
 412 80 456 114 473 160 c 1
 247 160 l 1
473 240 m 1
 456 286 412 320 360 320 c 0
 308 320 264 286 247 240 c 1
 473 240 l 1
EndSplineSet
Validated: 1
EndChar

StartChar: uni0276
Encoding: 630 630 379
Width: 720
VWidth: 0
Flags: HMW
LayerCount: 2
Fore
SplineSet
400 320 m 1
 400 240 l 1
 520 240 l 1
 520 160 l 1
 400 160 l 1
 400 80 l 1
 640 80 l 1
 640 0 l 1
 280 0 l 2
 170 0 80 90 80 200 c 0
 80 310 170 400 280 400 c 2
 640 400 l 1
 640 320 l 1
 400 320 l 1
280 320 m 2
 214 320 160 266 160 200 c 0
 160 134 214 80 280 80 c 2
 320 80 l 1
 320 320 l 1
 280 320 l 2
EndSplineSet
Validated: 1
EndChar

StartChar: uni0277
Encoding: 631 631 380
Width: 720
VWidth: 0
Flags: HMW
LayerCount: 2
Fore
SplineSet
360 400 m 1
 470 400 560 300 560 200 c 0
 560 90 508 0 440 0 c 0
 408 0 376 24 356 60 c 1
 336 24 312 0 280 0 c 0
 212 0 160 90 160 200 c 0
 160 300 250 400 360 400 c 1
360 320 m 1
 294 320 240 260 240 200 c 0
 240 134 256 80 280 80 c 0
 304 80 320 134 320 200 c 2
 320 240 l 1
 400 240 l 1
 400 200 l 2
 400 134 416 80 440 80 c 0
 464 80 480 134 480 200 c 0
 480 258 426 320 360 320 c 1
EndSplineSet
Validated: 1
EndChar

StartChar: uni0278
Encoding: 632 632 381
Width: 720
VWidth: 0
Flags: HMW
LayerCount: 2
Fore
SplineSet
320 520 m 1
 400 520 l 1
 400 396 l 1
 491 377 560 296 560 200 c 0
 560 104 491 23 400 4 c 1
 400 -120 l 1
 320 -120 l 1
 320 4 l 1
 229 23 160 104 160 200 c 0
 160 296 229 377 320 396 c 1
 320 520 l 1
320 313 m 1
 274 296 240 252 240 200 c 0
 240 148 274 104 320 87 c 1
 320 313 l 1
400 313 m 1
 400 87 l 1
 446 104 480 148 480 200 c 0
 480 252 446 296 400 313 c 1
EndSplineSet
Validated: 1
EndChar

StartChar: uni0279
Encoding: 633 633 382
Width: 720
VWidth: 0
Flags: HMW
LayerCount: 2
Fore
SplineSet
320 80 m 17
 386 80 480 200 480 200 c 1
 480 400 l 1
 560 400 l 1
 560 0 l 1
 480 0 l 1
 480 99 l 1
 434 49 375 0 320 0 c 9
 200 0 l 1
 200 80 l 1
 320 80 l 17
EndSplineSet
Validated: 1
EndChar

StartChar: uni027A
Encoding: 634 634 383
Width: 720
VWidth: 0
Flags: HMW
LayerCount: 2
Fore
SplineSet
320 80 m 17
 386 80 480 200 480 200 c 1
 480 520 l 1
 560 520 l 1
 560 0 l 1
 480 0 l 1
 480 99 l 1
 434 49 375 0 320 0 c 9
 200 0 l 1
 200 80 l 1
 320 80 l 17
EndSplineSet
Validated: 1
EndChar

StartChar: uni027C
Encoding: 636 636 384
Width: 720
VWidth: 0
Flags: HMW
LayerCount: 2
Fore
SplineSet
400 320 m 17
 334 320 240 200 240 200 c 1
 240 -120 l 1
 160 -120 l 1
 160 400 l 1
 240 400 l 1
 240 301 l 1
 286 351 345 400 400 400 c 9
 520 400 l 1
 520 320 l 1
 400 320 l 17
EndSplineSet
Validated: 1
EndChar

StartChar: uni0280
Encoding: 640 640 385
Width: 720
VWidth: 0
Flags: HMW
LayerCount: 2
Fore
SplineSet
400 400 m 2
 488 400 560 348 560 280 c 0
 560 216 496 167 415 161 c 1
 576 0 l 1
 464 0 l 1
 304 160 l 1
 240 160 l 1
 240 0 l 1
 160 0 l 1
 160 400 l 1
 400 400 l 2
240 320 m 1
 240 240 l 1
 400 240 l 2
 444 240 480 256 480 280 c 0
 480 304 444 320 400 320 c 2
 240 320 l 1
EndSplineSet
Validated: 1
EndChar

StartChar: uni0281
Encoding: 641 641 386
Width: 720
VWidth: 0
Flags: HMW
LayerCount: 2
Fore
SplineSet
400 0 m 2
 160 0 l 1
 160 400 l 1
 240 400 l 1
 240 240 l 1
 304 240 l 1
 464 400 l 1
 576 400 l 1
 415 239 l 1
 496 233 560 184 560 120 c 0
 560 52 488 0 400 0 c 2
240 80 m 1
 400 80 l 2
 444 80 480 96 480 120 c 0
 480 144 444 160 400 160 c 2
 240 160 l 1
 240 80 l 1
EndSplineSet
Validated: 1
EndChar

StartChar: uni0283
Encoding: 643 643 387
Width: 720
VWidth: 0
Flags: HMW
LayerCount: 2
Fore
SplineSet
600 520 m 1
 600 440 l 1
 480 440 l 2
 436 440 400 404 400 360 c 2
 400 40 l 2
 400 -48 328 -120 240 -120 c 2
 120 -120 l 1
 120 -40 l 1
 240 -40 l 2
 284 -40 320 -4 320 40 c 2
 320 360 l 2
 320 448 392 520 480 520 c 2
 600 520 l 1
EndSplineSet
Validated: 1
EndChar

StartChar: uni0284
Encoding: 644 644 388
Width: 720
VWidth: 0
Flags: HMW
LayerCount: 2
Fore
SplineSet
600 520 m 1
 600 440 l 1
 480 440 l 2
 436 440 400 404 400 360 c 2
 400 120 l 1
 560 120 l 1
 560 40 l 1
 400 40 l 1
 400 -48 328 -120 240 -120 c 2
 120 -120 l 1
 120 -40 l 1
 240 -40 l 2
 284 -40 320 -4 320 40 c 1
 160 40 l 1
 160 120 l 1
 320 120 l 1
 320 360 l 2
 320 448 392 520 480 520 c 2
 600 520 l 1
EndSplineSet
Validated: 1
EndChar

StartChar: uni0285
Encoding: 645 645 389
Width: 720
VWidth: 0
Flags: HMW
LayerCount: 2
Fore
SplineSet
600 -120 m 1
 480 -120 l 2
 392 -120 320 -48 320 40 c 2
 320 360 l 2
 320 404 284 440 240 440 c 2
 120 440 l 1
 120 520 l 1
 240 520 l 2
 328 520 400 448 400 360 c 2
 400 40 l 2
 400 -4 436 -40 480 -40 c 2
 600 -40 l 1
 600 -120 l 1
EndSplineSet
Validated: 1
EndChar

StartChar: uni0287
Encoding: 647 647 390
Width: 720
VWidth: 0
Flags: HMW
LayerCount: 2
Fore
SplineSet
320 240 m 2
 320 284 284 320 240 320 c 2
 120 320 l 1
 120 400 l 1
 240 400 l 2
 328 400 400 328 400 240 c 2
 400 80 l 1
 560 80 l 1
 560 0 l 1
 400 0 l 1
 400 -120 l 1
 320 -120 l 1
 320 0 l 1
 160 0 l 1
 160 80 l 1
 320 80 l 1
 320 240 l 2
EndSplineSet
Validated: 1
EndChar

StartChar: uni0288
Encoding: 648 648 391
Width: 720
VWidth: 0
Flags: HMW
LayerCount: 2
Fore
SplineSet
400 40 m 2
 400 -4 436 -40 480 -40 c 2
 600 -40 l 1
 600 -120 l 1
 480 -120 l 2
 392 -120 320 -48 320 40 c 2
 320 320 l 1
 160 320 l 1
 160 400 l 1
 320 400 l 1
 320 520 l 1
 400 520 l 1
 400 400 l 1
 560 400 l 1
 560 320 l 1
 400 320 l 1
 400 40 l 2
EndSplineSet
Validated: 1
EndChar

StartChar: uni0289
Encoding: 649 649 392
Width: 720
VWidth: 0
Flags: HMW
LayerCount: 2
Fore
SplineSet
480 99 m 1
 434 49 375 0 320 0 c 0
 230 0 160 90 160 200 c 2
 160 240 l 1
 80 240 l 1
 80 320 l 1
 160 320 l 1
 160 400 l 1
 240 400 l 1
 240 320 l 1
 480 320 l 1
 480 400 l 1
 560 400 l 1
 560 320 l 1
 640 320 l 1
 640 240 l 1
 560 240 l 1
 560 0 l 1
 480 0 l 1
 480 99 l 1
240 240 m 1
 240 200 l 2
 240 134 274 80 320 80 c 0
 386 80 480 200 480 200 c 1
 480 240 l 1
 240 240 l 1
EndSplineSet
Validated: 1
EndChar

StartChar: uni028A
Encoding: 650 650 393
Width: 720
VWidth: 0
Flags: HW
LayerCount: 2
Fore
SplineSet
320 236 m 5
 274 225 240 196 240 160 c 4
 240 114 294 80 360 80 c 4
 426 80 480 114 480 160 c 4
 480 196 446 225 400 236 c 5
 400 400 l 5
 560 400 l 5
 560 320 l 5
 480 320 l 5
 480 288 l 5
 529 259 560 213 560 160 c 4
 560 70 470 0 360 0 c 4
 250 0 160 70 160 160 c 4
 160 213 191 259 240 288 c 5
 240 320 l 5
 160 320 l 5
 160 400 l 5
 320 400 l 5
 320 236 l 5
EndSplineSet
Validated: 1
EndChar

StartChar: uni028B
Encoding: 651 651 394
Width: 720
VWidth: 0
Flags: HMW
LayerCount: 2
Fore
SplineSet
160 400 m 1
 240 400 l 1
 240 200 l 2
 240 134 254 80 320 80 c 0
 386 80 480 174 480 240 c 0
 480 306 426 320 360 320 c 2
 320 320 l 1
 320 400 l 1
 360 400 l 2
 470 400 560 350 560 240 c 0
 560 130 430 0 320 0 c 0
 210 0 160 90 160 200 c 2
 160 400 l 1
EndSplineSet
Validated: 1
EndChar

StartChar: uni028C
Encoding: 652 652 395
Width: 720
VWidth: 0
Flags: HMW
LayerCount: 2
Fore
SplineSet
335 400 m 1
 385 400 l 1
 585 0 l 1
 495 0 l 1
 360 271 l 1
 225 0 l 1
 135 0 l 1
 335 400 l 1
EndSplineSet
Validated: 1
EndChar

StartChar: uni028D
Encoding: 653 653 396
Width: 720
VWidth: 0
Flags: HMW
LayerCount: 2
Fore
SplineSet
661 0 m 1
 574 0 l 1
 463 258 l 1
 387 80 l 1
 333 80 l 1
 257 258 l 1
 146 0 l 1
 59 0 l 1
 231 400 l 1
 283 400 l 1
 360 221 l 1
 437 400 l 1
 489 400 l 1
 661 0 l 1
EndSplineSet
Validated: 1
EndChar

StartChar: uni028E
Encoding: 654 654 397
Width: 720
VWidth: 0
Flags: HMW
LayerCount: 2
Fore
SplineSet
240 281 m 1
 286 331 345 360 400 360 c 0
 490 360 560 280 560 180 c 2
 560 0 l 1
 480 0 l 1
 480 180 l 2
 480 236 446 280 400 280 c 0
 334 280 240 180 240 180 c 1
 240 0 l 1
 160 0 l 1
 160 320 l 2
 160 430 250 520 360 520 c 0
 432 520 496 481 531 423 c 1
 463 382 l 1
 442 417 403 440 360 440 c 0
 294 440 240 386 240 320 c 2
 240 281 l 1
EndSplineSet
Validated: 1
EndChar

StartChar: uni028F
Encoding: 655 655 398
Width: 720
VWidth: 0
Flags: HMW
LayerCount: 2
Fore
SplineSet
103 400 m 1
 217 400 l 1
 360 257 l 1
 503 400 l 1
 617 400 l 1
 400 183 l 1
 400 0 l 1
 320 0 l 1
 320 183 l 1
 103 400 l 1
EndSplineSet
Validated: 1
EndChar

StartChar: uni0294
Encoding: 660 660 399
Width: 720
VWidth: 0
Flags: HW
LayerCount: 2
Fore
SplineSet
320 160 m 2
 320 268 480 266 480 350 c 0
 480 378 426 400 360 400 c 0
 302 400 253 383 242 360 c 1
 162 370 l 1
 177 433 260 480 360 480 c 0
 470 480 560 422 560 350 c 0
 560 242 400 244 400 160 c 2
 400 0 l 1
 320 0 l 1
 320 160 l 2
EndSplineSet
Validated: 1
EndChar

StartChar: uni0295
Encoding: 661 661 400
Width: 720
VWidth: 0
Flags: HW
LayerCount: 2
Fore
SplineSet
400 160 m 2
 400 0 l 1
 320 0 l 1
 320 160 l 2
 320 244 160 242 160 350 c 0
 160 422 250 480 360 480 c 0
 460 480 543 433 558 370 c 1
 478 360 l 1
 467 383 418 400 360 400 c 0
 294 400 240 378 240 350 c 0
 240 266 400 268 400 160 c 2
EndSplineSet
Validated: 1
EndChar

StartChar: uni0296
Encoding: 662 662 401
Width: 720
VWidth: 0
Flags: HW
LayerCount: 2
Fore
SplineSet
320 320 m 2
 320 480 l 1
 400 480 l 1
 400 320 l 2
 400 236 560 238 560 130 c 0
 560 58 470 0 360 0 c 0
 260 0 177 47 162 110 c 1
 242 120 l 1
 253 97 302 80 360 80 c 0
 426 80 480 102 480 130 c 0
 480 214 320 212 320 320 c 2
EndSplineSet
Validated: 1
EndChar

StartChar: uni0299
Encoding: 665 665 402
Width: 720
VWidth: 0
Flags: HMW
LayerCount: 2
Fore
SplineSet
400 400 m 2
 488 400 560 348 560 280 c 0
 560 249 545 221 520 200 c 1
 545 179 560 151 560 120 c 0
 560 52 488 0 400 0 c 2
 160 0 l 1
 160 400 l 1
 400 400 l 2
400 240 m 2
 444 240 480 256 480 280 c 0
 480 304 444 320 400 320 c 2
 240 320 l 1
 240 240 l 1
 400 240 l 2
240 160 m 1
 240 80 l 1
 400 80 l 2
 444 80 480 96 480 120 c 0
 480 144 444 160 400 160 c 2
 240 160 l 1
EndSplineSet
Validated: 1
EndChar

StartChar: uni029A
Encoding: 666 666 403
Width: 720
VWidth: 0
Flags: HW
LayerCount: 2
Fore
SplineSet
560 200 m 1
 560 90 460 0 360 0 c 0
 250 0 160 52 160 120 c 0
 160 152 184 184 220 204 c 1
 184 224 160 248 160 280 c 0
 160 348 250 400 360 400 c 0
 460 400 560 310 560 200 c 1
480 200 m 1
 480 266 420 320 360 320 c 0
 294 320 240 304 240 280 c 0
 240 256 294 240 360 240 c 2
 400 240 l 1
 400 160 l 1
 360 160 l 2
 294 160 240 144 240 120 c 0
 240 96 294 80 360 80 c 0
 418 80 480 134 480 200 c 1
EndSplineSet
Validated: 1
EndChar

StartChar: uni029C
Encoding: 668 668 404
Width: 720
VWidth: 0
Flags: HMW
LayerCount: 2
Fore
SplineSet
160 400 m 1
 240 400 l 1
 240 240 l 1
 480 240 l 1
 480 400 l 1
 560 400 l 1
 560 0 l 1
 480 0 l 1
 480 160 l 1
 240 160 l 1
 240 0 l 1
 160 0 l 1
 160 400 l 1
EndSplineSet
Validated: 1
EndChar

StartChar: uni029E
Encoding: 670 670 405
Width: 720
VWidth: 0
Flags: HMW
LayerCount: 2
Fore
SplineSet
560 -120 m 1
 480 -120 l 1
 480 183 l 1
 297 0 l 1
 183 0 l 1
 343 160 l 1
 103 400 l 1
 217 400 l 1
 400 217 l 1
 480 297 l 1
 480 400 l 1
 560 400 l 1
 560 -120 l 1
EndSplineSet
Validated: 1
EndChar

StartChar: uni029F
Encoding: 671 671 406
Width: 720
VWidth: 0
Flags: HMW
LayerCount: 2
Fore
SplineSet
160 400 m 25
 240 400 l 25
 240 80 l 25
 560 80 l 25
 560 0 l 25
 160 0 l 25
 160 400 l 25
EndSplineSet
Validated: 1
EndChar

StartChar: circumflex
Encoding: 710 710 407
Width: 720
VWidth: 0
Flags: HMW
LayerCount: 2
Fore
SplineSet
268 332 m 1
 212 388 l 1
 360 537 l 1
 508 388 l 1
 452 332 l 1
 360 423 l 1
 268 332 l 1
EndSplineSet
Validated: 1
EndChar

StartChar: caron
Encoding: 711 711 408
Width: 720
VWidth: 0
Flags: HMW
LayerCount: 2
Fore
SplineSet
452 548 m 1
 508 492 l 1
 360 343 l 1
 212 492 l 1
 268 548 l 1
 360 457 l 1
 452 548 l 1
EndSplineSet
Validated: 1
EndChar

StartChar: uni02C8
Encoding: 712 712 409
Width: 720
VWidth: 0
Flags: HMW
LayerCount: 2
Fore
SplineSet
400 560 m 1
 400 320 l 1
 320 320 l 1
 320 560 l 1
 400 560 l 1
EndSplineSet
Validated: 1
EndChar

StartChar: uni02C9
Encoding: 713 713 410
Width: 720
VWidth: 0
Flags: HMW
LayerCount: 2
Fore
SplineSet
240 480 m 1
 480 480 l 1
 480 400 l 1
 240 400 l 1
 240 480 l 1
EndSplineSet
Validated: 1
EndChar

StartChar: uni02CA
Encoding: 714 714 411
Width: 720
VWidth: 0
Flags: HMW
LayerCount: 2
Fore
SplineSet
292 388 m 1
 440 537 l 1
 497 480 l 1
 348 332 l 1
 292 388 l 1
EndSplineSet
Validated: 1
EndChar

StartChar: uni02CB
Encoding: 715 715 412
Width: 720
VWidth: 0
Flags: HMW
LayerCount: 2
Fore
SplineSet
223 480 m 1
 280 537 l 1
 428 388 l 1
 372 332 l 1
 223 480 l 1
EndSplineSet
Validated: 1
EndChar

StartChar: uni02CC
Encoding: 716 716 413
Width: 720
VWidth: 0
Flags: HMW
LayerCount: 2
Fore
SplineSet
400 80 m 1
 400 -160 l 1
 320 -160 l 1
 320 80 l 1
 400 80 l 1
EndSplineSet
Validated: 1
EndChar

StartChar: uni02CD
Encoding: 717 717 414
Width: 720
VWidth: 0
Flags: HMW
LayerCount: 2
Fore
SplineSet
240 0 m 1
 480 0 l 1
 480 -80 l 1
 240 -80 l 1
 240 0 l 1
EndSplineSet
Validated: 1
EndChar

StartChar: uni02CE
Encoding: 718 718 415
Width: 720
VWidth: 0
Flags: HMW
LayerCount: 2
Fore
SplineSet
223 0 m 1
 280 57 l 1
 428 -92 l 1
 372 -148 l 1
 223 0 l 1
EndSplineSet
Validated: 1
EndChar

StartChar: uni02CF
Encoding: 719 719 416
Width: 720
VWidth: 0
Flags: HMW
LayerCount: 2
Fore
SplineSet
292 -92 m 1
 440 57 l 1
 497 0 l 1
 348 -148 l 1
 292 -92 l 1
EndSplineSet
Validated: 1
EndChar

StartChar: uni02D0
Encoding: 720 720 417
Width: 720
VWidth: 0
Flags: HMW
LayerCount: 2
Fore
SplineSet
240 0 m 1
 360 160 l 1
 480 0 l 1
 240 0 l 1
240 400 m 1
 480 400 l 1
 360 240 l 1
 240 400 l 1
EndSplineSet
Validated: 1
EndChar

StartChar: uni02D1
Encoding: 721 721 418
Width: 720
VWidth: 0
Flags: HMW
LayerCount: 2
Fore
SplineSet
240 400 m 1
 480 400 l 1
 360 240 l 1
 240 400 l 1
EndSplineSet
Validated: 1
EndChar

StartChar: breve
Encoding: 728 728 419
Width: 720
VWidth: 0
Flags: HMW
LayerCount: 2
Fore
SplineSet
400 520 m 1
 480 520 l 1
 480 454 408 400 320 400 c 0
 232 400 160 454 160 520 c 1
 240 520 l 1
 240 498 276 480 320 480 c 0
 364 480 400 498 400 520 c 1
EndSplineSet
Validated: 1
EndChar

StartChar: dotaccent
Encoding: 729 729 420
Width: 720
VWidth: 0
Flags: HMW
LayerCount: 2
Fore
SplineSet
320 480 m 25
 400 480 l 25
 400 400 l 25
 320 400 l 25
 320 480 l 25
EndSplineSet
Validated: 1
EndChar

StartChar: ring
Encoding: 730 730 421
Width: 720
VWidth: 0
Flags: HMW
LayerCount: 2
Fore
SplineSet
240 400 m 0
 240 378 276 360 320 360 c 0
 364 360 400 378 400 400 c 0
 400 422 364 440 320 440 c 0
 276 440 240 422 240 400 c 0
160 400 m 0
 160 466 232 520 320 520 c 0
 408 520 480 466 480 400 c 0
 480 334 408 280 320 280 c 0
 232 280 160 334 160 400 c 0
EndSplineSet
Validated: 1
EndChar

StartChar: ogonek
Encoding: 731 731 422
Width: 720
VWidth: 0
Flags: HMW
LayerCount: 2
Fore
SplineSet
320 -40 m 0
 320 -22 324 -4 331 12 c 1
 303 40 l 1
 360 97 l 1
 441 16 l 1
 407 -18 l 1
 403 -24 400 -32 400 -40 c 0
 400 -62 418 -80 440 -80 c 0
 451 -80 461 -75 468 -68 c 1
 525 -125 l 1
 503 -147 473 -160 440 -160 c 0
 374 -160 320 -106 320 -40 c 0
EndSplineSet
Validated: 1
EndChar

StartChar: tilde
Encoding: 732 732 423
Width: 720
VWidth: 0
Flags: HMW
LayerCount: 2
Fore
SplineSet
340 405 m 0
 327 412 314 416 300 416 c 0
 273 416 246 401 231 376 c 1
 161 416 l 1
 191 467 245 496 301 496 c 0
 328 496 355 489 380 475 c 0
 393 468 406 464 420 464 c 0
 447 464 474 479 489 504 c 1
 559 464 l 1
 529 413 475 384 419 384 c 0
 392 384 365 391 340 405 c 0
EndSplineSet
Validated: 1
EndChar

StartChar: hungarumlaut
Encoding: 733 733 424
Width: 720
VWidth: 0
Flags: HMW
LayerCount: 2
Fore
SplineSet
172 388 m 1
 320 537 l 1
 377 480 l 1
 228 332 l 1
 172 388 l 1
412 388 m 1
 560 537 l 1
 617 480 l 1
 468 332 l 1
 412 388 l 1
EndSplineSet
Validated: 1
EndChar

StartChar: uni037B
Encoding: 891 891 425
Width: 720
VWidth: 0
Flags: HW
LayerCount: 2
Fore
SplineSet
560 200 m 0
 560 90 470 0 360 0 c 0
 273 0 198 57 171 135 c 1
 252 149 l 1
 271 109 312 80 360 80 c 4
 426 80 480 134 480 200 c 0
 480 266 426 320 360 320 c 0
 312 320 271 291 252 251 c 1
 171 265 l 1
 198 343 273 400 360 400 c 0
 470 400 560 310 560 200 c 0
EndSplineSet
Validated: 1
EndChar

StartChar: uni037C
Encoding: 892 892 426
Width: 720
VWidth: 0
Flags: HW
LayerCount: 2
Fore
SplineSet
310 200 m 0
 310 228 332 250 360 250 c 0
 388 250 410 228 410 200 c 0
 410 172 388 150 360 150 c 0
 332 150 310 172 310 200 c 0
160 200 m 0
 160 310 250 400 360 400 c 0
 447 400 522 343 549 265 c 1
 468 251 l 1
 449 291 408 320 360 320 c 0
 294 320 240 266 240 200 c 0
 240 134 294 80 360 80 c 0
 408 80 449 109 468 149 c 1
 549 135 l 1
 522 57 447 0 360 0 c 0
 250 0 160 90 160 200 c 0
EndSplineSet
Validated: 1
EndChar

StartChar: uni037D
Encoding: 893 893 427
Width: 720
VWidth: 0
Flags: HW
LayerCount: 2
Fore
SplineSet
310 200 m 0
 310 228 332 250 360 250 c 0
 388 250 410 228 410 200 c 0
 410 172 388 150 360 150 c 0
 332 150 310 172 310 200 c 0
560 200 m 0
 560 90 470 0 360 0 c 0
 273 0 198 57 171 135 c 1
 252 149 l 1
 271 109 312 80 360 80 c 0
 426 80 480 134 480 200 c 0
 480 266 426 320 360 320 c 0
 312 320 271 291 252 251 c 1
 171 265 l 1
 198 343 273 400 360 400 c 0
 470 400 560 310 560 200 c 0
EndSplineSet
Validated: 1
EndChar

StartChar: uni037E
Encoding: 894 894 428
Width: 720
VWidth: 0
Flags: HW
LayerCount: 2
Fore
SplineSet
320 97 m 1
 377 40 l 1
 240 -97 l 1
 183 -40 l 1
 320 97 l 1
270 290 m 0
 270 318 292 340 320 340 c 0
 348 340 370 318 370 290 c 0
 370 262 348 240 320 240 c 0
 292 240 270 262 270 290 c 0
EndSplineSet
Validated: 1
EndChar

StartChar: uni037F
Encoding: 895 895 429
Width: 720
VWidth: 0
Flags: HW
LayerCount: 2
Fore
SplineSet
320 480 m 1
 560 480 l 1
 560 400 l 1
 480 400 l 1
 480 200 l 2
 480 90 390 0 280 0 c 0
 193 0 118 57 91 135 c 1
 172 149 l 1
 191 109 232 80 280 80 c 0
 346 80 400 134 400 200 c 2
 400 400 l 1
 320 400 l 1
 320 480 l 1
EndSplineSet
Validated: 1
EndChar

StartChar: tonos
Encoding: 900 900 430
Width: 720
VWidth: 0
Flags: HMW
LayerCount: 2
Fore
SplineSet
292 388 m 1
 440 537 l 1
 497 480 l 1
 348 332 l 1
 292 388 l 1
EndSplineSet
Validated: 1
EndChar

StartChar: dieresistonos
Encoding: 901 901 431
Width: 720
VWidth: 0
Flags: HMW
LayerCount: 2
Fore
SplineSet
252 388 m 1
 400 537 l 1
 457 480 l 1
 308 332 l 1
 252 388 l 1
480 480 m 25
 560 480 l 25
 560 400 l 25
 480 400 l 25
 480 480 l 25
160 480 m 25
 240 480 l 25
 240 400 l 25
 160 400 l 25
 160 480 l 25
EndSplineSet
Validated: 1
EndChar

StartChar: Alphatonos
Encoding: 902 902 432
Width: 720
VWidth: 0
Flags: HMW
LayerCount: 2
Fore
SplineSet
240 183 m 1
 240 180 l 1
 480 180 l 1
 480 183 l 1
 360 303 l 1
 240 183 l 1
160 217 m 1
 343 400 l 1
 377 400 l 1
 560 217 l 1
 560 0 l 1
 480 0 l 1
 480 100 l 1
 240 100 l 1
 240 0 l 1
 160 0 l 1
 160 217 l 1
304 499 m 1
 452 648 l 1
 509 591 l 1
 360 443 l 1
 304 499 l 1
EndSplineSet
Validated: 1
EndChar

StartChar: anoteleia
Encoding: 903 903 433
Width: 720
VWidth: 0
Flags: HMW
LayerCount: 2
Fore
SplineSet
270 210 m 0
 270 238 292 260 320 260 c 0
 348 260 370 238 370 210 c 0
 370 182 348 160 320 160 c 0
 292 160 270 182 270 210 c 0
EndSplineSet
Validated: 1
EndChar

StartChar: Epsilontonos
Encoding: 904 904 434
Width: 720
VWidth: 0
Flags: HMW
LayerCount: 2
Fore
SplineSet
240 320 m 1
 240 240 l 1
 440 240 l 1
 440 160 l 1
 240 160 l 1
 240 80 l 1
 560 80 l 1
 560 0 l 1
 160 0 l 1
 160 400 l 1
 560 400 l 1
 560 320 l 1
 240 320 l 1
304 499 m 1
 452 648 l 1
 509 591 l 1
 360 443 l 1
 304 499 l 1
EndSplineSet
Validated: 1
EndChar

StartChar: Etatonos
Encoding: 905 905 435
Width: 720
VWidth: 0
Flags: HMW
LayerCount: 2
Fore
SplineSet
304 499 m 1
 452 648 l 1
 509 591 l 1
 360 443 l 1
 304 499 l 1
160 400 m 1
 240 400 l 1
 240 240 l 1
 480 240 l 1
 480 400 l 1
 560 400 l 1
 560 0 l 1
 480 0 l 1
 480 160 l 1
 240 160 l 1
 240 0 l 1
 160 0 l 1
 160 400 l 1
EndSplineSet
Validated: 1
EndChar

StartChar: Iotatonos
Encoding: 906 906 436
Width: 720
VWidth: 0
Flags: HMW
LayerCount: 2
Fore
SplineSet
240 400 m 25
 480 400 l 25
 480 320 l 25
 400 320 l 25
 400 80 l 25
 480 80 l 25
 480 0 l 25
 240 0 l 25
 240 80 l 25
 320 80 l 25
 320 320 l 25
 240 320 l 25
 240 400 l 25
304 499 m 1
 452 648 l 1
 509 591 l 1
 360 443 l 1
 304 499 l 1
EndSplineSet
Validated: 1
EndChar

StartChar: Omicrontonos
Encoding: 908 908 437
Width: 720
VWidth: 0
Flags: HMW
LayerCount: 2
Fore
SplineSet
240 200 m 0
 240 134 294 80 360 80 c 0
 426 80 480 134 480 200 c 0
 480 266 426 320 360 320 c 0
 294 320 240 266 240 200 c 0
160 200 m 0
 160 310 250 400 360 400 c 0
 470 400 560 310 560 200 c 0
 560 90 470 0 360 0 c 0
 250 0 160 90 160 200 c 0
304 499 m 1
 452 648 l 1
 509 591 l 1
 360 443 l 1
 304 499 l 1
EndSplineSet
Validated: 1
EndChar

StartChar: Upsilontonos
Encoding: 910 910 438
Width: 720
VWidth: 0
Flags: HMW
LayerCount: 2
Fore
SplineSet
103 400 m 1
 217 400 l 1
 360 257 l 1
 503 400 l 1
 617 400 l 1
 400 183 l 1
 400 0 l 1
 320 0 l 1
 320 183 l 1
 103 400 l 1
304 499 m 1
 452 648 l 1
 509 591 l 1
 360 443 l 1
 304 499 l 1
EndSplineSet
Validated: 1
EndChar

StartChar: Omegatonos
Encoding: 911 911 439
Width: 720
VWidth: 0
Flags: HMW
LayerCount: 2
Fore
SplineSet
304 499 m 1
 452 648 l 1
 509 591 l 1
 360 443 l 1
 304 499 l 1
400 164 m 1
 446 175 480 204 480 240 c 0
 480 286 426 320 360 320 c 0
 294 320 240 286 240 240 c 0
 240 204 274 175 320 164 c 1
 320 0 l 1
 160 0 l 1
 160 80 l 1
 240 80 l 1
 240 112 l 1
 191 141 160 187 160 240 c 0
 160 330 250 400 360 400 c 0
 470 400 560 330 560 240 c 0
 560 187 529 141 480 112 c 1
 480 80 l 1
 560 80 l 1
 560 0 l 1
 400 0 l 1
 400 164 l 1
EndSplineSet
Validated: 1
EndChar

StartChar: iotadieresistonos
Encoding: 912 912 440
Width: 720
VWidth: 0
Flags: HMW
LayerCount: 2
Fore
SplineSet
480 590 m 25
 560 590 l 25
 560 510 l 25
 480 510 l 25
 480 590 l 25
160 590 m 25
 240 590 l 25
 240 510 l 25
 160 510 l 25
 160 590 l 25
259 499 m 1
 407 648 l 1
 464 591 l 1
 315 443 l 1
 259 499 l 1
480 80 m 1
 480 0 l 1
 392 0 320 72 320 160 c 2
 320 400 l 1
 400 400 l 1
 400 160 l 2
 400 116 436 80 480 80 c 1
EndSplineSet
Validated: 1
EndChar

StartChar: Alpha
Encoding: 913 913 441
Width: 720
VWidth: 0
Flags: HMW
LayerCount: 2
Fore
SplineSet
160 263 m 1
 160 260 l 1
 480 260 l 1
 480 263 l 1
 343 400 l 1
 297 400 l 1
 160 263 l 1
80 297 m 1
 263 480 l 1
 377 480 l 1
 560 297 l 1
 560 0 l 1
 480 0 l 1
 480 180 l 1
 160 180 l 1
 160 0 l 1
 80 0 l 1
 80 297 l 1
EndSplineSet
Validated: 1
EndChar

StartChar: Beta
Encoding: 914 914 442
Width: 720
VWidth: 0
Flags: HMW
LayerCount: 2
Fore
SplineSet
160 400 m 1
 160 300 l 1
 410 300 l 2
 438 300 460 322 460 350 c 0
 460 378 438 400 410 400 c 2
 160 400 l 1
410 480 m 2
 482 480 540 422 540 350 c 0
 540 317 528 287 508 264 c 1
 540 237 560 196 560 150 c 0
 560 67 493 0 410 0 c 2
 80 0 l 1
 80 480 l 1
 410 480 l 2
410 80 m 2
 449 80 480 111 480 150 c 0
 480 189 449 220 410 220 c 2
 160 220 l 1
 160 80 l 1
 410 80 l 2
EndSplineSet
Validated: 1
EndChar

StartChar: Gamma
Encoding: 915 915 443
Width: 720
VWidth: 0
Flags: HMW
LayerCount: 2
Fore
SplineSet
160 400 m 1
 160 0 l 1
 80 0 l 1
 80 480 l 1
 560 480 l 1
 560 400 l 1
 160 400 l 1
EndSplineSet
Validated: 1
EndChar

StartChar: uni0394
Encoding: 916 916 444
Width: 720
VWidth: 0
Flags: HMW
LayerCount: 2
Fore
SplineSet
333 480 m 1
 387 480 l 1
 579 0 l 1
 141 0 l 1
 333 480 l 1
461 80 m 1
 360 332 l 1
 259 80 l 1
 461 80 l 1
EndSplineSet
Validated: 1
EndChar

StartChar: Epsilon
Encoding: 917 917 445
Width: 720
VWidth: 0
Flags: HMW
LayerCount: 2
Fore
SplineSet
160 400 m 1
 160 300 l 1
 440 300 l 1
 440 220 l 1
 160 220 l 1
 160 80 l 1
 560 80 l 1
 560 0 l 1
 80 0 l 1
 80 480 l 1
 560 480 l 1
 560 400 l 1
 160 400 l 1
EndSplineSet
Validated: 1
EndChar

StartChar: Zeta
Encoding: 918 918 446
Width: 720
VWidth: 0
Flags: HMW
LayerCount: 2
Fore
SplineSet
80 480 m 1
 560 480 l 1
 560 424 l 1
 216 80 l 1
 560 80 l 1
 560 0 l 1
 80 0 l 1
 80 56 l 1
 424 400 l 1
 80 400 l 1
 80 480 l 1
EndSplineSet
Validated: 1
EndChar

StartChar: Eta
Encoding: 919 919 447
Width: 720
VWidth: 0
Flags: HMW
LayerCount: 2
Fore
SplineSet
80 480 m 1
 160 480 l 1
 160 300 l 1
 480 300 l 1
 480 480 l 1
 560 480 l 1
 560 0 l 1
 480 0 l 1
 480 220 l 1
 160 220 l 1
 160 0 l 1
 80 0 l 1
 80 480 l 1
EndSplineSet
Validated: 1
EndChar

StartChar: Theta
Encoding: 920 920 448
Width: 720
VWidth: 0
Flags: HMW
LayerCount: 2
Fore
SplineSet
240 200 m 1
 240 280 l 1
 400 280 l 1
 400 200 l 1
 240 200 l 1
160 240 m 0
 160 152 232 80 320 80 c 0
 408 80 480 152 480 240 c 0
 480 328 408 400 320 400 c 0
 232 400 160 328 160 240 c 0
80 240 m 0
 80 372 188 480 320 480 c 0
 452 480 560 372 560 240 c 0
 560 108 452 0 320 0 c 0
 188 0 80 108 80 240 c 0
EndSplineSet
Validated: 1
EndChar

StartChar: Iota
Encoding: 921 921 449
Width: 720
VWidth: 0
Flags: HMW
LayerCount: 2
Fore
SplineSet
240 480 m 25
 480 480 l 25
 480 400 l 25
 400 400 l 25
 400 80 l 25
 480 80 l 25
 480 0 l 25
 240 0 l 25
 240 80 l 25
 320 80 l 25
 320 400 l 25
 240 400 l 25
 240 480 l 25
EndSplineSet
Validated: 1
EndChar

StartChar: Kappa
Encoding: 922 922 450
Width: 720
VWidth: 0
Flags: HMW
LayerCount: 2
Fore
SplineSet
80 480 m 1
 160 480 l 1
 160 216 l 1
 424 480 l 1
 536 480 l 1
 336 280 l 1
 616 0 l 1
 504 0 l 1
 280 224 l 1
 160 104 l 1
 160 0 l 1
 80 0 l 1
 80 480 l 1
EndSplineSet
Validated: 1
EndChar

StartChar: Lambda
Encoding: 923 923 451
Width: 720
VWidth: 0
Flags: HMW
LayerCount: 2
Fore
SplineSet
333 480 m 1
 387 480 l 1
 579 0 l 1
 493 0 l 1
 360 332 l 1
 227 0 l 1
 141 0 l 1
 333 480 l 1
EndSplineSet
Validated: 1
EndChar

StartChar: Mu
Encoding: 924 924 452
Width: 720
VWidth: 0
Flags: HMW
LayerCount: 2
Fore
SplineSet
80 0 m 1
 80 480 l 1
 136 480 l 1
 320 296 l 1
 504 480 l 1
 560 480 l 1
 560 0 l 1
 480 0 l 1
 480 344 l 1
 320 184 l 1
 160 344 l 1
 160 0 l 1
 80 0 l 1
EndSplineSet
Validated: 1
EndChar

StartChar: Nu
Encoding: 925 925 453
Width: 720
VWidth: 0
Flags: HMW
LayerCount: 2
Fore
SplineSet
80 0 m 1
 80 480 l 1
 136 480 l 1
 480 136 l 1
 480 480 l 1
 560 480 l 1
 560 0 l 1
 504 0 l 1
 160 344 l 1
 160 0 l 1
 80 0 l 1
EndSplineSet
Validated: 1
EndChar

StartChar: Xi
Encoding: 926 926 454
Width: 720
VWidth: 0
Flags: HMW
LayerCount: 2
Fore
SplineSet
80 400 m 1
 80 480 l 1
 560 480 l 1
 560 400 l 1
 80 400 l 1
200 300 m 1
 440 300 l 1
 440 220 l 1
 200 220 l 1
 200 300 l 1
80 80 m 1
 560 80 l 1
 560 0 l 1
 80 0 l 1
 80 80 l 1
EndSplineSet
Validated: 1
EndChar

StartChar: Omicron
Encoding: 927 927 455
Width: 720
VWidth: 0
Flags: HMW
LayerCount: 2
Fore
SplineSet
160 240 m 0
 160 152 232 80 320 80 c 0
 408 80 480 152 480 240 c 0
 480 328 408 400 320 400 c 0
 232 400 160 328 160 240 c 0
80 240 m 0
 80 372 188 480 320 480 c 0
 452 480 560 372 560 240 c 0
 560 108 452 0 320 0 c 0
 188 0 80 108 80 240 c 0
EndSplineSet
Validated: 1
EndChar

StartChar: Pi
Encoding: 928 928 456
Width: 720
VWidth: 0
Flags: HMW
LayerCount: 2
Fore
SplineSet
80 480 m 1
 560 480 l 1
 560 0 l 1
 480 0 l 1
 480 400 l 1
 160 400 l 1
 160 0 l 1
 80 0 l 1
 80 480 l 1
EndSplineSet
Validated: 1
EndChar

StartChar: Rho
Encoding: 929 929 457
Width: 720
VWidth: 0
Flags: HMW
LayerCount: 2
Fore
SplineSet
160 400 m 1
 160 240 l 1
 400 240 l 2
 444 240 480 276 480 320 c 0
 480 364 444 400 400 400 c 2
 160 400 l 1
400 480 m 2
 488 480 560 408 560 320 c 0
 560 232 488 160 400 160 c 2
 160 160 l 1
 160 0 l 1
 80 0 l 1
 80 480 l 1
 400 480 l 2
EndSplineSet
Validated: 1
EndChar

StartChar: Sigma
Encoding: 931 931 458
Width: 720
VWidth: 0
Flags: HMW
LayerCount: 2
Fore
SplineSet
376 240 m 1
 216 80 l 1
 560 80 l 1
 560 0 l 1
 80 0 l 1
 80 56 l 1
 264 240 l 1
 80 424 l 1
 80 480 l 1
 560 480 l 1
 560 400 l 1
 216 400 l 1
 376 240 l 1
EndSplineSet
Validated: 1
EndChar

StartChar: Tau
Encoding: 932 932 459
Width: 720
VWidth: 0
Flags: HMW
LayerCount: 2
Fore
SplineSet
120 480 m 25
 600 480 l 25
 600 400 l 25
 400 400 l 25
 400 0 l 25
 320 0 l 25
 320 400 l 25
 120 400 l 25
 120 480 l 25
EndSplineSet
Validated: 1
EndChar

StartChar: Upsilon
Encoding: 933 933 460
Width: 720
VWidth: 0
Flags: HMW
LayerCount: 2
Fore
SplineSet
63 480 m 1
 177 480 l 1
 360 297 l 1
 543 480 l 1
 657 480 l 1
 400 223 l 1
 400 0 l 1
 320 0 l 1
 320 223 l 1
 63 480 l 1
EndSplineSet
Validated: 1
EndChar

StartChar: Phi
Encoding: 934 934 461
Width: 720
VWidth: 0
Flags: HMW
LayerCount: 2
Fore
SplineSet
320 480 m 1
 400 480 l 1
 400 397 l 1
 491 382 560 317 560 240 c 0
 560 163 491 98 400 83 c 1
 400 0 l 1
 320 0 l 1
 320 83 l 1
 229 98 160 163 160 240 c 0
 160 317 229 382 320 397 c 1
 320 480 l 1
320 315 m 1
 274 304 240 275 240 240 c 0
 240 205 274 176 320 165 c 1
 320 315 l 1
400 315 m 1
 400 165 l 1
 446 176 480 205 480 240 c 0
 480 275 446 304 400 315 c 1
EndSplineSet
Validated: 1
EndChar

StartChar: Chi
Encoding: 935 935 462
Width: 720
VWidth: 0
Flags: HMW
LayerCount: 2
Fore
SplineSet
656 0 m 1
 544 0 l 1
 360 183 l 1
 176 0 l 1
 64 0 l 1
 303 240 l 1
 64 480 l 1
 176 480 l 1
 360 297 l 1
 544 480 l 1
 656 480 l 1
 417 240 l 1
 656 0 l 1
EndSplineSet
Validated: 1
EndChar

StartChar: Psi
Encoding: 936 936 463
Width: 720
VWidth: 0
Flags: HMW
LayerCount: 2
Fore
SplineSet
320 480 m 1
 400 480 l 1
 400 240 l 1
 444 240 480 276 480 320 c 0
 480 408 552 480 640 480 c 1
 640 400 l 1
 596 400 560 364 560 320 c 0
 560 232 488 160 400 160 c 1
 400 0 l 1
 320 0 l 1
 320 160 l 1
 232 160 160 232 160 320 c 0
 160 364 124 400 80 400 c 1
 80 480 l 1
 168 480 240 408 240 320 c 0
 240 276 276 240 320 240 c 1
 320 480 l 1
EndSplineSet
Validated: 1
EndChar

StartChar: uni03A9
Encoding: 937 937 464
Width: 720
VWidth: 0
Flags: HMW
LayerCount: 2
Fore
SplineSet
320 480 m 0
 452 480 560 390 560 280 c 0
 560 221 529 168 480 131 c 1
 480 80 l 1
 560 80 l 1
 560 0 l 1
 400 0 l 1
 400 176 l 1
 448 197 480 236 480 280 c 0
 480 346 408 400 320 400 c 0
 232 400 160 346 160 280 c 0
 160 236 192 197 240 176 c 1
 240 0 l 1
 80 0 l 1
 80 80 l 1
 160 80 l 1
 160 131 l 1
 111 168 80 221 80 280 c 0
 80 390 188 480 320 480 c 0
EndSplineSet
Validated: 1
EndChar

StartChar: Iotadieresis
Encoding: 938 938 465
Width: 720
VWidth: 0
Flags: HMW
LayerCount: 2
Fore
SplineSet
240 400 m 25
 480 400 l 25
 480 320 l 25
 400 320 l 25
 400 80 l 25
 480 80 l 25
 480 0 l 25
 240 0 l 25
 240 80 l 25
 320 80 l 25
 320 320 l 25
 240 320 l 25
 240 400 l 25
400 523 m 25
 480 523 l 25
 480 443 l 25
 400 443 l 25
 400 523 l 25
240 523 m 25
 320 523 l 25
 320 443 l 25
 240 443 l 25
 240 523 l 25
EndSplineSet
Validated: 1
EndChar

StartChar: Upsilondieresis
Encoding: 939 939 466
Width: 720
VWidth: 0
Flags: HMW
LayerCount: 2
Fore
SplineSet
103 400 m 1
 217 400 l 1
 360 257 l 1
 503 400 l 1
 617 400 l 1
 400 183 l 1
 400 0 l 1
 320 0 l 1
 320 183 l 1
 103 400 l 1
400 523 m 25
 480 523 l 25
 480 443 l 25
 400 443 l 25
 400 523 l 25
240 523 m 25
 320 523 l 25
 320 443 l 25
 240 443 l 25
 240 523 l 25
EndSplineSet
Validated: 1
EndChar

StartChar: alphatonos
Encoding: 940 940 467
Width: 720
VWidth: 0
Flags: HMW
LayerCount: 2
Fore
SplineSet
304 499 m 1
 452 648 l 1
 509 591 l 1
 360 443 l 1
 304 499 l 1
560 80 m 1
 560 0 l 1
 512 0 469 26 440 68 c 1
 411 26 368 0 320 0 c 0
 232 0 160 90 160 200 c 0
 160 310 232 400 320 400 c 0
 368 400 411 374 440 332 c 1
 469 374 512 400 560 400 c 1
 560 320 l 1
 516 320 480 266 480 200 c 0
 480 134 516 80 560 80 c 1
240 200 m 0
 240 134 276 80 320 80 c 0
 364 80 400 134 400 200 c 0
 400 266 364 320 320 320 c 0
 276 320 240 266 240 200 c 0
EndSplineSet
Validated: 1
EndChar

StartChar: epsilontonos
Encoding: 941 941 468
Width: 720
VWidth: 0
Flags: HMW
LayerCount: 2
Fore
SplineSet
304 499 m 1
 452 648 l 1
 509 591 l 1
 360 443 l 1
 304 499 l 1
478 140 m 1
 556 130 l 1
 544 56 460 0 360 0 c 0
 250 0 160 52 160 120 c 0
 160 152 184 176 220 196 c 1
 184 216 160 248 160 280 c 0
 160 348 250 400 360 400 c 0
 460 400 540 354 556 290 c 1
 476 280 l 1
 464 304 418 320 360 320 c 0
 294 320 240 304 240 280 c 0
 240 256 294 240 360 240 c 2
 400 240 l 1
 400 160 l 1
 360 160 l 2
 294 160 240 144 240 120 c 0
 240 96 294 80 360 80 c 0
 420 80 470 106 478 140 c 1
EndSplineSet
Validated: 1
EndChar

StartChar: etatonos
Encoding: 942 942 469
Width: 720
VWidth: 0
Flags: HMW
LayerCount: 2
Fore
SplineSet
304 499 m 1
 452 648 l 1
 509 591 l 1
 360 443 l 1
 304 499 l 1
240 301 m 1
 286 351 345 400 400 400 c 0
 490 400 560 310 560 200 c 2
 560 -120 l 1
 480 -120 l 1
 480 200 l 2
 480 266 446 320 400 320 c 0
 334 320 240 200 240 200 c 1
 240 0 l 1
 160 0 l 1
 160 400 l 1
 240 400 l 1
 240 301 l 1
EndSplineSet
Validated: 1
EndChar

StartChar: iotatonos
Encoding: 943 943 470
Width: 720
VWidth: 0
Flags: HMW
LayerCount: 2
Fore
SplineSet
480 80 m 1
 480 0 l 1
 392 0 320 72 320 160 c 2
 320 400 l 1
 400 400 l 1
 400 160 l 2
 400 116 436 80 480 80 c 1
304 499 m 1
 452 648 l 1
 509 591 l 1
 360 443 l 1
 304 499 l 1
EndSplineSet
Validated: 1
EndChar

StartChar: upsilondieresistonos
Encoding: 944 944 471
Width: 720
VWidth: 0
Flags: HMW
LayerCount: 2
Fore
SplineSet
480 590 m 25
 560 590 l 25
 560 510 l 25
 480 510 l 25
 480 590 l 25
160 590 m 25
 240 590 l 25
 240 510 l 25
 160 510 l 25
 160 590 l 25
259 499 m 1
 407 648 l 1
 464 591 l 1
 315 443 l 1
 259 499 l 1
160 400 m 1
 240 400 l 1
 240 200 l 2
 240 134 254 80 320 80 c 0
 386 80 480 174 480 240 c 0
 480 306 426 320 360 320 c 2
 320 320 l 1
 320 400 l 1
 360 400 l 2
 470 400 560 350 560 240 c 0
 560 130 430 0 320 0 c 0
 210 0 160 90 160 200 c 2
 160 400 l 1
EndSplineSet
Validated: 1
EndChar

StartChar: alpha
Encoding: 945 945 472
Width: 720
VWidth: 0
Flags: HM
LayerCount: 2
Fore
SplineSet
560 80 m 1
 560 0 l 1
 512 0 469 26 440 68 c 1
 411 26 368 0 320 0 c 0
 232 0 160 90 160 200 c 0
 160 310 232 400 320 400 c 0
 368 400 411 374 440 332 c 1
 469 374 512 400 560 400 c 1
 560 320 l 1
 516 320 480 266 480 200 c 0
 480 134 516 80 560 80 c 1
240 200 m 0
 240 134 276 80 320 80 c 0
 364 80 400 134 400 200 c 0
 400 266 364 320 320 320 c 0
 276 320 240 266 240 200 c 0
EndSplineSet
Validated: 1
EndChar

StartChar: beta
Encoding: 946 946 473
Width: 720
VWidth: 0
Flags: HMW
LayerCount: 2
Fore
SplineSet
410 80 m 2
 449 80 480 111 480 150 c 0
 480 189 449 220 410 220 c 2
 320 220 l 1
 320 300 l 1
 410 300 l 2
 438 300 460 322 460 350 c 0
 460 378 438 400 410 400 c 2
 320 400 l 2
 276 400 240 364 240 320 c 2
 240 -120 l 1
 160 -120 l 1
 160 320 l 2
 160 408 232 480 320 480 c 2
 410 480 l 2
 482 480 540 422 540 350 c 0
 540 317 528 287 508 264 c 1
 540 237 560 196 560 150 c 0
 560 67 493 0 410 0 c 2
 320 0 l 1
 320 80 l 1
 410 80 l 2
EndSplineSet
Validated: 1
EndChar

StartChar: gamma
Encoding: 947 947 474
Width: 720
VWidth: 0
Flags: HMW
LayerCount: 2
Fore
SplineSet
200 320 m 2
 160 320 l 1
 160 400 l 1
 200 400 l 2
 317 400 370 261 390 142 c 1
 493 400 l 1
 579 400 l 1
 371 -120 l 1
 285 -120 l 1
 333 0 l 1
 332 8 289 320 200 320 c 2
EndSplineSet
Validated: 1
EndChar

StartChar: delta
Encoding: 948 948 475
Width: 720
VWidth: 0
Flags: HMW
LayerCount: 2
Fore
SplineSet
240 160 m 0
 240 116 294 80 360 80 c 0
 426 80 480 116 480 160 c 0
 480 204 426 240 360 240 c 0
 294 240 240 204 240 160 c 0
560 480 m 1
 560 400 l 1
 440 400 l 2
 418 400 400 382 400 360 c 0
 400 300 560 295 560 160 c 0
 560 72 470 0 360 0 c 0
 250 0 160 72 160 160 c 0
 160 241 237 309 335 319 c 1
 326 332 320 345 320 360 c 0
 320 426 374 480 440 480 c 2
 560 480 l 1
EndSplineSet
Validated: 1
EndChar

StartChar: epsilon
Encoding: 949 949 476
Width: 720
VWidth: 0
Flags: HMW
LayerCount: 2
Fore
SplineSet
478 140 m 1
 556 130 l 1
 544 56 460 0 360 0 c 0
 250 0 160 52 160 120 c 0
 160 152 184 176 220 196 c 1
 184 216 160 248 160 280 c 0
 160 348 250 400 360 400 c 0
 460 400 540 354 556 290 c 1
 476 280 l 1
 464 304 418 320 360 320 c 0
 294 320 240 304 240 280 c 0
 240 256 294 240 360 240 c 2
 400 240 l 1
 400 160 l 1
 360 160 l 2
 294 160 240 144 240 120 c 0
 240 96 294 80 360 80 c 0
 420 80 470 106 478 140 c 1
EndSplineSet
Validated: 1
EndChar

StartChar: zeta
Encoding: 950 950 477
Width: 720
VWidth: 0
Flags: HMW
LayerCount: 2
Fore
SplineSet
418 -75 m 1
 455 -68 480 -55 480 -40 c 0
 480 -18 426 0 360 0 c 0
 250 0 160 108 160 240 c 0
 160 318 191 387 239 431 c 1
 199 454 171 490 164 530 c 1
 242 540 l 1
 250 506 300 480 360 480 c 2
 520 480 l 1
 520 400 l 1
 360 400 l 2
 294 400 240 328 240 240 c 0
 240 152 294 80 360 80 c 0
 470 80 560 26 560 -40 c 0
 560 -73 537 -103 501 -125 c 1
 418 -75 l 1
EndSplineSet
Validated: 1
EndChar

StartChar: eta
Encoding: 951 951 478
Width: 720
VWidth: 0
Flags: HMW
LayerCount: 2
Fore
SplineSet
240 301 m 1
 286 351 345 400 400 400 c 0
 490 400 560 310 560 200 c 2
 560 -120 l 1
 480 -120 l 1
 480 200 l 2
 480 266 446 320 400 320 c 0
 334 320 240 200 240 200 c 1
 240 0 l 1
 160 0 l 1
 160 400 l 1
 240 400 l 1
 240 301 l 1
EndSplineSet
Validated: 1
EndChar

